<?xml version="1.0" encoding="utf-8"?>
<!-- Generator: Adobe Illustrator 21.0.2, SVG Export Plug-In . SVG Version: 6.00 Build 0)  -->
<svg version="1.1" id="almaz" xmlns="http://www.w3.org/2000/svg" xmlns:xlink="http://www.w3.org/1999/xlink" x="0px" y="0px"
	 viewBox="0 0 128 128" style="enable-background:new 0 0 128 128;" xml:space="preserve">
<style type="text/css">
	.st0{fill:#FBD000;}
	.st1{fill:#EA291C;}
	.st2{fill:#EA3B36;}
	.st3{fill:#A81000;}
	.st4{opacity:0.5;fill:#FFFFFF;}
	.st5{fill:#FFFFFF;}
</style>
<g>
	<circle class="st0" cx="64" cy="64" r="64"/>
	<path class="st1" d="M27,50.8l11-13.7c4.3-5.5,4.2-5.5,8.2-5.5h38.4c4,0,3.9,0,8.2,5.5l10.9,13.7c7.4,8.2,7.2,8.2,0,16.4L73.6,97.4
		c-2.6,2.7-5.7,5.5-8.2,5.5c-2.6,0-5.6-2.7-8.2-5.5L27,67.2C19.7,59,19.6,59,27,50.8z"/>
	<polygon class="st2" points="43.8,63.8 65.5,102.8 87.2,64.5 	"/>
	<polygon class="st2" points="42.7,31.1 43.8,64.7 19.9,57.9 	"/>
	<polygon class="st2" points="88.3,31.1 87.2,64.7 111.1,57.9 	"/>
	<polygon class="st2" points="43.8,65 65.5,32.2 87.2,65 	"/>
	<path class="st3" d="M105.2,49.5L94.3,35.9c-3.7-4.8-4.6-5.9-8.6-5.9v0H44.9c-3.8,0-4.7,0.9-8.6,5.9L25.4,49.5
		C21.6,53.8,19,56.2,19,59c0,3,2.4,5,6.3,9.3l0.2,0.2c0,0,0.1,0.1,0.1,0.1l30.2,30.1c2.8,2.9,5.8,6.2,9.3,6.2c2.6,0,5.9-2,10-6.2
		l30.1-30.1c0,0,0.1-0.1,0.1-0.1l0.2-0.2c3.9-4.4,5.6-6.5,5.6-9.3C111,56.2,109,53.8,105.2,49.5z M92.7,37.1l10.9,13.7
		c3.1,3.4,4.8,5.4,5.3,7.1l-20.7,4.8l1.1-29.6C90.2,33.9,91.1,35.1,92.7,37.1z M65.3,101.6L44.8,65h41L65.3,101.6z M45.6,63l19.7-30
		l20.1,30H45.6z M87.4,32l-1,28.7L67.1,32H87.4z M63.6,32L44.3,61.3L43.5,32H63.6z M27,50.8l11-13.7c1.8-2.2,2.8-3.5,3.6-4.2
		l0.8,29.8l-20.6-5.1C22.4,56,24.1,54,27,50.8z M57.1,97.4L27,67.2c-3.3-3.7-5.1-5.7-5.4-7.6l20.9,5.1c0,0.1,0,0.1,0.1,0.2l21,37.4
		C61.4,101.6,59.2,99.5,57.1,97.4z M103.7,67.2L73.6,97.4c-2,2.1-4.4,4.2-6.4,5.1l21-37.4c0-0.1,0-0.1,0.1-0.2L109,60
		C108.5,61.8,106.7,63.8,103.7,67.2z"/>
	<path class="st4" d="M78,60.1c-0.3,0-0.7-0.2-0.8-0.5l-7.1-11c-0.3-0.5-0.2-1.1,0.3-1.4c0.5-0.3,1.1-0.2,1.4,0.3l7.1,11
		c0.3,0.5,0.2,1.1-0.3,1.4C78.3,60,78.1,60.1,78,60.1z"/>
	<path class="st4" d="M68.6,45.4c-0.3,0-0.7-0.2-0.8-0.5l-2.8-4.4c-0.3-0.5-0.2-1.1,0.3-1.4c0.5-0.3,1.1-0.2,1.4,0.3l2.8,4.4
		c0.3,0.5,0.2,1.1-0.3,1.4C68.9,45.4,68.7,45.4,68.6,45.4z"/>
	<path class="st4" d="M66.1,95.5c-0.2,0-0.3,0-0.5-0.1c-0.5-0.3-0.7-0.9-0.4-1.4l12.1-23c0.3-0.5,0.9-0.7,1.4-0.4
		c0.5,0.3,0.7,0.9,0.4,1.4L67,94.9C66.8,95.3,66.4,95.5,66.1,95.5z"/>
	<path class="st4" d="M26.4,57.3c-0.2,0-0.4-0.1-0.6-0.2c-0.4-0.3-0.5-1-0.2-1.4l12.6-15.8c0.3-0.4,1-0.5,1.4-0.2
		c0.4,0.3,0.5,1,0.2,1.4L27.2,56.9C27,57.1,26.7,57.3,26.4,57.3z"/>
	<path class="st5" d="M43.7,71.2c0-0.4-0.4-0.8-1-0.9l-1.9-0.3c-0.5-0.1-1.1-0.6-1.1-1.1l-0.3-1.9c-0.1-0.5-0.5-1-0.9-1
		c-0.4,0-0.8,0.4-0.9,1L37.4,69c-0.1,0.5-0.6,1.1-1.1,1.1l-1.9,0.3c-0.5,0.1-1,0.5-1,0.9c0,0.4,0.4,0.8,1,0.9l1.9,0.3
		c0.5,0.1,1.1,0.6,1.1,1.1l0.3,1.9c0.1,0.5,0.5,1,0.9,1c0.4,0,0.8-0.4,0.9-1l0.3-2.1c0.1-0.5,0.6-1,1.1-1.1l1.8-0.1
		C43.2,72,43.7,71.6,43.7,71.2z"/>
	<path class="st5" d="M91.6,32.8c0-0.4-0.4-0.8-1-0.9l-4.8-0.8c-0.5-0.1-1.1-0.6-1.2-1.2l-0.8-4.8c-0.1-0.5-0.5-1-0.9-1
		c-0.4,0-0.8,0.4-0.9,1l-0.8,4.8c-0.1,0.5-0.6,1.1-1.2,1.2l-4.8,0.8c-0.5,0.1-1,0.5-1,0.9c0,0.4,0.4,0.8,1,0.9l4.7,0.6
		c0.5,0.1,1.1,0.6,1.2,1.1l0.9,5c0.1,0.5,0.5,1,0.9,1c0.4,0,0.8-0.4,0.9-1l0.9-5.1c0.1-0.5,0.6-1,1.2-1.1l4.7-0.6
		C91.2,33.7,91.6,33.3,91.6,32.8z"/>
	<path class="st5" d="M31,100c-2.2,0-4-1.8-4-4c0-2.2,1.8-4,4-4c2.2,0,4,1.8,4,4C35,98.2,33.2,100,31,100z M31,93.9
		c-1.2,0-2.1,1-2.1,2.1c0,1.2,1,2.1,2.1,2.1c1.2,0,2.1-1,2.1-2.1C33.1,94.8,32.2,93.9,31,93.9z"/>
	<path class="st5" d="M54,21c-2.2,0-4-1.8-4-4c0-2.2,1.8-4,4-4c2.2,0,4,1.8,4,4C58,19.2,56.2,21,54,21z M54,14.9
		c-1.2,0-2.1,1-2.1,2.1c0,1.2,1,2.1,2.1,2.1c1.2,0,2.1-1,2.1-2.1C56.1,15.8,55.2,14.9,54,14.9z"/>
	<path class="st5" d="M108,88c-2.2,0-4-1.8-4-4c0-2.2,1.8-4,4-4c2.2,0,4,1.8,4,4C112,86.2,110.2,88,108,88z M108,81.9
		c-1.2,0-2.1,1-2.1,2.1c0,1.2,1,2.1,2.1,2.1c1.2,0,2.1-1,2.1-2.1C110.1,82.8,109.2,81.9,108,81.9z"/>
	<path class="st5" d="M95,105.1c0-0.4-0.4-0.8-1-0.9l-1.9-0.3c-0.5-0.1-1.1-0.6-1.1-1.1l-0.3-1.9c-0.1-0.5-0.5-1-0.9-1
		c-0.4,0-0.8,0.4-0.9,1l-0.3,1.9c-0.1,0.5-0.6,1.1-1.1,1.1l-1.9,0.3c-0.5,0.1-1,0.5-1,0.9c0,0.4,0.4,0.8,1,0.9l1.9,0.3
		c0.5,0.1,1.1,0.6,1.1,1.1l0.3,1.9c0.1,0.5,0.5,1,0.9,1c0.4,0,0.8-0.4,0.8-1l0.3-2.1c0.1-0.5,0.6-1,1.1-1.1l1.8-0.1
		C94.5,105.8,95,105.5,95,105.1z"/>
</g>
</svg>
