<svg xmlns="http://www.w3.org/2000/svg" viewBox="-20 -20 522 416" xmlns:xlink="http://www.w3.org/1999/xlink"><title>Product Dashboard</title><defs><filter id="a" width="126.1%" height="136.1%" x="-13.2%" y="-13.5%" filterUnits="objectBoundingBox"><feOffset dy="5" in="SourceAlpha" result="shadowOffsetOuter1"/><feGaussianBlur stdDeviation="7.5" in="shadowOffsetOuter1" result="shadowBlurOuter1"/><feColorMatrix values="0 0 0 0 0.243137255 0 0 0 0 0.223529412 0 0 0 0 0.419607843 0 0 0 0.199416893 0" in="shadowBlurOuter1" result="shadowMatrixOuter1"/><feMerge><feMergeNode in="shadowMatrixOuter1"/><feMergeNode in="SourceGraphic"/></feMerge></filter><rect id="b" width="301.8" height="222.6" rx="6"/><linearGradient id="c" x1="64.5%" x2="36%" y1="2.4%" y2="96.7%"><stop stop-color="#00AEFF" offset="0%"/><stop stop-color="#3369E6" offset="34.6%"/><stop stop-color="#913FE6" offset="100%"/></linearGradient><rect id="e" width="301.8" height="222.6" rx="6"/><rect id="g" width="301.8" height="222.6" rx="6"/><rect id="i" width="301.8" height="222.6" rx="6"/><linearGradient id="j" x1="39.3%" x2="61.1%" y1="96.7%" y2="2.4%"><stop stop-color="#00AEFF" offset="0%"/><stop stop-color="#3369E6" offset="34.6%"/><stop stop-color="#913FE6" offset="100%"/></linearGradient><rect id="l" width="301.8" height="222.6" rx="6"/><rect id="n" width="301.8" height="222.6" rx="6"/></defs><g fill="none" fill-rule="evenodd"><rect width="301.8" height="222.6" fill="#FFF" rx="6" filter="url(#a)"/><mask id="d" fill="#fff"><use xlink:href="#b"/></mask><path stroke="url(#c)" stroke-width="3" d="M21 170.5c24.3 0 25-40.6 51-40.6s24.6 27.6 50 27.6c25 0 24.6-65 50.4-65 25.8 0 24.4 55 49.6 55 25.2 0 25-113 50.8-113" stroke-linecap="round" mask="url(#d)"/><mask id="f" fill="#fff"><use xlink:href="#e"/></mask><path fill="#A6B0D8" fill-rule="nonzero" d="M25.4 30H27v7h3.4v1.3h-5v-8zM38 38.5l-.6-1.7h-4l-.7 1.7H31l3.7-8h1.6l3.5 8H38zm-4-3h2.8l-1.4-3.5-1.4 3.4zm11-3.7l-1.2-.2c-.4 0-.7 0-1 .2l-.2.6c0 .2 0 .4.2.6l.6.4 1 .3c.4 0 1 .3 1.2.5.4 0 .7.4 1 .7.2.3.3.7.3 1.2 0 .4-.2 1-.5 1.2l-1 1-1.7.2c-.6 0-1.2-.2-2-.4-.5-.2-1-.5-1.4-1l.6-1.3 1.4 1c.5 0 1 .3 1.4.3.5 0 .8 0 1-.3.3-.2.4-.4.4-.7 0-.2 0-.4-.2-.5l-.6-.4-1-.2-1.3-.5-.8-.7c-.2-.3-.3-.7-.3-1.2s0-1 .2-1.3l1-.7c.6-.2 1-.3 1.7-.3.4 0 1 0 1.5.2s1 .4 1.3.7l-.6 1.2-1.3-.6zm3-1.5h6.5v1.5H52v6.8h-1.6v-6.8H48v-1.3zM59 30H61l2.7 5.4 2.7-5.3H68v8.3h-1.3v-6l-2.5 5h-1l-2.6-5v6h-1.4v-8zm17.2.6c.7.4 1.2 1 1.6 1.5.4.7.5 1.4.5 2.2 0 .8 0 1.5-.5 2-.4.8-1 1.3-1.6 1.6-.6.4-1.4.6-2.2.6-.8 0-1.5-.2-2.2-.6-.6-.3-1.2-.8-1.5-1.5-.4-.6-.6-1.3-.6-2 0-1 0-1.6.5-2.2.3-.5 1-1 1.5-1.4.7-.4 1.4-.6 2.2-.6.8 0 1.6.2 2.2.6zM73 31.8c-.6.2-1 .6-1.2 1-.2.4-.3 1-.3 1.4s0 1 .4 1.4c0 .4.4.8 1 1 .3.3.7.4 1.2.4s1 0 1.4-.4c.4-.2.7-.6 1-1 .2-.4.4-1 .4-1.4s-.2-1-.4-1.4c-.3-.4-.6-.8-1-1-.4-.2-1-.4-1.4-.4-.5 0-1 .2-1.3.4zM86 30h1.5v8.3H86l-4.2-5.6v5.6h-1.5v-8h1.5l4.2 5.4V30zm3 0h6.6v1.5H93v6.8h-1.5v-6.8H89v-1.3zm8 0h1.6v3.6h4V30h1.6v8.3h-1.5V35h-4v3.3H97v-8z" mask="url(#f)"/><mask id="h" fill="#fff"><use xlink:href="#g"/></mask><path fill="#201C38" d="M39.8 63l1 1.7c-1 1-2.6 1.6-4 1.6-1.7 0-3.3-1-4.4-3-4.2 0-7.4-3.2-7.4-7.2s3.2-7 7.5-7c4.2 0 7.5 3 7.5 7 0 3.3-2 6-5 6.8.7.8 1.4 1.2 2.2 1.2.7 0 1.6-.4 2.6-1zm-12-7c0 2.7 2 4.8 4.7 4.8 2.6 0 4.7-2 4.7-4.7 0-2.6-2-4.7-4.7-4.7-2.6 0-4.8 2-4.8 4.8zm22.7-3.7v5.4c0 1.7-1 3-2.7 3-1.4 0-2.3-1-2.3-2.4v-6H43V59c0 2.6 1.4 4.2 3.8 4.2 1.7 0 3-.6 3.7-2v2h2.7V52h-2.7zm11.3 0c3.8 0 5.4 2.4 5 6.3H59c.3 1.6 1.5 2.5 3 2.5 1.2 0 2.2-.3 3-1l1.4 1.4c-1 1-2.7 1.8-4.6 1.8-3.3 0-5.5-2.2-5.5-5.4 0-3.3 2.2-5.5 5.5-5.5zm-3 4.6h5.7c0-1.7-1-2.7-2.7-2.7-1.6 0-2.7 1-3 2.6zm13.8-2.6v-2H70V63h2.6v-5c0-2 1.4-3.4 3.7-3.2v-2.6c-1.7 0-3 .8-3.7 2.2zm11.5 10l5-12h-2.7L83.5 60l-3-8h-2.8L82 63l-.2.7c-.3.7-1 1-1.6 1-.5 0-1 0-1.4-.5l-1 2c.7.7 1.5 1 2.6 1 1.7 0 3-1 3.7-2.7zm19.8-4c-.6.4-1 .5-1.5.5-.7 0-1.2-.4-1.2-1.4v-5h3.2V53h-3v-3h-2.7v3H97v2h1.5V60c0 2.2 1.4 3.2 3.2 3.2 1 0 2-.2 2.7-.7l-.6-2zm6-6v-2h-2.5V63h2.6v-5c0-2 1.3-3.4 3.6-3.2v-2.6c-1.7 0-3 .8-3.7 2.2zm11-2c3.7 0 5.3 2.3 5 6.2h-8c.4 1.6 1.6 2.5 3.2 2.5 1 0 2-.3 3-1l1.3 1.4c-1 1-2.6 1.8-4.5 1.8-3.4 0-5.6-2.2-5.6-5.4 0-3.3 2.3-5.5 5.5-5.5zm-3 4.5h5.7c0-1.7-1-2.7-2.8-2.7-1.5 0-2.6 1-3 2.6zm17.6-4.8c-1.7 0-3 .7-3.8 2.2v-2H129V63h2.6V58c0-1.8 1-3 2.8-3 1.5 0 2.4.8 2.4 2.4v6h2.6v-6.8c0-2.6-1.5-4.2-4-4.2zm15.6-4h2.6v15H151v-1.8c-.8 1.2-2 1.8-3.7 1.8-3 0-5-2.2-5-5.5s2-5.5 5-5.5c1.6 0 3 .7 3.7 2v-6zm-3 13c1.7 0 3-1.5 3-3.4 0-2-1.3-3.3-3-3.3-2 0-3 1.3-3.2 3.3 0 2 1.3 3.3 3 3.3zm16.2-6l1-1.8c-1.2-.8-2.6-1.2-4-1.2-2.2 0-4 1-4 3.3 0 3.8 5.5 2.7 5.5 4.7 0 .7-.7 1-1.6 1-1 0-2.6-.5-3.6-1.3l-1 1.7c1.3 1 3 1.5 4.6 1.5 2.3 0 4.3-1 4.3-3.2 0-4-5.8-3-5.8-4.8 0-.6.7-1 1.5-1 1 0 2 .4 3.2 1z" mask="url(#h)"/><g transform="translate(160.19 133.355)"><rect width="301.8" height="222.6" fill="#FFF" rx="6" filter="url(#a)"/><mask id="k" fill="#fff"><use xlink:href="#i"/></mask><path fill="url(#j)" fill-rule="nonzero" d="M28 185.5c0-2.5 2-4.6 4.5-4.6 2.6 0 4.6 2 4.6 4.5v8.2c0 2.5-2 4.6-4.5 4.6-2.6 0-4.6-2-4.6-4.6v-8.2zM65 168c0-2.4 2-4.5 4.6-4.5 2.6 0 4.7 2 4.7 4.6v25.7c0 2.5-2 4.6-4.6 4.6-2.6 0-4.7-2-4.7-4.6V168zm-18.6 9.4c0-2.5 2-4.6 4.7-4.6 2.6 0 4.7 2 4.7 4.6v16.2c0 2.6-2 4.7-4.6 4.7-2.5 0-4.6-2-4.6-4.7v-16.2zm37.2-2.3c0-2.5 2-4.5 4.6-4.5 2.6 0 4.7 2 4.7 4.6v18.7c0 2.5-2.2 4.6-4.8 4.6-2.5 0-4.6-2-4.6-4.6V175zm18.6-13.8c0-2.6 2-4.7 4.6-4.7 2.6 0 4.6 2 4.6 4.7v32.4c0 2.6-2 4.7-4.6 4.7-2.6 0-4.6-2-4.6-4.7v-32.4zm18.5-7c0-2.5 2-4.6 4.7-4.6 2.5 0 4.6 2 4.6 4.6v39.4c0 2.6-2 4.7-4.6 4.7-2.6 0-4.7-2-4.7-4.7v-39.4zm18.6-4.6c0-2.6 2-4.6 4.6-4.6 2.5 0 4.6 2 4.6 4.6v44c0 2.6-2 4.7-4.7 4.7-2.6 0-4.7-2-4.7-4.6v-44zM158 123c0-2.6 2-4.7 4.5-4.7 2.6 0 4.7 2 4.7 4.6v70.6c0 2.6-2 4.7-4.7 4.7-2.6 0-4.6-2-4.6-4.7V123zm18.4 16.2c0-2.6 2-4.7 4.7-4.7s4.7 2 4.7 4.7v54.5c0 2.5-2 4.6-4.6 4.6-2.5 0-4.6-2-4.6-4.6v-54.5zm18.6 4.6c0-2.6 2-4.6 4.7-4.6 2.5 0 4.6 2 4.6 4.6v50c0 2.4-2 4.5-4.6 4.5-2.6 0-4.7-2-4.7-4.6v-50zm18.6-24.4c0-2.5 2-4.6 4.6-4.6 2.6 0 4.7 2 4.7 4.6v74.3c0 2.5-2.2 4.6-4.8 4.6-2.5 0-4.6-2-4.6-4.6v-74.3zm18.6 11.6c0-2.5 2-4.6 4.6-4.6 2.6 0 4.7 2 4.7 4.6v62.7c0 2.5-2 4.6-4.7 4.6-2.6 0-4.6-2-4.6-4.6V131zm18.5-23c0-2.7 2-4.8 4.7-4.8 2.5 0 4.6 2 4.6 4.7v85.6c0 2.6-2 4.7-4.6 4.7-2.6 0-4.7-2-4.7-4.7V108zm18.6-23.4c0-2.5 2-4.6 4.7-4.6 2.5 0 4.6 2 4.6 4.6v109c0 2.6-2 4.7-4.6 4.7-2.6 0-4.7-2-4.7-4.6v-109z" mask="url(#k)"/><mask id="m" fill="#fff"><use xlink:href="#l"/></mask><path fill="#A6B0D8" fill-rule="nonzero" d="M29 30h1.4v7H34v1.3h-5v-8zm12.6 8.3l-.7-1.7h-4l-.8 1.7h-1.6l3.5-8H40l3.5 8h-1.7zm-4-3h2.7L39 31.7l-1.5 3.4zm10.8-3.7l-1-.2c-.5 0-.8 0-1 .2-.2.2-.4.4-.4.6 0 .2 0 .4.3.6l.5.4 1 .3c.5 0 1 .3 1.3.5.5 0 .8.4 1 .7.3.3.4.7.4 1.2 0 .4 0 1-.4 1.2l-1 1-1.7.2c-.6 0-1.3-.2-2-.4-.5-.2-1-.5-1.4-1l.5-1.3 1.4 1 1.3.3c.4 0 .8 0 1-.3.3-.2.4-.4.4-.7 0-.2 0-.4-.2-.5L48 35c-.3 0-.6 0-1-.2l-1.4-.5-1-.7c0-.3-.3-.7-.3-1.2s.2-1 .4-1.3l1-.7c.5-.2 1-.3 1.7-.3.5 0 1 0 1.5.2s1 .4 1.3.7l-.6 1.2-1.3-.6zm3-1.5H58v1.5h-2.5v6.8H54v-6.8h-2.6v-1.3zm11.3 0h1.8l2.7 5.4 2.6-5.3h1.8v8.3h-1.4v-6l-2.5 5h-1l-2.6-5v6h-1.3v-8zm17.2.6c.6.4 1 1 1.5 1.5.3.7.5 1.4.5 2.2 0 .8-.2 1.5-.5 2-.4.8-1 1.3-1.6 1.6-.8.4-1.5.6-2.3.6-.8 0-1.5-.2-2.2-.6-.7-.3-1.2-.8-1.6-1.5-.4-.6-.6-1.3-.6-2 0-1 .2-1.6.5-2.2.3-.5.8-1 1.5-1.4.7-.4 1.4-.6 2.2-.6.8 0 1.5.2 2.2.6zm-3.7 1.2c-.4.2-.7.6-1 1-.2.4-.3 1-.3 1.4s0 1 .3 1.4c.3.4.6.8 1 1 .5.3 1 .4 1.4.4.5 0 1 0 1.4-.4.5-.2.8-.6 1-1 .3-.4.4-1 .4-1.4s0-1-.3-1.4c-.2-.4-.5-.8-1-1-.3-.2-.8-.4-1.3-.4s-1 .2-1.4.4zm13-1.7H91v8.3h-1.5l-4.2-5.6v5.6h-1.5v-8h1.5l4 5.4V30zm3 0h6.8v1.5h-2.5v6.8H95v-6.8h-2.6v-1.3zm8.3 0h1.5v3.6h4.2V30h1.5v8.3h-1.5V35h-4v3.3h-1.6v-8z" mask="url(#m)"/><mask id="o" fill="#fff"><use xlink:href="#n"/></mask><path fill="#201C38" fill-rule="nonzero" d="M40 50.3h2.6V65H40l-7.6-10v10h-2.7V50.2h2.6l7.6 10v-10zm17 3.5v11h-2.7v-2c-.7 1.5-2 2.2-3.8 2.2-1.3 0-2.3-.3-3-1-.7-1-1-2-1-3.2v-7H49V60c0 .8.3 1.4.8 1.8.4.5 1 .7 1.7.7 1 0 1.6-.3 2-1 .6-.5.8-1.3.8-2.2v-5.5H57zm21.8 1c.7.8 1 1.8 1 3.2v7h-2.7v-6.2c0-.8 0-1.5-.5-2-.5-.4-1-.6-1.8-.6-1 0-1.6.4-2 1-.6.6-.8 1.3-.8 2.2V65h-3v-6.2c0-.8 0-1.5-.5-2-.4-.4-1-.6-1.8-.6-1 0-1.6.4-2 1-.6.6-.8 1.3-.8 2.2V65H61V53.7H64v2c.6-1.4 2-2 3.8-2 1 0 1.8 0 2.5.6.6.4 1 1 1.3 2 .8-1.8 2-2.7 4.2-2.7 1.3 0 2.3.4 3 1zm14.2-.4c.8.5 1.4 1.2 1.8 2 .5 1 .7 2 .7 3s-.2 2-.7 3c-.4.8-1 1.5-1.8 2-.8.4-1.7.6-2.8.6-.8 0-1.5 0-2.2-.4-.6-.4-1.2-1-1.6-1.5v2h-2.7V49.4h2.7v6c.4-.5 1-1 1.6-1.3.6-.3 1.4-.5 2.2-.5 1 0 2 .2 2.8.7zm-1.2 7.4c.6-.7 1-1.5 1-2.5s-.4-1.8-1-2.4c-.5-.7-1.3-1-2.2-1-1 0-1.7.3-2.3 1-.6.5-1 1.3-1 2.3 0 1 .4 1.8 1 2.5.6.6 1.3 1 2.3 1 1 0 1.7-.4 2.2-1zm15.4-6.6c1 1 1.4 2.5 1.4 4.3v.8h-8.3c.2.8.5 1.4 1 2 .7.3 1.4.6 2.2.6.6 0 1-.3 1.6-.5.6-.2 1-.5 1.5-1l1.5 1.6c-.6.7-1.3 1.2-2 1.5-1 .4-1.8.5-2.7.5-1.2 0-2.2-.2-3-.7-1-.4-1.6-1-2-2-.6-.8-.8-1.8-.8-3 0-1 .2-2 .7-3 .5-.7 1.2-1.4 2-2 1-.4 2-.6 3-.6 1.8 0 3 .5 4 1.5zm-1 3.3c-.2-.8-.4-1.5-1-2-.5-.5-1-.7-2-.7-.8 0-1.5.2-2 .7s-1 1.2-1 2h6zm9.6-4.2c.7-.4 1.5-.6 2.3-.6v2.6c-1 0-2 .2-2.7.8-.6.7-1 1.5-1 2.6V65h-2.7V53.7h2.7v2c.4-.6 1-1.2 1.5-1.5zm18.7 0c1 .6 1.6 1.2 2 2 .5 1 .8 2 .8 3 0 1.2-.3 2.2-.8 3-.4 1-1 1.6-2 2-1 .5-2 .7-3 .7-1.3 0-2.3-.2-3.2-.7-1-.4-1.6-1-2-2-.5-.8-.8-1.8-.8-3 0-1 .3-2 .7-3 .5-.8 1.2-1.4 2-2 1-.4 2-.6 3.2-.6 1.2 0 2.2.2 3 .7zM129 57c-.5.6-.8 1.4-.8 2.4s.3 1.8 1 2.4c.5.7 1.3 1 2.2 1 1 0 1.7-.3 2.3-1 .6-.6 1-1.4 1-2.4s-.4-1.8-1-2.5-1.4-1-2.3-1c-1 0-1.7.3-2.3 1zm14.8-5c-.2.3-.4.6-.4 1v1.2h2.8v2h-2.8V65h-2.7V56h-1.4v-2h1.4v-1c0-1 .2-1.6.6-2 .3-.7.8-1 1.4-1.4.6-.3 1.3-.5 2-.5s1.4.2 2 .5l-.4 2.2-1.4-.3c-.5 0-1 0-1.2.3zm21.3 1.8V69h-2.6v-6c-.4.8-1 1.2-1.5 1.6-.8.3-1.5.5-2.3.5-1 0-2-.2-2.8-.7s-1.6-1-2-2c-.4-.8-.7-1.8-.7-3 0-1 .3-2 .7-3 .4-.8 1-1.4 2-2 .7-.4 1.6-.6 2.6-.6s1.6 0 2.2.5c.7.3 1.2.8 1.6 1.4v-1.8h2.7zm-3.5 8c.6-.6 1-1.4 1-2.4s-.4-1.8-1-2.5-1.3-1-2.3-1c-1 0-1.6.3-2.2 1-.6.6-1 1.4-1 2.4s.4 1.8 1 2.4c.6.7 1.3 1 2.2 1 1 0 1.7-.3 2.3-1zm18-8v11H177v-2c-.8 1.5-2 2.2-4 2.2-1.2 0-2.2-.3-3-1-.7-1-1-2-1-3.2v-7h2.7V60c0 .8.2 1.4.6 1.8.5.5 1 .7 1.8.7 1 0 1.7-.3 2.2-1 .5-.5.7-1.3.7-2.2v-5.5h2.6zm13 1.4c.8 1 1.3 2.5 1.3 4.3v.8h-8.3c.2.8.5 1.4 1 2 .7.3 1.4.6 2.2.6.6 0 1-.3 1.6-.5.5-.2 1-.5 1.4-1l1.5 1.6c-.6.7-1.3 1.2-2 1.5-1 .4-1.8.5-2.7.5-1.2 0-2.2-.2-3-.7-1-.4-1.6-1-2-2-.6-.8-.8-1.8-.8-3s.2-2 .7-3c.5-.7 1.2-1.4 2-2 1-.4 2-.6 3-.6 1.8 0 3 .5 4 1.5zm-1.2 3.3c0-.8-.3-1.5-.8-2-.6-.5-1.2-.7-2-.7-1 0-1.6.2-2 .7-.6.5-1 1.2-1 2h5.8zm9.7-4.2c.7-.4 1.5-.6 2.3-.6v2.6c-1 0-2 .2-2.8.8-.6.7-1 1.5-1 2.6V65h-2.7V53.7h2.7v2c.4-.6 1-1.2 1.5-1.5zm5-.5h2.6v11H206V54zm2.4-4.4c.2.3.4.7.4 1.2s-.2.8-.4 1.2c-.3.3-.7.4-1.2.4-.4 0-.8 0-1-.4-.4-.4-.5-.7-.5-1.2s0-1 .4-1.2c.4-.3.8-.4 1.2-.4.5 0 1 0 1.2.4zm13 5.8c1 1 1.3 2.5 1.3 4.3v.8h-8.3c.2.8.6 1.4 1.2 2 .5.3 1.2.6 2 .6.6 0 1.2-.3 1.7-.5s1-.5 1.4-1l1.4 1.6c-.4.7-1 1.2-2 1.5-.7.4-1.6.5-2.6.5s-2-.2-3-.7c-1-.4-1.5-1-2-2-.5-.8-.7-1.8-.7-3 0-1 .2-2 .7-3 .5-.7 1-1.4 2-2 1-.4 1.8-.6 3-.6 1.7 0 3 .5 4 1.5zm-1.2 3.3c0-.8-.3-1.5-.8-2s-1.2-.7-2-.7-1.5.2-2 .7c-.6.5-1 1.2-1 2h5.8zm10.5-2.4L229 56c-.4 0-.7 0-1 .2-.3.2-.4.4-.4.8 0 .3.2.6.5.8l1.7.6 2 .7c.5 0 1 .4 1.3 1 .3.3.5 1 .5 1.7 0 1-.4 2-1.2 2.5-1 .6-2 .8-3.2.8-.8 0-1.6 0-2.4-.4-.8-.2-1.5-.6-2-1l.8-2c.5.4 1 .7 1.8 1 .7.2 1.4.4 2 .4.5 0 1 0 1.2-.3.3-.2.5-.4.5-.8 0-.5-.3-.8-.7-1l-1.7-.6-1.8-.7c-.5-.2-1-.5-1.2-1-.4-.4-.6-1-.6-1.7 0-1 .4-2 1.2-2.5.8-.6 2-1 3-1 .8 0 1.5.3 2.3.5l2 .8-1 2-1.8-.8z" mask="url(#o)"/></g></g></svg>