<svg xmlns="http://www.w3.org/2000/svg" width="670" height="443"><title>Phone Illustration</title><g fill="none" fill-rule="evenodd"><path fill="#F8FAFF" d="M571 247.265V247h68.998C656.57 247 670 233.57 670 217c0-16.572-13.432-30-30.002-30h-71.505c-16.564 0-29.993-13.428-29.993-30 0-16.57 13.44-30 29.994-30h26.5C611.572 127 625 113.57 625 97c0-16.572-13.434-30-30.006-30H58.002C41.43 67 28 80.43 28 97c0 16.572 13.432 30 30.002 30H113h-5.998C90.43 127 77 140.43 77 157c0 16.572 13.432 30 30.002 30h15.994c16.57 0 30.004 13.428 30.004 30 0 16.57-13.432 30-30.004 30H30.002C13.43 247 0 260.43 0 277c0 16.572 13.432 30 30.002 30H113 93.002C76.43 307 63 320.43 63 337c0 16.572 13.432 30 30.002 30h499.996C609.57 367 623 353.57 623 337c0-16.572-13.432-30-30.002-30H571v-.265c-1.31.175-2.646.265-4.003.265h-74.994C475.433 307 462 293.572 462 277c0-16.57 13.438-30 30.003-30h74.994c1.357 0 2.694.09 4.003.265zM79.25 37c0-16.57 13.44-30 30.005-30h525.74C651.565 7 665 20.428 665 37c0 16.57-13.44 30-30.005 30h-525.74C92.685 67 79.25 53.572 79.25 37zM45 397c0-16.57 13.424-30 29.994-30h458.012C549.57 367 563 380.428 563 397c0 16.57-13.424 30-29.994 30H74.994C58.43 427 45 413.572 45 397z" opacity=".835"/><g transform="translate(47 -2)"><circle cx="503.5" cy="20.5" r="7.5" fill="#48D2A0" opacity=".162"/><circle cx="479.5" cy="56.5" r="4.5" fill="#48D2A0" opacity=".17"/><circle cx="519" cy="83" r="7" fill="#48D2A0" opacity=".301"/><circle cx="110" cy="64" r="7" fill="#48D2A0" opacity=".184"/><circle cx="91.5" cy="111.5" r="4.5" fill="#48D2A0" opacity=".15"/><g stroke="#48D2A0" stroke-width="7" opacity=".364" stroke-linecap="round"><path d="M197.85 23.248l-9.87-17.095M184.367 19.635l17.095-9.87"/></g><g stroke="#48D2A0" stroke-width="6" opacity=".464" stroke-linecap="round"><path d="M424.49 396.474l19 10.97M439.474 392.46l-10.97 19"/></g><circle cx="373.5" cy="437.5" r="7.5" fill="#48D2A0" opacity=".224"/><circle cx="337.5" cy="383.5" r="4.5" fill="#48D2A0" opacity=".135"/><g stroke="#48D2A0" stroke-width="6" opacity=".391" stroke-linecap="round"><path d="M538.095 251.34l13.913-3.727M543.198 242.525l3.728 13.913"/></g></g><g transform="translate(269 35)"><circle cx="149.868" cy="170.441" r="119" fill="#FFF"/><path fill="#EAF1FB" d="M168.297 269.237s22.477-17.105 18.993-26.518c-3.484-9.414-52.713-26.572-44.89-47.894 7.82-21.322 39.25-10.553 50.827-19.018 11.578-8.465 16.59-24.938 28.004-30.336 11.415-5.398 12.653 13.137 26.416 4.6 13.764-8.538 9.597-46.255 20.873-33.933 13.254 0 44.646-22.044 30.335 36.81-14.312 58.857-67.564 116.287-67.564 116.287h-62.993z"/><path stroke="#7C8495" stroke-width="4" d="M162.183 229.486c-14.72-9.264-32.75-21.123-27.784-34.66 3.874-10.566 13.548-13.252 23.73-14.302m13.167-.96c5.6-.473 10.59-1.314 13.93-3.756 11.578-8.465 16.59-24.938 28.004-30.336 11.415-5.398 12.653 13.137 26.416 4.6 13.764-8.538 9.597-46.255 20.873-33.933 13.254 0 44.646-22.044 30.335 36.81-14.312 58.857-67.564 116.287-67.564 116.287h-62.993s22.477-17.105 18.993-26.518c-.88-2.376-4.67-5.244-9.72-8.547" stroke-linecap="round"/><path fill="#EAF1FB" d="M65.587 95.252c17.875 8.188 10.663-32.375 28.837-22.008 4.148 2.366 7.46 5.04 10.24 7.852 1.794 1.814 3.365 3.684 4.794 5.564 6.057 7.966 9.562 16.096 16.654 20.802 2.916 1.936 7.71 3.092 13.035 3.378 3.9.21 8.084-.048 12.02-.808 11.618-2.242 21.088-8.863 14.777-20.784-11.368-21.477 6.522-24.357 12.396-35.862 5.874-11.504 10.865-24.34 4.814-41.517-6.05-17.178-28.578-10.142-28.578-10.142L2.944 67.77S47.71 87.064 65.587 95.253z"/><path stroke="#7C8495" stroke-width="4" d="M107.458 91.66c6.057 7.966 9.562 16.096 16.654 20.802 2.916 1.936 7.71 3.092 13.035 3.378m12.02-.808c11.618-2.242 21.088-8.863 14.777-20.784-11.368-21.477 6.522-24.357 12.396-35.862 5.874-11.504 10.865-24.34 4.814-41.517-6.05-17.178-28.578-10.142-28.578-10.142L.944 72.77s44.767 19.293 62.643 27.482c17.875 8.188 10.663-32.375 28.837-22.008 4.148 2.366 7.46 5.04 10.24 7.852" stroke-linecap="round"/></g><path stroke="#7C8495" stroke-width="4" d="M496.768 100.5C475.35 79.76 446.166 67 414 67c-65.722 0-119 53.278-119 119 0 45.56 25.605 85.142 63.21 105.138m25.572 9.99C393.432 303.656 403.56 305 414 305c65.722 0 119-53.278 119-119 0-23.227-6.655-44.9-18.16-63.216m-8.544-11.906c-1.034-1.268-2.093-2.515-3.176-3.74" stroke-linecap="round"/><path fill="#97E5C9" stroke="#7C8495" stroke-width="4" d="M455.28 125.316c11.478 7.77 32.924 10.58 21.436-11.565-11.49-22.144-32.912 3.796-21.435 11.566zM396.844 284.945c10.72 1.097 7.826-14.328-11.728-26.517-19.554-12.188 1.01 25.42 11.728 26.517"/><g transform="rotate(30 -91.903 405.47)"><path fill="#8ADAF8" d="M115.013 70.54c-35.93-26.645-46.168 49.543-87.848 106.077-19.86 22.47 16.06-4.01 28.994 4.063 12.935 8.07-4.895 37.31 11.075 27.728 15.97-9.58 23.215-18.54 41.982-13.512 18.767 5.03 4.403 27.807 18.967 29.844 14.563 2.036 26.903-21.88 41.72-20.523 14.816 1.357 14.917 37.97 21.89 20.003 13.09-34.747-27.12-104.387-14.97-149.735 12.15-45.348-33.683-5.917-61.81-3.946z"/><path stroke="#7C8495" stroke-width="4" d="M26.046 168.29c-6.554 9.72-13.575 19.05-21.197 27.407-19.862 22.47 33.26-17.262 46.196-9.19 12.936 8.07-9.032 33.362 10.284 24.324 19.316-9.036 19.707-13.294 40.04-10.84 20.333 2.456 7.972 25.572 22.535 27.608 4.53.633 9.26-1.52 14.07-4.748 0 0 4.87-3.49 8.532-6.46m-1.008.82c8.258-6.585 16.582-13.71 24.403-12.993 14.817 1.357 22.298 39.946 29.27 21.98 3.076-8.164 2.802-18.363.74-29.778m-2.32-10.68c-8.864-35.668-29.2-79.787-20.77-111.255 12.152-45.348-33.682-5.917-61.81-3.946-27.808-20.623-48.57 32.768-79.75 83.408" stroke-linecap="round"/><path stroke="#6E7585" stroke-width="6" d="M178.414 58.68s16.315-.89 22.775-8.103c6.458-7.215 11.487-37.903 11.487-37.903" stroke-linecap="round" stroke-linejoin="round"/><path fill="#F6F9FC" d="M79.235 138.957V16.98c0-5.528 4.332-11.105 9.732-12.32 0 0 15.287-4.658 40.307-4.658 25.02 0 40.306 4.66 40.306 4.66 5.375 1.275 9.732 6.79 9.732 12.316V172.96c0 5.52-4.396 10.827-9.846 11.745 0 0-15.173 3.475-40.192 3.475-2.87 0-5.607-.045-8.21-.126-3.95-.123-7.586-.327-10.876-.576-13.432-1.015-21.13-2.746-21.13-2.746-5.425-.982-9.823-6.26-9.823-11.776v-34z"/><path stroke="#7C8495" stroke-width="4" d="M79.235 136.07v-7.643m0 3.904V16.964c0-5.52 4.332-11.09 9.732-12.304 0 0 15.287-4.66 40.307-4.66 3.963 0 7.682.117 11.134.314m7.256.556c13.91 1.348 21.916 3.79 21.916 3.79 5.375 1.275 9.732 6.79 9.732 12.316V172.96c0 5.52-4.396 10.827-9.846 11.745 0 0-15.173 3.475-40.192 3.475-2.87 0-5.607-.045-8.21-.126m-10.876-.576c-13.432-1.015-21.13-2.746-21.13-2.746-5.425-.982-9.823-6.256-9.823-11.77V144.74l-.007-10.01" stroke-linecap="round" stroke-linejoin="round"/><path fill="#FFF" stroke="#7C8495" stroke-width="4" d="M169.903 70.142v6.956m0 8.54v69.458c0 2.21-1.79 4.002-4 4.002H92.645c-2.21 0-4.002-1.784-4.002-3.998V24.528c0-2.21 1.792-4 4.002-4h73.256c2.21 0 4 1.798 4 4v20.717" stroke-linecap="round" stroke-linejoin="round"/><path fill="#15B4F1" stroke="#15B4F1" stroke-width="3" d="M141.924 102.417l-5.478 15.6-5.478-15.6c-.012-.042-.03-.083-.053-.142-.036-.07-.048-.1-.07-.16-.096-.177-.214-.336-.356-.478-.154-.154-.326-.278-.515-.373-.07-.053-.1-.06-.16-.07l-.106-.054c-.13-.047-.178-.06-.214-.07-.13-.03-.17-.036-.195-.036-.135-.012-.176-.018-.21-.018h-.196c-.148.012-.467.077-.514.09-.1.034-.136.046-.196.07-.076.035-.094.047-.14.07-.202.107-.38.237-.533.39-.14.143-.26.308-.354.497l-.124.266-5.478 15.618-5.478-15.6c-.2-.545-.56-.947-1.08-1.207-.52-.247-1.053-.276-1.597-.087-.545.2-.94.56-1.19 1.08-.247.52-.276 1.053-.087 1.597l7.446 21.22c.04.1.075.19.123.284.082.136.136.213.195.284.076.106.136.17.195.23.106.095.177.154.248.213.125.084.196.125.267.16.118.054.195.083.266.107.088.04.17.06.266.07.194.042.306.054.424.054.106 0 .213-.01.32-.035.182-.03.265-.047.336-.07.095-.042.166-.07.248-.107.107-.053.178-.094.248-.142.136-.094.207-.153.266-.212l.213-.213c.083-.123.13-.2.177-.283.083-.147.125-.236.16-.32 0-.01 5.478-15.617 5.478-15.617l5.478 15.6c.035.1.077.19.124.284.083.136.13.213.177.284.082.106.135.17.194.23.113.095.184.154.266.213.107.084.178.125.25.16.123.054.194.083.264.107.095.04.172.06.266.07.207.042.32.054.426.054.106 0 .22-.01.337-.035.183-.03.266-.047.337-.07.088-.042.165-.07.248-.107.106-.053.177-.094.248-.142.124-.094.195-.153.266-.212.094-.095.148-.154.195-.213.094-.123.148-.2.195-.283.083-.147.118-.236.142-.32l7.463-21.237c.19-.544.16-1.076-.088-1.596-.25-.52-.645-.88-1.19-1.08-.555-.19-1.092-.16-1.612.087-.52.26-.875.663-1.064 1.207z" opacity=".5"/><path stroke="#7C8495" stroke-width="4" d="M111.74 48.724s.788-3.534 3.72-3.782c2.93-.247 4.08 3.424 4.08 3.424M138.255 48.724s.79-3.534 3.72-3.782c2.93-.247 4.08 3.424 4.08 3.424" stroke-linecap="round" stroke-linejoin="round"/><path fill="#E1EBF7" d="M116.87 11.42c0-1.11.884-2.123 1.99-2.25 0 0 4.212-.616 10.414-.616 6.2 0 10.414.617 10.414.617 1.098.132 1.988 1.138 1.988 2.25v-.6c0 1.11-.882 1.9-1.988 1.772 0 0-4.213-.617-10.414-.617-6.202 0-10.415.617-10.415.617-1.1.132-1.99-.66-1.99-1.772v.6z"/><path stroke="#6E7585" stroke-width="6" d="M78.258 60.538s-15.17.474-22.977 12.97c-7.808 12.497-12.45 38.67-12.45 38.67" stroke-linecap="round" stroke-linejoin="round"/><circle cx="129.701" cy="173.639" r="7.698" fill="#E1EBF7"/><path fill="#7C8495" d="M115.078 66.644c-2.173 1.43-.283 4.76 3.55 6.576 3.834 1.817 8.568.135 8.627-1.902.06-2.036-10.005-6.105-12.177-4.674z"/></g></g></svg>