<svg xmlns="http://www.w3.org/2000/svg" width="670" height="450"><title>Phone Illustration</title><g fill="none" fill-rule="evenodd"><path fill="#F8FAFF" d="M571 253.265V253h68.998C656.57 253 670 239.57 670 223c0-16.572-13.432-30-30.002-30h-71.505c-16.564 0-29.993-13.428-29.993-30 0-16.57 13.44-30 29.994-30h26.5C611.572 133 625 119.57 625 103c0-16.572-13.434-30-30.006-30H58.002C41.43 73 28 86.43 28 103c0 16.572 13.432 30 30.002 30H113h-5.998C90.43 133 77 146.43 77 163c0 16.572 13.432 30 30.002 30h15.994c16.57 0 30.004 13.428 30.004 30 0 16.57-13.432 30-30.004 30H30.002C13.43 253 0 266.43 0 283c0 16.572 13.432 30 30.002 30H113 93.002C76.43 313 63 326.43 63 343c0 16.572 13.432 30 30.002 30h499.996C609.57 373 623 359.57 623 343c0-16.572-13.432-30-30.002-30H571v-.265c-1.31.175-2.646.265-4.003.265h-74.994C475.433 313 462 299.572 462 283c0-16.57 13.438-30 30.003-30h74.994c1.357 0 2.694.09 4.003.265zM79.25 43c0-16.57 13.44-30 30.005-30h525.74C651.565 13 665 26.428 665 43c0 16.57-13.44 30-30.005 30h-525.74C92.685 73 79.25 59.572 79.25 43zM45 403c0-16.57 13.424-30 29.994-30h458.012C549.57 373 563 386.428 563 403c0 16.57-13.424 30-29.994 30H74.994C58.43 433 45 419.572 45 403z" opacity=".835"/><g transform="translate(364 161)"><path stroke="#6E7585" stroke-width="6" d="M58.25 75.69S59.906 89.852 37 91.19C14.094 92.53 3.26 70.11 3.26 70.11" stroke-linecap="round" stroke-linejoin="round"/><path fill="#F6F9FC" d="M56.378 20.38c0-6.633 5.208-13.326 11.672-14.78 0 0 18.405-5.6 48.48-5.6 30.078 0 48.482 5.6 48.482 5.6 6.446 1.53 11.672 8.14 11.672 14.78v187.35c0 6.63-5.285 13.01-11.81 14.107 0 0-18.266 4.178-48.343 4.178-30.075 0-48.342-4.178-48.342-4.178-6.523-1.16-11.81-7.47-11.81-14.108V20.38z"/><path fill="#FFF" d="M67.69 29.458c0-2.652 2.153-4.802 4.793-4.802h88.096c2.647 0 4.793 2.15 4.793 4.802v156.826c0 2.652-2.154 4.802-4.794 4.802H72.482c-2.648 0-4.794-2.15-4.794-4.802V29.458z"/><path stroke="#7C8495" stroke-width="4" d="M83.9 224.262c-10.11-1.144-15.72-2.372-15.72-2.372-6.517-1.19-11.802-7.524-11.802-14.16v-56.257m0-11.134v-6.292m0-21.698V20.37c0-6.627 5.208-13.316 11.672-14.77 0 0 18.405-5.6 48.48-5.6 10.1 0 18.885.632 26.098 1.47m9.24 1.3c8.476 1.41 13.144 2.83 13.144 2.83 6.446 1.53 11.672 8.14 11.672 14.78v187.35c0 6.63-5.285 13.01-11.81 14.107 0 0-18.266 4.178-48.343 4.178-5.94 0-11.418-.163-16.387-.424" stroke-linecap="round" stroke-linejoin="round"/><path stroke="#7C8495" stroke-width="4" d="M165.373 149.343v36.934c0 2.656-2.154 4.81-4.794 4.81H72.482c-2.648 0-4.794-2.15-4.794-4.803V29.458c0-2.652 2.153-4.802 4.793-4.802h88.096c2.647 0 4.793 2.15 4.793 4.81v104.647" stroke-linecap="round" stroke-linejoin="round"/><path fill="#15B4F1" stroke="#15B4F1" stroke-width="3.6" d="M131.738 123.01l-6.585 18.736-6.585-18.737c-.014-.05-.036-.1-.064-.172-.043-.085-.057-.12-.085-.19-.115-.214-.257-.406-.428-.576-.184-.185-.39-.334-.618-.447-.085-.064-.12-.07-.192-.086-.056-.03-.1-.05-.127-.065-.157-.056-.214-.07-.256-.085-.157-.035-.207-.042-.236-.042-.163-.014-.213-.022-.255-.022h-.236c-.177.015-.56.093-.618.107-.12.042-.163.057-.234.085-.093.043-.114.057-.17.085-.242.128-.455.284-.64.47-.17.17-.313.368-.426.595-.03.057-.135.29-.15.32l-6.585 18.758-6.584-18.737c-.242-.654-.675-1.137-1.3-1.45-.625-.297-1.265-.333-1.918-.106-.654.242-1.13.674-1.428 1.3-.298.624-.334 1.262-.107 1.915l8.95 25.487c.05.12.094.227.15.34.1.164.164.256.235.34.092.13.163.207.234.278.128.114.213.184.3.255.148.1.233.15.318.192.142.064.235.1.32.128.107.05.206.07.32.085.234.05.37.064.51.064.13 0 .257-.015.385-.044.22-.035.32-.056.405-.085.113-.05.2-.084.298-.127.128-.063.213-.113.298-.17.164-.114.25-.184.32-.255l.256-.256c.1-.15.156-.24.213-.34.1-.178.15-.285.192-.384 0-.014 6.585-18.76 6.585-18.76l6.585 18.74c.043.12.093.226.15.34.1.163.156.255.213.34.1.128.163.206.234.277.135.114.22.184.32.255.128.1.213.15.298.192.15.064.235.1.32.128.114.05.206.07.32.085.248.05.383.064.51.064.13 0 .264-.015.406-.044.22-.035.32-.056.405-.085.106-.05.2-.084.298-.127.13-.063.214-.113.3-.17.15-.114.234-.184.32-.255.113-.114.177-.185.234-.256.113-.15.177-.24.234-.34.1-.178.142-.285.17-.384l8.973-25.51c.228-.652.193-1.29-.106-1.915-.298-.625-.774-1.057-1.428-1.3-.667-.226-1.314-.19-1.94.108-.624.313-1.05.796-1.278 1.45z" opacity=".5"/><path stroke="#7C8495" stroke-width="4.8" d="M95.452 58.52s.95-4.245 4.472-4.542c3.523-.297 4.905 4.113 4.905 4.113M127.328 58.52s.95-4.245 4.472-4.542c1.714-.145 2.922.826 3.71 1.86.83 1.09 1.195 2.253 1.195 2.253" stroke-linecap="round" stroke-linejoin="round"/><path fill="#E1EBF7" d="M101.62 13.715c0-1.333 1.08-2.55 2.39-2.7 0 0 5.066-.742 12.52-.742 7.456 0 12.52.742 12.52.742 1.32.158 2.39 1.365 2.39 2.7v-.72c0 1.334-1.078 2.28-2.39 2.13 0 0-5.064-.742-12.52-.742-7.454 0-12.52.74-12.52.74-1.32.16-2.39-.793-2.39-2.127v.72z"/><ellipse cx="117.045" cy="208.551" fill="#E1EBF7" rx="9.254" ry="9.246"/><path stroke="#6E7585" stroke-width="6" d="M179.665 69.672s24.343 6.07 19.382 25.97c-4.96 19.898-57.406-1.716-57.406-1.716" stroke-linecap="round" stroke-linejoin="round"/><path fill="#7C8495" d="M122.39 85.712c1.64-2.66-2.328-3.61-7.428-3.643-5.1-.034-10.257-1.717-9.24 1.595 1.02 3.313 15.027 4.706 16.667 2.047z"/></g><path fill="#DEEAF8" d="M171.197 290.25s-11.336 1.352-8.863-7.738c1.565-5.756 7.866-4.706 11.598-14.125 3.54-8.934-5.547-37.337 31.607-16.125.695.397 9.49-.434 10.212 0 0 0 .41 5.997-13.13 12.242-12.182 5.618-15.217 9.532-16.126 10.304" opacity=".9"/><path fill="#DEEAF8" d="M201.39 264s-7.415-17.52-.31-23.746c5.172-4.532 18.064-.87 24.92-.624 6.66.24 19.978 1.21 24.934 5.69 2.007 1.813 10.15-1.333 11.41 1.53 2.845 6.456-1.54 17.15-1.54 17.15" opacity=".9"/><path stroke="#7C8495" stroke-width="4" d="M170.94 290.99s-12.08.612-9.606-8.478c1.565-5.756 2.165-3.6 5.898-13.02 1.148-2.9.292-9.12-.138-15.493m.153-10.607c1.37-8.555 7.21-13.003 26.753-1.286" stroke-linecap="round"/><path stroke="#7C8495" stroke-width="4" d="M274.06 290.99s12.08.612 9.606-8.478c-1.565-5.756-2.165-3.6-5.898-13.02-3.606-9.1 12.553-50.96-26.768-27.385"/><path stroke="#7C8495" stroke-width="4" d="M198.08 256.62s-7.105-15.14 0-21.366c5.172-4.532 18.064.13 24.92.376 6.66.24 21.035-2.25 25.99 2.23 6.535 5.905-3.428 18.76-3.428 18.76" stroke-linecap="round"/><path fill="#DEEAF8" d="M185.784 341c-25.768-46.442 9.813-92.73 48.9-86.426 71.432 11.52 40.12 86.426 40.12 86.426" opacity=".9"/><path stroke="#7C8495" stroke-width="4" d="M176.784 341c-25.768-46.442 9.556-91.582 49.096-87.775C298.093 260.178 265.803 341 265.803 341"/><path fill="#7C8495" d="M218.494 326.345c-2.41-.975-3.676-1.99-4.798-4.74-1.117-2.747-1.207-7.818 2.148-10.943 2.324-2.167 4.586 1.625 3.74 2.255-2.613 1.947-3.505 4.905-2.97 7.08.987 4.007 4.39 6.105 8.505 4.468 4.008-2.042.38-5.638.788-5.39 3.487 2.127 2.028 5.64-.136 6.997-1.447.908-4.478 1.406-7.278.273"/><path fill="#F7F9FC" d="M251.326 341.958c3.695-12.298 14.432-96.73 14.432-96.73v-47.172l14.623 3.072s11.562-3.59 11.6 0c-.006 1.352-1.457 26.435 0 45.774 2.182 28.962 25.14 95.056 25.14 95.056h-65.794z"/><path fill="#97E5C8" d="M346.124 192.355l-2.373-.395-.196 2.37c-.396 5.528-5.14 9.872-10.875 9.872-1.78 0-3.56-.395-5.14-1.382l-2.77-1.58-.592 3.16c-.79 4.345-4.803 6.804-9.096 7.504-6.068.988-8.315-3.705-8.315-3.705s-7.212 9.18-7.067 6.27c-.11-3.202-.113-8.652 0-11.472.24-5.953.754-6.79-3.115-7.88-.965-.273-3.162-1.335-4.79-1.41-2.866-.132-4.88 2.308-10.122 1.41-4.56-1.13-15.84-10.106-14.77-.46-.123.808.33 4.607 0 6.582-.592-.79 1.518 4.627-4.977 3.695-6.945-.995-10.315-10.276-10.315-10.276s-5.31 8.03-13.44 6.58c-5.84-1.04-10.875-4.935-10.875-10.86 0-1.58.396-3.357 1.187-4.738l1.384-2.765-2.77-1.185c-3.754-.592-6.325-3.752-6.325-7.504 0-1.38.397-2.764.99-3.95l1.582-2.763-3.164-.79c-6.92-1.58-11.863-7.7-11.863-14.613 0-6.318 3.755-11.65 9.49-14.02l.99-.395.394-1.185c.79-2.565 2.174-4.738 3.954-6.515l1.185-1.185-.79-1.58c-1.187-2.172-1.78-4.542-1.78-6.91 0-8.295 6.722-15.008 15.027-15.008.59 0 1.185 0 1.976.198l2.768.395v-3.16c0-10.86 8.898-19.747 19.774-19.747 5.14 0 9.885 1.975 13.642 5.332l1.58 1.383 1.978-1.185c2.77-2.37 6.526-3.753 10.283-3.753 6.524 0 12.456 4.148 14.827 10.27l.99 2.565 2.372-1.382c3.164-1.776 6.723-2.763 10.48-2.763 11.862 0 21.353 9.675 21.353 21.325 0 1.185 0 2.37-.198 3.357l-.396 2.764h3.36c8.9 0 16.213 7.306 16.213 16.19 0 2.173-.396 4.148-1.187 6.123l-.99 1.777 1.78.988c4.35 2.566 6.922 7.108 6.922 12.242 0 4.146-1.78 8.096-4.944 10.663l-1.383 1.382.99 1.58c1.185 2.17 1.976 4.54 1.976 6.91-.197 7.503-6.13 13.625-13.642 13.625h-1.186z" opacity=".3"/><path stroke="#7C8495" stroke-width="4" d="M252.585 68c6.07 0 11.676 2.333 16.113 6.298l1.867 1.633 2.336-1.4c3.27-2.798 7.708-4.43 12.145-4.43 7.706 0 14.712 4.898 17.513 12.128l1.168 3.03 2.803-1.632c3.736-2.097 7.94-3.264 12.375-3.264 14.012 0 25.222 11.428 25.222 25.188 0 1.4 0 2.8-.233 3.965l-.467 3.266H347.394c10.51 0 19.15 8.63 19.15 19.123 0 2.566-.466 4.9-1.4 7.23l-1.168 2.1 2.102 1.167c5.138 3.03 8.174 8.395 8.174 14.46 0 4.896-2.102 9.56-5.84 12.593l-1.634 1.633 1.168 1.866c1.4 2.564 2.336 5.363 2.336 8.162-.234 8.862-7.24 16.092-16.114 16.092h-1.4l-2.804-.466-.233 2.8c-.467 6.528-6.07 11.66-12.843 11.66-2.102 0-4.204-.467-6.07-1.633l-3.27-1.866-.7 3.733c-.935 5.13-5.674 8.036-10.745 8.863-7.166 1.167-9.82-4.375-9.82-4.375s-8.518 10.844-8.347 7.407c-.13-3.782-.174-10.22 0-13.55.607-11.558-9.41-11.47-11.333-11.558-3.385-.158-5.945 2.38-12.135 1.32-16.606-4.416-9.094 10.503-9.484 12.836-.7-.933-3.992.79-11.662-.31-8.203-1.177-12.183-12.138-12.183-12.138s-6.273 9.487-15.876 7.773c-6.896-1.23-12.843-5.83-12.843-12.826 0-1.866.468-3.965 1.402-5.596l1.634-3.266-3.27-1.4c-4.436-.7-7.472-4.43-7.472-8.863 0-1.632.467-3.264 1.168-4.664l1.868-3.266-3.737-.933c-4.373-.998-8.077-3.532-10.577-6.923M190 149.63c0-7.463 4.436-13.76 11.21-16.56l1.167-.467.467-1.4c.934-3.03 2.57-5.595 4.67-7.695l1.4-1.4-.932-1.865c-1.402-2.566-2.102-5.365-2.102-8.162 0-9.796 7.94-17.724 17.748-17.724.7 0 1.4 0 2.334.233l3.27.465v-3.732c0-9.59 5.872-17.876 14.204-21.448" stroke-linecap="round"/><path stroke="#7C8495" stroke-width="4" d="M264.792 211.123c4.466 25.842-8.177 103.53-13.727 128.304"/><path stroke="#7C8495" stroke-width="4" d="M297.94 223.043c0 15.015 3.686 37.45 8.846 59.588m3.885 15.577c4.366 16.414 9.28 31.594 13.772 42.137" stroke-linecap="round"/><path fill="#FFF" d="M246 144.5c0 3.59-2.91 6.5-6.5 6.5s-6.5-2.91-6.5-6.5 2.91-6.5 6.5-6.5 6.5 2.91 6.5 6.5zm33 20.5c0 2.76-2.238 5-5 5-2.76 0-5-2.24-5-5s2.24-5 5-5c2.762 0 5 2.24 5 5zm-6-52.5c0 3.037-2.463 5.5-5.5 5.5s-5.5-2.463-5.5-5.5 2.463-5.5 5.5-5.5 5.5 2.463 5.5 5.5zm56 56c0 3.037-2.463 5.5-5.5 5.5s-5.5-2.463-5.5-5.5 2.463-5.5 5.5-5.5 5.5 2.463 5.5 5.5zm-15-41c0 3.037-2.463 5.5-5.5 5.5s-5.5-2.463-5.5-5.5 2.463-5.5 5.5-5.5 5.5 2.463 5.5 5.5z"/><path stroke="#7C8495" stroke-width="4" d="M145 341h275M290.655 198.733c2.79.795 7.45 2.894 12.097 2.19M273.254 199.183c-3.147-.973-11.582-2.72-16.2 0" stroke-linecap="round"/><g transform="translate(100 -1)"><path stroke="#48D2A0" stroke-width="4" d="M69.184 190.208l15.26 4.088-19.09 10.206 15.26 4.088" opacity=".665" stroke-linecap="round" stroke-linejoin="round"/><path stroke="#48D2A0" stroke-width="3" d="M44.784 182.055l7.01-1.878-5.25 8.444 7.01-1.877" opacity=".665" stroke-linecap="round" stroke-linejoin="round"/><path stroke="#48D2A0" stroke-width="2" d="M34.898 168.575l4.156.732-4.842 3.16 4.156.733" opacity=".665" stroke-linecap="round" stroke-linejoin="round"/><circle cx="51.75" cy="49.25" r="4.75" fill="#48D2A0" opacity=".318"/><g stroke="#48D2A0" stroke-width="7" opacity=".38" stroke-linecap="round"><path d="M106.508 18.59L88.92 9.63M93.234 22.904l8.96-17.588"/></g><g stroke="#48D2A0" stroke-width="6" opacity=".36" stroke-linecap="round"><path d="M537.348 236.855l-5.678 21.192M545.105 250.29l-21.192-5.678"/></g><circle cx="41.5" cy="443.5" r="7.5" fill="#48D2A0" opacity=".253"/><circle cx="4.5" cy="411.5" r="4.5" fill="#48D2A0" opacity=".212"/><g stroke="#48D2A0" stroke-width="6" opacity=".35" stroke-linecap="round"><path d="M424.17 79.014l11.034-9.26M425.07 68.867l9.26 11.034"/></g><circle cx="355.5" cy="49.5" r="7.5" fill="#48D2A0" opacity=".15"/><circle cx="402.5" cy="30.5" r="4.5" fill="#48D2A0" opacity=".26"/><circle cx="513" cy="287" r="7" fill="#48D2A0" opacity=".158"/></g></g></svg>