<svg xmlns="http://www.w3.org/2000/svg" width="643" height="444"><title>Phone Illustration</title><g fill="none" fill-rule="evenodd"><path fill="#F8FAFF" d="M571 137v.065c15.636 1.026 28 14.033 28 29.935 0 15.898-12.373 28.908-28 29.935V197h38.998c16.57 0 30.002 13.428 30.002 30 0 16.57-13.43 30-30.002 30h-47.99C545.432 257 532 270.43 532 287c0 16.572 13.435 30 30.008 30h50.99c16.57 0 30.002 13.428 30.002 30 0 16.57-13.43 30-30.002 30H115.5h2.502C134.57 377 148 363.57 148 347c0-16.572-13.43-30-29.998-30h-88C13.432 317 0 303.572 0 287c0-16.57 13.43-30 30.002-30h54.25-28.748c-16.57 0-30.004-13.428-30.004-30 0-16.57 13.432-30 30.004-30H160.506c16.555 0 29.994-13.43 29.994-30 0-16.572-13.43-30-29.994-30H88.002C71.432 137 58 123.572 58 107c0-16.57 13.43-30 30.002-30h486.992C591.56 77 605 63.57 605 47c0-16.572-13.434-30-30.005-30H49.255C32.69 17 19.25 30.43 19.25 47c0 16.572 13.434 30 30.005 30h509.997-11.748c-16.572 0-30.004 13.43-30.004 30 0 16.572 13.433 30 30.004 30H571zM45 407c0-16.57 13.424-30 29.994-30h458.012C549.57 377 563 390.428 563 407c0 16.57-13.424 30-29.994 30H74.994C58.43 437 45 423.572 45 407z" opacity=".835"/><g stroke="#8ADAF8" stroke-width="5" stroke-linecap="round"><path d="M281 124l-13.176-10.823m-7.486-6.15L253 101" opacity=".643"/><path d="M296 94l3 11" opacity=".561"/><path d="M333 83l-3 33" opacity=".847"/><path d="M372 104l-13 16" opacity=".682"/></g><g transform="matrix(-1 0 0 1 543 155)"><path stroke="#6E7585" stroke-width="7.2" d="M173.627 70.497s19.597-1.065 27.353-9.735c7.757-8.67 13.79-45.56 13.79-45.56" stroke-linecap="round" stroke-linejoin="round"/><path fill="#F6F9FC" d="M54.378 20.38c0-6.633 5.208-13.326 11.672-14.78 0 0 18.405-5.6 48.48-5.6 30.078 0 48.482 5.6 48.482 5.6 6.446 1.53 11.672 8.14 11.672 14.78v187.35c0 6.63-5.285 13.01-11.81 14.107 0 0-18.266 4.178-48.343 4.178-30.075 0-48.342-4.178-48.342-4.178-6.523-1.16-11.81-7.47-11.81-14.108V20.38z"/><path stroke="#7C8495" stroke-width="4.8" d="M143.36 1.807c12.565 1.637 19.67 3.735 19.67 3.735 6.437 1.563 11.654 8.2 11.654 14.837v187.35c0 6.63-5.285 13.01-11.81 14.107 0 0-18.266 4.178-48.343 4.178-30.075 0-48.342-4.178-48.342-4.178-6.523-1.16-11.81-7.478-11.81-14.098v-40.807m0-16.544v-12.874m0-10.9V20.374c0-6.628 5.208-13.32 11.672-14.772 0 0 18.405-5.6 48.48-5.6 4.764 0 9.234.14 13.384.377" stroke-linecap="round" stroke-linejoin="round"/><path fill="#FFF" stroke="#7C8495" stroke-width="4.8" d="M128.094 191.086H70.482c-2.647 0-4.793-2.15-4.793-4.802V29.458c0-2.652 2.153-4.802 4.793-4.802h88.096c2.647 0 4.793 2.15 4.793 4.802v156.826c0 2.652-2.147 4.802-4.81 4.802h-13.137" stroke-linecap="round" stroke-linejoin="round"/><path fill="#15B4F1" stroke="#15B4F1" stroke-width="3.6" d="M129.738 123.01l-6.585 18.736-6.585-18.737c-.014-.05-.036-.1-.064-.172-.043-.085-.057-.12-.085-.19-.115-.214-.257-.406-.428-.576-.184-.185-.39-.334-.618-.447-.085-.064-.12-.07-.192-.086-.056-.03-.1-.05-.127-.065-.157-.056-.214-.07-.256-.085-.157-.035-.207-.042-.236-.042-.163-.014-.213-.022-.255-.022h-.236c-.177.015-.56.093-.618.107-.12.042-.163.057-.234.085-.093.043-.114.057-.17.085-.242.128-.455.284-.64.47-.17.17-.313.368-.426.595-.03.057-.135.29-.15.32l-6.585 18.758-6.584-18.737c-.242-.654-.675-1.137-1.3-1.45-.625-.297-1.265-.333-1.918-.106-.654.242-1.13.674-1.428 1.3-.298.624-.334 1.262-.107 1.915l8.95 25.487c.05.12.094.227.15.34.1.164.164.256.235.34.092.13.163.207.234.278.128.114.213.184.3.255.148.1.233.15.318.192.142.064.235.1.32.128.107.05.206.07.32.085.234.05.37.064.51.064.13 0 .257-.015.385-.044.22-.035.32-.056.405-.085.113-.05.2-.084.298-.127.128-.063.213-.113.298-.17.164-.114.25-.184.32-.255l.256-.256c.1-.15.156-.24.213-.34.1-.178.15-.285.192-.384 0-.014 6.585-18.76 6.585-18.76l6.585 18.74c.043.12.093.226.15.34.1.163.156.255.213.34.1.128.163.206.234.277.135.114.22.184.32.255.128.1.213.15.298.192.15.064.235.1.32.128.114.05.206.07.32.085.248.05.383.064.51.064.13 0 .264-.015.406-.044.22-.035.32-.056.405-.085.106-.05.2-.084.298-.127.13-.063.214-.113.3-.17.15-.114.234-.184.32-.255.113-.114.177-.185.234-.256.113-.15.177-.24.234-.34.1-.178.142-.285.17-.384l8.973-25.51c.228-.652.193-1.29-.106-1.915-.298-.625-.774-1.057-1.428-1.3-.667-.226-1.314-.19-1.94.108-.624.313-1.05.796-1.278 1.45z" opacity=".5"/><path stroke="#7C8495" stroke-width="4.8" d="M93.452 58.52s.95-4.245 4.472-4.542c3.523-.297 4.905 4.113 4.905 4.113M125.328 58.52s.95-4.245 4.472-4.542c3.523-.297 4.905 4.113 4.905 4.113" stroke-linecap="round" stroke-linejoin="round"/><path fill="#E1EBF7" d="M99.62 13.715c0-1.333 1.08-2.55 2.39-2.7 0 0 5.066-.742 12.52-.742 7.456 0 12.52.742 12.52.742 1.32.158 2.39 1.365 2.39 2.7v-.72c0 1.334-1.078 2.28-2.39 2.13 0 0-5.064-.742-12.52-.742-7.454 0-12.52.74-12.52.74-1.32.16-2.39-.793-2.39-2.127v.72z"/><path stroke="#6E7585" stroke-width="7.2" d="M53.186 72.713s-18.23.563-27.608 15.572c-9.38 15.01-14.946 46.45-14.946 46.45" stroke-linecap="round" stroke-linejoin="round"/><ellipse cx="115.045" cy="208.551" fill="#E1EBF7" rx="9.254" ry="9.246"/><path fill="#7C8495" d="M103.548 81.828c-2.077 2.334 1.153 5.61 6.17 6.527 5.017.917 9.99-2.504 9.424-4.886-.566-2.382-13.518-3.977-15.594-1.642z"/></g><g transform="translate(97 155)"><path stroke="#6E7585" stroke-width="7.2" d="M173.627 70.497s19.597-1.065 27.353-9.735c7.757-8.67 13.79-45.56 13.79-45.56" stroke-linecap="round" stroke-linejoin="round"/><path fill="#F6F9FC" d="M54.378 20.38c0-6.633 5.208-13.326 11.672-14.78 0 0 18.405-5.6 48.48-5.6 30.078 0 48.482 5.6 48.482 5.6 6.446 1.53 11.672 8.14 11.672 14.78v187.35c0 6.63-5.285 13.01-11.81 14.107 0 0-18.266 4.178-48.343 4.178-30.075 0-48.342-4.178-48.342-4.178-6.523-1.16-11.81-7.47-11.81-14.108V20.38z"/><path stroke="#7C8495" stroke-width="4.8" d="M174.684 157.966v49.77c0 6.628-5.285 13.003-11.81 14.1 0 0-18.266 4.18-48.343 4.18-3.45 0-6.746-.056-9.876-.153m-12.8-.672c-16.324-1.216-25.688-3.32-25.688-3.32-6.51-1.178-11.788-7.503-11.788-14.13v-62.233V173.9m0-25.47v-13.283m0-14.88V20.373c0-6.628 5.208-13.318 11.672-14.77C66.05 5.6 84.455 0 114.53 0c30.078 0 48.482 5.6 48.482 5.6 6.446 1.53 11.672 8.146 11.672 14.776v121.94" stroke-linecap="round" stroke-linejoin="round"/><path fill="#FFF" stroke="#7C8495" stroke-width="4.8" d="M96.2 24.656h62.37c2.653 0 4.803 2.15 4.803 4.802v156.826c0 2.652-2.154 4.802-4.794 4.802H70.482c-2.648 0-4.794-2.15-4.794-4.802V29.458c0-2.652 2.146-4.802 4.79-4.802h12.577" stroke-linecap="round" stroke-linejoin="round"/><path fill="#15B4F1" stroke="#15B4F1" stroke-width="3.6" d="M129.738 123.01l-6.585 18.736-6.585-18.737c-.014-.05-.036-.1-.064-.172-.043-.085-.057-.12-.085-.19-.115-.214-.257-.406-.428-.576-.184-.185-.39-.334-.618-.447-.085-.064-.12-.07-.192-.086-.056-.03-.1-.05-.127-.065-.157-.056-.214-.07-.256-.085-.157-.035-.207-.042-.236-.042-.163-.014-.213-.022-.255-.022h-.236c-.177.015-.56.093-.618.107-.12.042-.163.057-.234.085-.093.043-.114.057-.17.085-.242.128-.455.284-.64.47-.17.17-.313.368-.426.595-.03.057-.135.29-.15.32l-6.585 18.758-6.584-18.737c-.242-.654-.675-1.137-1.3-1.45-.625-.297-1.265-.333-1.918-.106-.654.242-1.13.674-1.428 1.3-.298.624-.334 1.262-.107 1.915l8.95 25.487c.05.12.094.227.15.34.1.164.164.256.235.34.092.13.163.207.234.278.128.114.213.184.3.255.148.1.233.15.318.192.142.064.235.1.32.128.107.05.206.07.32.085.234.05.37.064.51.064.13 0 .257-.015.385-.044.22-.035.32-.056.405-.085.113-.05.2-.084.298-.127.128-.063.213-.113.298-.17.164-.114.25-.184.32-.255l.256-.256c.1-.15.156-.24.213-.34.1-.178.15-.285.192-.384 0-.014 6.585-18.76 6.585-18.76l6.585 18.74c.043.12.093.226.15.34.1.163.156.255.213.34.1.128.163.206.234.277.135.114.22.184.32.255.128.1.213.15.298.192.15.064.235.1.32.128.114.05.206.07.32.085.248.05.383.064.51.064.13 0 .264-.015.406-.044.22-.035.32-.056.405-.085.106-.05.2-.084.298-.127.13-.063.214-.113.3-.17.15-.114.234-.184.32-.255.113-.114.177-.185.234-.256.113-.15.177-.24.234-.34.1-.178.142-.285.17-.384l8.973-25.51c.228-.652.193-1.29-.106-1.915-.298-.625-.774-1.057-1.428-1.3-.667-.226-1.314-.19-1.94.108-.624.313-1.05.796-1.278 1.45z" opacity=".5"/><path stroke="#7C8495" stroke-width="4.8" d="M93.452 58.52s.95-4.245 4.472-4.542c3.523-.297 4.905 4.113 4.905 4.113M125.328 58.52s.95-4.245 4.472-4.542c3.523-.297 4.905 4.113 4.905 4.113" stroke-linecap="round" stroke-linejoin="round"/><path fill="#E1EBF7" d="M99.62 13.715c0-1.333 1.08-2.55 2.39-2.7 0 0 5.066-.742 12.52-.742 7.456 0 12.52.742 12.52.742 1.32.158 2.39 1.365 2.39 2.7v-.72c0 1.334-1.078 2.28-2.39 2.13 0 0-5.064-.742-12.52-.742-7.454 0-12.52.74-12.52.74-1.32.16-2.39-.793-2.39-2.127v.72z"/><path stroke="#6E7585" stroke-width="7.2" d="M53.186 72.713s-18.23.563-27.608 15.572c-9.38 15.01-14.946 46.45-14.946 46.45" stroke-linecap="round" stroke-linejoin="round"/><ellipse cx="115.045" cy="208.551" fill="#E1EBF7" rx="9.254" ry="9.246"/><path fill="#7C8495" d="M106.642 81.576c-2.156 2.26.957 5.647 5.94 6.74 4.98 1.09 10.07-2.155 9.588-4.555-.482-2.4-13.37-4.444-15.528-2.184z"/></g><g transform="translate(72 -1)"><circle cx="221" cy="84" r="3" fill="#8ADAF8" opacity=".509"/><circle cx="281" cy="128" r="3" fill="#8ADAF8" opacity=".615"/><circle cx="40" cy="83" r="7" fill="#48D2A0" opacity=".451"/><circle cx="61.5" cy="46.5" r="4.5" fill="#48D2A0" opacity=".494"/><g stroke="#48D2A0" stroke-width="7" opacity=".424" stroke-linecap="round"><path d="M144.924 18.606l-17.587-8.962M131.65 22.918l8.96-17.587"/></g><g stroke="#48D2A0" stroke-width="6" opacity=".409" stroke-linecap="round"><path d="M517.208 301.393l5.68 21.193M530.644 309.15l-21.193 5.68"/></g><circle cx="41.5" cy="437.5" r="7.5" fill="#48D2A0" opacity=".253"/><path fill="#48D2A0" d="M4.5 410c2.485 0 4.5-2.015 4.5-4.5S6.985 401 4.5 401 0 403.015 0 405.5s2.015 4.5 4.5 4.5z" opacity=".212"/><circle cx="391.5" cy="45.5" r="7.5" fill="#48D2A0" opacity=".15"/><circle cx="421.5" cy="76.5" r="4.5" fill="#48D2A0" opacity=".304"/><circle cx="542" cy="258" r="7" fill="#48D2A0" opacity=".158"/><g stroke="#48D2A0" stroke-width="6" opacity=".452" stroke-linecap="round"><path d="M484.17 63.014l11.034-9.26M485.07 52.867l9.26 11.034"/></g></g></g></svg>