<svg xmlns="http://www.w3.org/2000/svg" width="302" height="97"><title>Group</title><defs><linearGradient id="a" x1="0%" x2="101.128%" y1="100%" y2="17.729%"><stop stop-color="#FFF" offset="0%"/><stop stop-color="#FFF" offset="100%"/></linearGradient><linearGradient id="b" x1="0%" x2="101.128%" y1="100%" y2="17.729%"><stop stop-color="#FFF" offset="0%"/><stop stop-color="#FFF" offset="95.754%"/><stop stop-color="#FFF" offset="100%"/></linearGradient></defs><g fill="none" fill-rule="evenodd"><g fill="#FFF"><path d="M228.74 64.418c-6.742.123-8.74-3.992-8.67-10.12.013-.983.02-10.637 0-11.094-.005-.98.013-1.965 0-2.95-.07-6.13 1.928-10.24 8.67-10.118 5.146.092 7.412 2.697 8.02 6.854.032 2.53.032 18.044 0 20.57-.608 4.16-2.874 6.765-8.02 6.858m20.88-22.554c-.075-3.185-.276-6.564-.715-9.022-.225-1-.515-1.99-.877-2.937-.04-.09-.076-.176-.11-.266-.382-.958-.83-1.873-1.376-2.683-4.77-7.075-17.332-9.725-27.436-6.328-4.524 1.52-7.597 4.02-9.486 7.706-1.64 3.208-2.114 7.206-2.252 9.524 0 .126.012.25.012.377-.02.517-.073.993-.073 1.537-.01 1.872.006 3.747.017 5.622h-.02c0 .628.01 1.253.017 1.88-.007.626-.016 1.254-.016 1.882h.02c-.01 1.872-.026 3.747-.017 5.622 0 .54.052 1.02.073 1.537 0 .125-.012.25-.012.377.138 2.317.61 6.312 2.252 9.524 1.89 3.684 4.962 6.184 9.486 7.707 10.104 3.397 22.667.747 27.436-6.328.547-.81.994-1.73 1.377-2.686.032-.085.067-.175.108-.265.362-.945.652-1.935.877-2.936.44-2.457.64-5.836.716-9.02.004-1.804-.025-3.61-.045-5.413.02-1.806.05-3.61.046-5.413M146.055 58.77c-.863 3.443-3.15 5.563-7.77 5.646-6.74.126-8.738-3.99-8.668-10.116.01-.984.015-10.637-.003-11.095-.003-.983.012-1.967.003-2.95-.07-6.13 1.927-10.243 8.668-10.12 5.144.095 7.413 2.697 8.02 6.856 0 .12.004.297.004.474h12.655c-.116-1.69-.277-3.293-.517-4.62-.225-1.002-.515-1.992-.874-2.937-.044-.09-.077-.18-.112-.266-.383-.956-.827-1.87-1.374-2.685-4.772-7.072-17.332-9.72-27.436-6.324-4.524 1.523-7.597 4.02-9.49 7.704-1.637 3.212-2.11 7.207-2.25 9.525.002.124.01.25.014.375-.02.518-.073.996-.076 1.537-.006 1.875.006 3.75.02 5.625h-.02c0 .625.008 1.253.014 1.878-.006.628-.014 1.256-.014 1.88h.02c-.014 1.876-.026 3.75-.02 5.626.003.543.055 1.018.076 1.535-.003.126-.012.252-.015.377.14 2.32.615 6.316 2.253 9.525 1.892 3.687 4.965 6.184 9.49 7.706 10.103 3.397 22.663.748 27.435-6.328.547-.81.99-1.725 1.374-2.682.035-.09.068-.177.112-.266.36-.948.65-1.938.874-2.937.158-.873.275-1.884.374-2.94h-12.767zM288.803 57.295c-.608 4.16-2.878 6.762-8.022 6.857-6.74.123-8.736-3.992-8.666-10.12.01-.983.014-10.636-.003-11.094-.002-.984.013-1.967.004-2.95-.07-6.13 1.927-10.243 8.667-10.12 5.145.095 7.415 2.697 8.023 6.856.032 2.53.032 18.04 0 20.57M301.66 41.6c-.075-3.186-.274-6.565-.715-9.023-.226-1-.515-1.992-.875-2.937-.044-.09-.076-.177-.11-.266-.384-.957-.796-1.896-1.375-2.683-7.15-9.71-27.863-9.024-34.712-3.617-2.064 1.63-5.182 4.824-5.25 7.416-.46 17.392-.36 40.786-.177 58.19.067 6.555 3.31 8.645 11.91 7.942l.044-23.283c.26.098.477.226.75.316 10.102 3.397 22.665.748 27.435-6.328.546-.81.99-1.725 1.374-2.682.034-.087.066-.177.11-.266.36-.945.65-1.938.875-2.937.44-2.458.64-5.837.716-9.022.004-1.8-.022-3.605-.043-5.41.02-1.805.047-3.608.044-5.41M200.514 20.582c-1.123-.177-2.193-.264-3.214-.264-7.442 0-13.133 3.84-17.104 11.47-.094.047-.173.062-.243.062-.246 0-.222-1.484-.222-1.735 0-3.265.25-8.038.37-9.17 0-.375-1.475-.627-2.58-.627-4.42 0-8.95 1.78-10.67 3.535-.37.38 0 3.39 0 7.916V61.8c0 1.252-.012 3.022 0 4.096.075 7.138 3.824 9.34 13.413 8.456 0-3.196.015-26.907 0-27.885l-.003-.407.184-1.453c4.284-7.716 9.607-11.57 15.967-11.57 1.33 0 2.858.296 4.592.885l-.488-13.34z"/></g><path fill="url(#a)" d="M80.053 76.112h11.484V64.468H80.053"/><path fill="url(#b)" d="M16.67 11.656h11.483V.01H16.67"/><path fill="#FFF" d="M70.36 18.594H0v8.87h61.57L28.153 61.175V35.53H16.67V76.11h39.35V64.47H32.64l31.154-31.43v60.54h8.747V24.215L87.387 9.24l-3.858-3.93"/></g></svg>