<?xml version="1.0" encoding="UTF-8"?>
<svg width="302px" height="97px" viewBox="0 0 302 97" version="1.1" xmlns="http://www.w3.org/2000/svg" xmlns:xlink="http://www.w3.org/1999/xlink">
    <!-- Generator: Sketch 44.1 (41455) - http://www.bohemiancoding.com/sketch -->
    <title>Group</title>
    <desc>Created with Sketch.</desc>
    <defs>
        <linearGradient x1="0%" y1="100%" x2="101.127617%" y2="17.7287538%" id="linearGradient-1">
            <stop stop-color="#377FEA" offset="0%"></stop>
            <stop stop-color="#377FEA" offset="100%"></stop>
        </linearGradient>
        <linearGradient x1="0%" y1="100%" x2="101.127617%" y2="17.7287538%" id="linearGradient-2">
            <stop stop-color="#377FEA" offset="0%"></stop>
            <stop stop-color="#377FEA" offset="95.7542659%"></stop>
            <stop stop-color="#377FEA" offset="100%"></stop>
        </linearGradient>
    </defs>
    <g id="Page-1" stroke="none" stroke-width="1" fill="none" fill-rule="evenodd">
        <g id="052_logo" transform="translate(-246.000000, -252.000000)">
            <g id="Group" transform="translate(246.000000, 252.000000)">
                <g id="Crop" transform="translate(116.000000, 19.000000)" fill="#377FEA">
                    <path d="M112.73895,45.4179459 C105.99843,45.5405532 104.001131,41.4257312 104.071314,35.2983546 C104.083012,34.3145054 104.08886,24.6614201 104.071314,24.2038854 C104.065466,23.2230266 104.083012,22.2391775 104.071314,21.2553283 C104.001131,15.1249613 105.99843,11.0131297 112.73895,11.135737 C117.885724,11.2284401 120.152059,13.8330985 120.760314,17.9897865 C120.792482,20.5196843 120.792482,36.0339986 120.760314,38.560906 C120.152059,42.7205843 117.885724,45.3252427 112.73895,45.4179459 M133.621401,22.8641759 C133.545369,19.6793754 133.343593,16.3001975 132.904947,13.8420698 C132.679776,12.8432685 132.39027,11.8534385 132.027656,10.9054745 C131.986716,10.8157618 131.951624,10.7290395 131.919457,10.6393268 C131.536373,9.68239147 131.088955,8.76732204 130.54211,7.95691742 C125.772571,0.881576689 113.209763,-1.76793806 103.106294,1.62918243 C98.5823966,3.15130772 95.5089536,5.65130131 93.6198535,9.3355024 C91.9793192,12.5442262 91.5055821,16.5424217 91.3681398,18.8599995 C91.3681398,18.9855973 91.379837,19.1111951 91.379837,19.2367928 C91.3593669,19.754136 91.3067294,20.2296133 91.3067294,20.7738702 C91.2979565,22.645875 91.312578,24.5208702 91.3242752,26.3958654 L91.3038051,26.3958654 C91.3038051,27.0238542 91.312578,27.6488526 91.3213509,28.2768414 C91.312578,28.9018398 91.3038051,29.5298287 91.3038051,30.1578175 L91.3242752,30.1578175 C91.312578,32.0298223 91.2979565,33.9048175 91.3067294,35.7798127 C91.3067294,36.3210792 91.3593669,36.7995469 91.379837,37.3168901 C91.379837,37.4424878 91.3681398,37.5680856 91.3681398,37.6936833 C91.5055821,40.0112611 91.9793192,44.0064662 93.6198535,47.2181805 C95.5089536,50.9023816 98.5823966,53.4023752 103.106294,54.9245005 C113.209763,58.3216209 125.772571,55.6721062 130.54211,48.5967655 C131.088955,47.7863608 131.536373,46.868301 131.919457,45.9113656 C131.951624,45.8246434 131.986716,45.7349307 132.027656,45.645218 C132.39027,44.7002443 132.679776,43.7104143 132.904947,42.7086227 C133.343593,40.2534854 133.545369,36.8743075 133.621401,33.689507 C133.624326,31.886282 133.595083,30.0800665 133.574613,28.2768414 C133.595083,26.470626 133.624326,24.6674009 133.621401,22.8641759" id="Fill-3"></path>
                    <path d="M30.054698,39.7705321 C29.1920284,43.2125089 26.9052231,45.3327188 22.2848235,45.4164506 C15.5443039,45.5420484 13.5470046,41.4272264 13.6171879,35.2998498 C13.6259608,34.3160006 13.6318094,24.6629153 13.6142636,24.2053806 C13.6113393,23.2215314 13.6259608,22.2376823 13.6171879,21.2538331 C13.5470046,15.1264565 15.5443039,11.0116345 22.2848235,11.1342418 C27.4286734,11.2299353 29.6979329,13.8316033 30.3061881,17.9912817 C30.3061881,18.1108986 30.3091124,18.2873335 30.3091124,18.4637685 L42.965498,18.4637685 C42.8485259,16.7741795 42.6876892,15.1713128 42.4478963,13.843565 C42.2227249,12.8417733 41.9332189,11.8519433 41.5735295,10.9069697 C41.529665,10.817257 41.4974976,10.7275443 41.462406,10.640822 C41.0793222,9.68388668 40.6348281,8.76881725 40.0879833,7.95542221 C35.31552,0.883071901 22.7556364,-1.76644284 12.6521677,1.63067764 C8.12827018,3.15280293 5.05482718,5.6498061 3.1628028,9.33400719 C1.52519283,12.5457215 1.05145566,16.5409265 0.911089089,18.8585043 C0.914013393,18.9841021 0.922786303,19.1096999 0.925710607,19.2352976 C0.905240482,19.7526408 0.852603019,20.2311085 0.849678715,20.772375 C0.843830108,22.6473702 0.855527322,24.5223654 0.87014884,26.3973606 L0.849678715,26.3973606 C0.849678715,27.022359 0.858451626,27.6503478 0.864300233,28.2753462 C0.858451626,28.9033351 0.849678715,29.5313239 0.849678715,30.1563223 L0.87014884,30.1563223 C0.855527322,32.0313175 0.843830108,33.9063127 0.849678715,35.7813079 C0.852603019,36.3225744 0.905240482,36.7980517 0.925710607,37.3153948 C0.922786303,37.4409926 0.914013393,37.5665904 0.911089089,37.6921881 C1.05145566,40.0127564 1.52519283,44.0079614 3.1628028,47.2166853 C5.05482718,50.9038768 8.12827018,53.40088 12.6521677,54.9230052 C22.7556364,58.3201257 35.31552,55.670611 40.0879833,48.5952703 C40.6348281,47.7848656 41.0793222,46.8697962 41.462406,45.9128609 C41.4974976,45.8231482 41.529665,45.7364259 41.5735295,45.6467132 C41.9332189,44.6987491 42.2227249,43.7089191 42.4478963,42.7101179 C42.6058087,41.8369144 42.7227808,40.8261514 42.8222071,39.7705321 L30.054698,39.7705321 Z" id="Fill-9"></path>
                    <path d="M172.802794,38.2953564 C172.194539,42.4550348 169.925279,45.0567028 164.781429,45.1523963 C158.04091,45.2750036 156.04361,41.1601816 156.113794,35.032805 C156.122567,34.0489558 156.128415,24.3958705 156.110869,23.9383358 C156.107945,22.9544867 156.122567,21.9706375 156.113794,20.9867883 C156.04361,14.8594117 158.04091,10.7445897 164.781429,10.867197 C169.925279,10.9628906 172.194539,13.5645586 172.802794,17.7242369 C172.834961,20.2541347 172.834961,35.7654586 172.802794,38.2953564 M185.660956,22.5986263 C185.584925,19.4138259 185.386072,16.0346479 184.944502,13.5765202 C184.719331,12.577719 184.429825,11.5848986 184.070135,10.6399249 C184.026271,10.5502122 183.994103,10.4634899 183.959012,10.3737773 C183.575928,9.41684191 183.163601,8.4778491 182.584589,7.69136786 C175.434667,-2.0185355 154.721825,-1.33372864 147.873106,4.07295607 C145.808548,5.70273659 142.691241,8.89650831 142.623982,11.489205 C142.161942,28.881505 142.264292,52.2755838 142.445599,69.6798454 C142.512858,76.2348526 145.755911,78.3251582 154.356287,77.6224088 L154.400152,54.3389756 C154.660415,54.4376596 154.876813,54.5662478 155.148774,54.6559605 C165.252242,58.053081 177.81505,55.4035662 182.584589,48.3282255 C183.131434,47.5178209 183.575928,46.6027514 183.959012,45.6458161 C183.994103,45.5590938 184.026271,45.4693811 184.070135,45.3796684 C184.429825,44.4346948 184.719331,43.4418744 184.944502,42.4430731 C185.386072,39.9849454 185.584925,36.6057675 185.660956,33.420967 C185.663881,31.6207324 185.637562,29.8145169 185.617092,28.0112919 C185.637562,26.2050764 185.663881,24.4018514 185.660956,22.5986263" id="Fill-15"></path>
                    <path d="M84.5138648,1.5816347 C83.3909322,1.40519975 82.3206371,1.31847748 81.3000552,1.31847748 C73.8577028,1.31847748 68.1670081,5.15818057 64.1958039,12.7867495 C64.1022262,12.8345963 64.02327,12.8495484 63.9530867,12.8495484 C63.7074452,12.8495484 63.7308397,11.3662986 63.7308397,11.1151031 C63.7308397,7.84956123 63.9794055,3.07684619 64.0993019,1.94646631 C64.0993019,1.56967301 62.6254529,1.31847748 61.5200662,1.31847748 C57.0985193,1.31847748 52.5687731,3.09777915 50.8492827,4.85315742 C50.4808204,5.23294114 50.8492827,8.24429706 50.8492827,12.768807 L50.8492827,42.7986344 C50.8492827,44.0516216 50.8375854,45.821952 50.8492827,46.8955138 C50.9253145,54.0336535 54.6742717,56.2346048 64.2630629,55.35243 C64.2630629,52.1556678 64.2776844,28.4446042 64.2630629,27.4667359 C64.2630629,27.3351573 64.2601386,27.1946074 64.2601386,27.0600383 L64.4443697,25.6066928 C68.7284744,17.8914015 74.0507068,14.0367463 80.4110669,14.0367463 C81.7387007,14.0367463 83.2681115,14.3327982 85.0022235,14.9219115 L84.5138648,1.5816347 Z" id="Fill-20"></path>
                </g>
                <g id="Crop_icon">
                    <polygon id="Fill-2" fill="url(#linearGradient-1)" points="80.052651 76.1120037 91.5365409 76.1120037 91.5365409 64.4684121 80.052651 64.4684121"></polygon>
                    <polygon id="Fill-3" fill="url(#linearGradient-2)" points="16.6687518 11.6559719 28.1526417 11.6559719 28.1526417 0.0112716715 16.6687518 0.0112716715"></polygon>
                    <polygon id="Fill-1" fill="#377FEA" points="70.3607204 18.5940137 -0.00010933914 18.5940137 -0.00010933914 27.4627877 61.5698535 27.4627877 28.1525323 61.1763232 28.1525323 35.5289376 16.6686425 35.5289376 16.6686425 64.467747 16.6686425 75.4273344 16.6686425 76.1113386 56.0187054 76.1113386 56.0187054 64.467747 32.640904 64.467747 63.7938116 33.0390293 63.7938116 93.5783888 72.5409428 93.5783888 72.5409428 24.2145992 87.3859178 9.2396744 83.5284329 5.30969895"></polygon>
                </g>
            </g>
        </g>
    </g>
</svg>