<svg xmlns="http://www.w3.org/2000/svg" width="546" height="525" xmlns:xlink="http://www.w3.org/1999/xlink"><title>Group 2</title><defs><rect id="b" width="293" height="445" rx="12"/><filter id="a" width="150.5%" height="133.3%" x="-25.3%" y="-13.9%" filterUnits="objectBoundingBox"><feOffset dy="10" in="SourceAlpha" result="shadowOffsetOuter1"/><feGaussianBlur stdDeviation="20" in="shadowOffsetOuter1" result="shadowBlurOuter1"/><feColorMatrix values="0 0 0 0 0.243137255 0 0 0 0 0.223529412 0 0 0 0 0.419607843 0 0 0 0.15 0" in="shadowBlurOuter1" result="shadowMatrixOuter1"/><feOffset dy="2" in="SourceAlpha" result="shadowOffsetOuter2"/><feGaussianBlur stdDeviation="4.5" in="shadowOffsetOuter2" result="shadowBlurOuter2"/><feColorMatrix values="0 0 0 0 0.243137255 0 0 0 0 0.223529412 0 0 0 0 0.419607843 0 0 0 0.06 0" in="shadowBlurOuter2" result="shadowMatrixOuter2"/><feMerge><feMergeNode in="shadowMatrixOuter1"/><feMergeNode in="shadowMatrixOuter2"/></feMerge></filter><linearGradient id="c" x1="0%" y1="50%" y2="50%"><stop stop-color="#FF5480" offset="0%"/><stop stop-color="#FFB4A7" offset="100%"/></linearGradient><linearGradient id="d" x1="100%" x2="0%" y1="50%" y2="50%"><stop stop-color="#20D2DC" offset="0%"/><stop stop-color="#70AFF9" offset="100%"/></linearGradient><linearGradient id="e" x1="-73.708%" x2="130.011%" y1="119.516%" y2="35.181%"><stop stop-color="#A17AF1" offset="0%"/><stop stop-color="#F45D94" offset="100%"/></linearGradient><rect id="g" width="268" height="255" rx="12"/><filter id="f" width="155.2%" height="158%" x="-27.6%" y="-24.3%" filterUnits="objectBoundingBox"><feOffset dy="2" in="SourceAlpha" result="shadowOffsetOuter1"/><feGaussianBlur stdDeviation="4.5" in="shadowOffsetOuter1" result="shadowBlurOuter1"/><feColorMatrix values="0 0 0 0 0.243137255 0 0 0 0 0.223529412 0 0 0 0 0.419607843 0 0 0 0.06 0" in="shadowBlurOuter1" result="shadowMatrixOuter1"/><feOffset dy="10" in="SourceAlpha" result="shadowOffsetOuter2"/><feGaussianBlur stdDeviation="20" in="shadowOffsetOuter2" result="shadowBlurOuter2"/><feColorMatrix values="0 0 0 0 0.0392156863 0 0 0 0 0.156862745 0 0 0 0 0 0 0 0 0.07 0" in="shadowBlurOuter2" result="shadowMatrixOuter2"/><feMerge><feMergeNode in="shadowMatrixOuter1"/><feMergeNode in="shadowMatrixOuter2"/></feMerge></filter></defs><g fill="none" fill-rule="evenodd"><g transform="translate(40 30)"><use fill="#000" filter="url(#a)" xlink:href="#b"/><use fill="#FFF" xlink:href="#b"/></g><g transform="translate(70 107)"><rect width="52" height="52" fill="url(#c)" rx="4"/><rect width="166.342" height="8" x="64" fill="#E1E8EE" rx="4"/><rect width="133" height="8" x="64" y="18" fill="#E1E8EE" rx="4"/></g><g transform="translate(70 189)"><rect width="52" height="52" fill="url(#d)" rx="4"/><rect width="166.342" height="8" x="64" fill="#E1E8EE" rx="4"/><rect width="111" height="8" x="64" y="18" fill="#E1E8EE" rx="4"/></g><g transform="translate(70 273)"><rect width="52" height="52" fill="url(#e)" rx="4"/><rect width="166.342" height="8" x="64" fill="#E1E8EE" rx="4"/><rect width="83" height="8" x="64" y="18" fill="#E1E8EE" rx="4"/></g><g transform="translate(238 161)"><use fill="#000" filter="url(#f)" xlink:href="#g"/><use fill="#FFF" xlink:href="#g"/><rect width="142.5" height="8" x="92.5" y="40" fill="#E1E8EE" rx="4"/><rect width="85.09" height="8" x="92.5" y="58" fill="#E1E8EE" rx="4"/><rect width="199" height="8" x="36" y="98" fill="#E1E8EE" rx="4"/><rect width="199" height="8" x="36" y="116" fill="#E1E8EE" rx="4"/><rect width="175" height="8" x="36" y="134" fill="#E1E8EE" rx="4"/><rect width="55" height="4" x="65" y="189" fill="#E1E8EE" opacity=".57" rx="2"/><rect width="41" height="3" x="65" y="198" fill="#E1E8EE" opacity=".57" rx="1.5"/><rect width="41" height="41" x="36" y="40" fill="url(#d)" rx="6"/><path fill="#E1E8EE" d="M40.432 204.687c1.827.245 4.587.357 6.568.357 1.98 0 4.74-.112 6.567-.357-.147-2.05-1.093-3.14-3.08-3.607h-.002c-1.268-.298-2.097-1.244-2.335-2.666l-.072-.427.35-.257c.837-.618 1.404-1.72 1.515-2.95.12-1.325-.272-2.626-1.05-3.478-.37-.406-1-.89-1.893-.89s-1.522.484-1.893.89c-.778.852-1.172 2.153-1.05 3.48.11 1.227.678 2.33 1.516 2.948l.35.257-.073.427c-.238 1.422-1.067 2.368-2.336 2.666-1.988.466-2.934 1.558-3.082 3.607m6.568 1.77c-2.274 0-5.564-.148-7.416-.472l-.584-.102v-.594c0-3.097 1.37-4.923 4.192-5.585.395-.092.923-.314 1.177-1.14-.967-.88-1.586-2.187-1.72-3.656-.155-1.716.373-3.42 1.415-4.56.794-.87 1.837-1.35 2.935-1.35 1.097 0 2.14.48 2.935 1.35 1.042 1.14 1.57 2.844 1.414 4.56-.134 1.468-.753 2.775-1.72 3.655.254.825.782 1.048 1.178 1.14 2.82.662 4.192 2.488 4.192 5.584v.593l-.584.102c-1.853.324-5.143.47-7.416.47"/></g></g></svg>