<?xml version="1.0" encoding="UTF-8"?>
<svg width="785px" height="803px" viewBox="0 0 785 803" version="1.1" xmlns="http://www.w3.org/2000/svg" xmlns:xlink="http://www.w3.org/1999/xlink">
    <!-- Generator: Sketch 46.1 (44463) - http://www.bohemiancoding.com/sketch -->
    <title>Group</title>
    <desc>Created with Sketch.</desc>
    <defs>
        <filter x="-27.3%" y="-23.1%" width="154.5%" height="152.9%" filterUnits="objectBoundingBox" id="filter-1">
            <feOffset dx="0" dy="20" in="SourceAlpha" result="shadowOffsetOuter1"></feOffset>
            <feGaussianBlur stdDeviation="50" in="shadowOffsetOuter1" result="shadowBlurOuter1"></feGaussianBlur>
            <feColorMatrix values="0 0 0 0 0   0 0 0 0 0   0 0 0 0 0  0 0 0 0.06 0" type="matrix" in="shadowBlurOuter1" result="shadowMatrixOuter1"></feColorMatrix>
            <feMerge>
                <feMergeNode in="shadowMatrixOuter1"></feMergeNode>
                <feMergeNode in="SourceGraphic"></feMergeNode>
            </feMerge>
        </filter>
        <filter x="-102.7%" y="-80.0%" width="305.4%" height="317.1%" filterUnits="objectBoundingBox" id="filter-2">
            <feOffset dx="0" dy="10" in="SourceAlpha" result="shadowOffsetOuter1"></feOffset>
            <feGaussianBlur stdDeviation="11" in="shadowOffsetOuter1" result="shadowBlurOuter1"></feGaussianBlur>
            <feColorMatrix values="0 0 0 0 1   0 0 0 0 0.105882353   0 0 0 0 0.262745098  0 0 0 0.231884058 0" type="matrix" in="shadowBlurOuter1" result="shadowMatrixOuter1"></feColorMatrix>
            <feMerge>
                <feMergeNode in="shadowMatrixOuter1"></feMergeNode>
                <feMergeNode in="SourceGraphic"></feMergeNode>
            </feMerge>
        </filter>
    </defs>
    <g id="Page-1" stroke="none" stroke-width="1" fill="none" fill-rule="evenodd">
        <g id="Group-3" filter="url(#filter-1)" transform="translate(99.000000, 79.000000)">
            <g id="Group">
                <rect id="Rectangle-3" fill="#FFFFFF" x="0" y="0" width="276" height="285" rx="5"></rect>
                <rect id="Rectangle-3-Copy-2" fill="#FFFFFF" x="0" y="320" width="276" height="285" rx="10"></rect>
                <rect id="Rectangle-3-Copy" fill="#FFFFFF" x="311" y="0" width="276" height="285" rx="10"></rect>
                <rect id="Rectangle-3-Copy-3" fill="#FFFFFF" x="311" y="320" width="276" height="285" rx="10"></rect>
                <text id="Team-Members" font-family="HelveticaNeue-Medium, Helvetica Neue" font-size="27" font-weight="400" fill="#6A6A77">
                    <tspan x="21.7175" y="221">Team Members</tspan>
                </text>
                <text id="Points-of-Sale" font-family="HelveticaNeue-Medium, Helvetica Neue" font-size="27" font-weight="400" fill="#6A6A77">
                    <tspan x="332.5" y="222">Points of Sale</tspan>
                </text>
                <text id="Notes" font-family="HelveticaNeue-Medium, Helvetica Neue" font-size="27" font-weight="400" fill="#6A6A77">
                    <tspan x="332.5" y="541">Notes</tspan>
                </text>
                <text id="My-Contacts" font-family="HelveticaNeue-Medium, Helvetica Neue" font-size="27" font-weight="400" fill="#6A6A77">
                    <tspan x="20.5" y="539">My Contacts</tspan>
                </text>
                <text id="19-People" opacity="0.696388134" font-family="HelveticaNeue, Helvetica Neue" font-size="22" font-weight="normal" letter-spacing="-0.000784036529" fill="#88889C">
                    <tspan x="19.4925282" y="258">19 People</tspan>
                </text>
                <text id="12-Cities" opacity="0.696388134" font-family="HelveticaNeue, Helvetica Neue" font-size="22" font-weight="normal" letter-spacing="-0.000784036529" fill="#88889C">
                    <tspan x="332.5" y="259">12 Cities</tspan>
                </text>
                <text id="17-Open" opacity="0.696388134" font-family="HelveticaNeue, Helvetica Neue" font-size="22" font-weight="normal" letter-spacing="-0.000784036529" fill="#88889C">
                    <tspan x="332.5" y="578">17 Open</tspan>
                </text>
                <text id="10-New-Copy" opacity="0.696388134" font-family="HelveticaNeue, Helvetica Neue" font-size="22" font-weight="normal" letter-spacing="-0.000784036529" fill="#88889C">
                    <tspan x="19.5" y="576">10 New</tspan>
                </text>
                <circle id="Oval" stroke="#3773EA" stroke-width="5" opacity="0.230581975" cx="57" cy="67.5" r="32"></circle>
                <circle id="Oval-Copy" stroke="#EA8637" stroke-width="5" opacity="0.230581975" cx="368" cy="68.5" r="32"></circle>
                <circle id="Oval-Copy-2" stroke="#39EA37" stroke-width="5" opacity="0.230581975" cx="368" cy="387.5" r="32"></circle>
                <circle id="Oval-Copy-3" stroke="#9837EA" stroke-width="5" opacity="0.230581975" cx="57" cy="387.5" r="32"></circle>
                <g id="rugby-two-color-badge" transform="translate(45.500000, 52.000000)" fill-rule="nonzero" fill="#3773EA">
                    <g id="Capa_1">
                        <path d="M3.77648911,27.4420441 C3.77648911,27.4420441 4.08997752,27.5283038 4.47680052,27.6348432 C4.86352665,27.7412873 5.6526727,27.879341 6.23101813,27.9901647 C7.78731953,28.2884558 9.3833398,28.9111254 11.3393486,30.7032523 C11.7702499,31.0977049 12.4273549,31.0991331 12.8593218,30.7056325 C14.8311213,28.9116015 16.4309197,28.2883606 17.9884805,27.9901647 C18.5674071,27.879341 19.3558751,27.7412873 19.7430856,27.635224 L20.443397,27.4425201 C22.2332647,26.7901452 24.1714485,25.95354 24.217658,23.4786664 L24.217658,3.25866136 C24.217658,2.67959768 23.8464319,2.5089824 23.3397742,2.80441723 C20.1052054,4.6904206 15.8654587,4.08869707 13.2649386,1.16567271 C13.0332129,0.905370163 12.8226061,0.633737692 12.6319555,0.352965117 C12.3126546,-0.117655039 11.9048096,-0.117655039 11.5852181,0.352965117 C11.3946644,0.633737692 11.1839607,0.905370163 10.9524287,1.16567271 C8.35287743,4.08917312 4.11254947,4.69032539 0.878271305,2.80441723 C0.371904207,2.50907761 0,2.67959768 0,3.25866136 L0,23.4787616 C0.0483407656,25.9526832 1.98691203,26.7897644 3.77648911,27.4420441 Z M3.13643413,13.181863 L21.0846145,13.181863 C21.6735193,13.181863 22.1506301,13.6511502 22.1506301,14.2299283 L22.1506301,22.5819841 C22.1119768,24.6738303 20.5048159,25.3812362 19.020396,25.9324036 L18.4400162,26.0955925 C18.1194558,26.1852798 17.3825256,26.308576 16.8076677,26.4323482 C15.6047673,26.6912226 14.3616637,26.6901753 12.8587405,28.0509083 C12.4253205,28.4432663 11.7765468,28.4413622 11.3443861,28.0479568 C9.85376617,26.6896993 8.61424694,26.6912226 7.41328407,26.4323482 C6.83794177,26.3080999 6.10130213,26.1852798 5.78093557,26.0955925 C5.46037526,26.0059052 5.20036201,25.9324036 5.20036201,25.9324036 C3.71603894,25.3812362 2.10849051,24.673735 2.0701279,22.5819841 L2.0701279,14.2299283 C2.07022477,13.6506742 2.54772304,13.181863 3.13643413,13.181863 Z" id="Shape"></path>
                    </g>
                </g>
                <g id="Group-5" filter="url(#filter-2)" transform="translate(378.500000, 22.000000)">
                    <circle id="Oval-8" fill="#FF1B43" cx="17.5" cy="17.5" r="17.5"></circle>
                    <text id="1" font-family="Helvetica-Bold, Helvetica" font-size="20" font-weight="bold" fill="#FFFFFF">
                        <tspan x="12" y="24">1</tspan>
                    </text>
                </g>
                <g id="speech-bubble" transform="translate(44.500000, 373.000000)" fill="#9837EA">
                    <path d="M27.0875394,21.3045317 C27.6932727,19.9201813 28,18.4467553 28,16.918429 C28,12.3531601 25.1949939,8.4290997 21.2132242,6.76830211 C19.511503,2.69679758 15.493503,0 11.030303,0 C4.94819394,0 0,4.93324471 0,10.9969789 C0,12.525136 0.306727273,13.9985619 0.912375758,15.382997 L0.0188363636,20.5077583 C-0.0520969697,20.9145619 0.0800121212,21.3303323 0.372824242,21.6222598 C0.613539394,21.8622477 0.938084848,21.9939577 1.27264242,21.9939577 C1.34510303,21.9939577 1.41807273,21.9877825 1.49070303,21.9751782 L6.63133333,21.0841692 C6.6834303,21.1067553 6.73637576,21.1274804 6.78881212,21.1493051 C8.45489697,25.1190453 12.3906788,27.9154079 16.969697,27.9154079 C18.5023152,27.9154079 19.9802061,27.6096073 21.3690909,27.0057885 L26.509297,27.896713 C26.5819273,27.9093172 26.654897,27.9154924 26.7273576,27.9154924 C27.0618303,27.9154924 27.3864606,27.7838671 27.6271758,27.5437946 C27.9200727,27.2517825 28.052097,26.8360121 27.9811636,26.4292085 L27.0875394,21.3045317 Z M2.8364,19.1661269 L3.48795152,15.429861 C3.5334303,15.1690634 3.49592727,14.9004834 3.38070303,14.6619335 C2.82647273,13.5146103 2.54545455,12.2815952 2.54545455,10.9969789 C2.54545455,6.33256798 6.35175758,2.53776435 11.030303,2.53776435 C13.758097,2.53776435 16.2695273,3.84750453 17.8435515,5.95587915 C17.5551515,5.93329305 17.2637818,5.92145015 16.969697,5.92145015 C10.887503,5.92145015 5.93939394,10.8546949 5.93939394,16.918429 C5.93939394,17.4921329 5.9837697,18.0556012 6.06921212,18.6058731 L2.8364,19.1661269 Z M24.5122182,21.3512266 L25.1636848,25.087577 L21.416097,24.437994 C21.1546788,24.392568 20.8852,24.4300423 20.6459273,24.5448338 C19.4948727,25.0974743 18.2580364,25.3776435 16.969697,25.3776435 C12.2910667,25.3776435 8.48484848,21.5828399 8.48484848,16.918429 C8.48484848,12.2540181 12.2910667,8.4592145 16.969697,8.4592145 C21.6483273,8.4592145 25.4545455,12.2540181 25.4545455,16.918429 C25.4545455,18.2030453 25.1736121,19.4360604 24.6193818,20.5834683 C24.5042424,20.8220181 24.4667394,21.090429 24.5122182,21.3512266 Z" id="XMLID_487_" stroke="#FFFFFF" fill-rule="nonzero"></path>
                    <polygon id="Path-3" points="17.6495309 3.90237914 12.2232124 1.62457194 6.49210417 2.61526431 3.66244546 5.53299533 1.8976654 8.45507478 1.74295274 11.4656775 1.74295274 14.7170797 1.53829348 19.7669657 3.20561675 20.4873338 6.2141891 20.1486715 7.25535248 19.0640586 7.54285002 14.62612 8.76715095 12.1166076 10.874248 10.0460569 12.2650376 9.2497537 15.5379615 7.12478958 19.4325785 7.41188105"></polygon>
                </g>
                <g id="price-tag" transform="translate(353.500000, 55.000000)">
                    <path d="M27.6294667,0.136733333 C27.447,-0.0457333333 27.1520667,-0.0457333333 26.9696,0.136733333 L25.2392,1.86666667 L14.3742667,1.86666667 L0.714933333,15.6384667 C0.403666667,15.9492667 0.2324,16.3632 0.2324,16.8028 C0.2324,17.2424 0.403666667,17.6563333 0.714933333,17.9671333 L10.2657333,27.5179333 C10.5863333,27.8385333 11.0068,27.9986 11.4282,27.9986 C11.851,27.9986 12.2747333,27.8371333 12.5986,27.5132667 L25.8990667,13.8534667 L25.8990667,2.52653333 L27.629,0.7966 C27.8114667,0.614133333 27.8114667,0.3192 27.6294667,0.136733333 Z M10.9256,26.8580667 L1.3748,17.3072667 C1.23993333,17.1724 1.16573333,16.9932 1.16573333,16.8028 C1.16573333,16.6124 1.23993333,16.4332 1.3762,16.2969333 L5.5062,12.1328667 L16.0272,22.6543333 L11.9340667,26.8580667 C11.6564,27.1357333 11.2037333,27.1357333 10.9256,26.8580667 Z M24.9662,13.4745333 L16.6786667,21.9856 L6.16373333,11.4702 L14.763,2.8 L24.3063333,2.8 L22.0509333,5.0554 C21.6818,4.81086667 21.2408,4.66666667 20.7662,4.66666667 C19.4796,4.66666667 18.4328667,5.7134 18.4328667,7 C18.4328667,8.2866 19.4796,9.33333333 20.7662,9.33333333 C22.0528,9.33333333 23.0995333,8.2866 23.0995333,7 C23.0995333,6.5254 22.9553333,6.0844 22.7108,5.71526667 L24.9662,3.45986667 L24.9662,13.4745333 Z M22.1662,7 C22.1662,7.77186667 21.5380667,8.4 20.7662,8.4 C19.9943333,8.4 19.3662,7.77186667 19.3662,7 C19.3662,6.22813333 19.9943333,5.6 20.7662,5.6 C20.9818,5.6 21.1834,5.6532 21.3658667,5.74046667 L20.4362667,6.67006667 C20.2538,6.85253333 20.2538,7.14746667 20.4362667,7.32993333 C20.5272667,7.42093333 20.6467333,7.46666667 20.7662,7.46666667 C20.8856667,7.46666667 21.0051333,7.42093333 21.0961333,7.32993333 L22.0257333,6.40033333 C22.113,6.5828 22.1662,6.7844 22.1662,7 Z" id="Shape" stroke="#EE9146" fill-rule="nonzero"></path>
                    <polygon id="Path-4" fill="#EE9146" points="5.60371519 11.4195193 16.6678292 22.9313058 11.7623392 27.6340488 0.923079514 16.4256556"></polygon>
                </g>
                <g id="register" transform="translate(357.500000, 374.000000)" stroke="#FFFFFF" fill-rule="nonzero" fill="#39EA37">
                    <path d="M28.5752467,15.3508485 L24.1930567,10.9940396 C23.62688,10.4310461 22.70874,10.4310461 22.1424667,10.9940396 L21.2666667,11.8647671 L21.2666667,1.44160178 C21.2666667,0.64545317 20.6174533,0 19.8166667,0 L1.45,0 C0.649213333,0 0,0.64545317 0,1.44160178 L0,24.5074225 C0,25.3035711 0.649213333,25.9490242 1.45,25.9490242 L9.66666667,25.9490242 L9.66666667,28.3515017 C9.66666667,29.1476503 10.31588,29.7931034 11.1166667,29.7931034 L15.4988567,29.7931034 C15.8834933,29.7931034 16.2522767,29.6411586 16.5242,29.3708102 L28.5753433,17.3894656 C29.1416167,16.8264721 29.1416167,15.913842 28.5752467,15.3508485 Z M2.9,2.88320356 L18.3666667,2.88320356 L18.3666667,14.7479706 L10.09142,22.975192 C10.0622267,23.0041201 10.0352567,23.0346821 10.0088667,23.0657246 L2.9,23.0657246 L2.9,2.88320356 Z M14.8982667,26.9098999 L12.5666667,26.9098999 L12.5666667,24.5917081 L23.16781,14.0520614 L25.49941,16.3701571 L14.8982667,26.9098999 Z" id="Shape"></path>
                </g>
            </g>
        </g>
    </g>
</svg>