<?xml version="1.0" encoding="UTF-8"?>
<svg width="510px" height="510px" viewBox="0 0 510 510" version="1.1" xmlns="http://www.w3.org/2000/svg" xmlns:xlink="http://www.w3.org/1999/xlink">
    <!-- Generator: Sketch 46.2 (44496) - http://www.bohemiancoding.com/sketch -->
    <title>web2</title>
    <desc>Created with Sketch.</desc>
    <defs></defs>
    <g id="Page-1" stroke="none" stroke-width="1" fill="none" fill-rule="evenodd">
        <circle id="Oval" fill-opacity="0" fill="#6EB1E1" fill-rule="nonzero" cx="254.644" cy="254.644" r="254.644"></circle>
        <path d="M52.217,156.652 L52.217,399.089 C52.217,406.549 58.32,412.652 65.78,412.652 L443.846,412.652 C451.306,412.652 457.409,406.549 457.409,399.089 L457.409,156.652 L52.217,156.652 Z" id="Shape" fill="#F1F3F7" fill-rule="nonzero"></path>
        <path d="M457.07,110.199 C457.07,102.739 450.967,96.636 443.507,96.636 L65.78,96.636 C58.32,96.636 52.217,102.739 52.217,110.199 L52.217,156.652 L457.409,156.652 L457.409,110.199 L457.07,110.199 L457.07,110.199 Z" id="Shape" fill="#4F5565" fill-rule="nonzero"></path>
        <circle id="Oval" fill="#F0582F" fill-rule="nonzero" cx="92.228" cy="126.813" r="9.833"></circle>
        <circle id="Oval" fill="#FBD303" fill-rule="nonzero" cx="125.118" cy="126.813" r="9.833"></circle>
        <circle id="Oval" fill="#71D456" fill-rule="nonzero" cx="158.008" cy="126.813" r="9.833"></circle>
        <path d="M387.221,116.98 L206.834,116.98 C201.409,116.98 197.001,121.388 197.001,126.813 C197.001,132.238 201.409,136.646 206.834,136.646 L387.221,136.646 C392.646,136.646 397.054,132.238 397.054,126.813 C397.054,121.388 392.646,116.98 387.221,116.98 Z" id="Shape" fill="#333842" fill-rule="nonzero"></path>
        <g id="girl" transform="translate(223.000000, 300.000000)" fill-rule="nonzero">
            <path d="M73.946605,106.365326 L73.2035768,100.899552 L71.574592,88.918265 C71.1316137,85.6598979 69.0469515,82.838617 66.0275278,81.411128 L58.3430125,77.7779413 C57.5952532,77.4243655 56.7242368,77.7452209 56.3534697,78.4626282 L51.6766748,76.7750851 C50.0496821,76.2432563 48.95257,74.7503265 48.95257,73.0686438 L48.95257,66.7682552 L57.5335001,63.2620432 C61.9871874,61.4421534 64.8883341,57.1745814 64.8883341,52.4428191 L64.8883341,50.4893617 C68.1888834,50.4893617 70.8644323,47.8656242 70.8644323,44.6289894 C70.8644323,41.3923546 68.1888834,38.768617 64.8883341,38.768617 L64.8883341,34.8617021 C64.8883341,29.4672294 60.4289198,21.1875 54.9281703,21.1875 L19.0715807,21.1875 C13.5708312,21.1875 9.11141691,29.4672294 9.11141691,34.8617021 L9.11141691,38.768617 C5.81086764,38.768617 3.13531865,41.3923546 3.13531865,44.6289894 C3.13531865,47.8656242 5.81086764,50.4893617 9.11141691,50.4893617 L9.11141691,52.4428191 C9.11141691,57.1743373 12.0125636,61.4419092 16.4664999,63.2620432 L25.047679,66.7682552 L25.047679,73.0683996 C25.047679,74.7500823 23.9503179,76.2430121 22.3235742,76.7748409 L17.6467793,78.462384 C17.2760122,77.7449767 16.4049958,77.4243655 15.6572366,77.7776971 L7.97272119,81.4108838 C4.95329754,82.838617 2.86863526,85.6596538 2.42565698,88.9180208 L0.930138386,99.9176955 L0.0533949693,106.365082 C-0.424194884,109.878375 2.36290795,113 5.97720238,113 L5.97720238,113 L68.0227976,113 L68.0227976,113 C71.6370921,113 74.4241949,109.878375 73.946605,106.365326 Z" id="Shape" fill="#FFD7A3"></path>
            <path d="M48.7317073,67.09375 L25.3513764,67.09375 L25.3513764,73.7932361 C25.3513764,75.2341736 24.6166007,76.539952 23.4634146,77.2610535 C39.7626714,80.1874753 48.7317073,67.09375 48.7317073,67.09375 Z" id="Shape" fill="#FDC88E"></path>
            <path d="M52.8168308,77.6875 C50.457058,84.6999638 43.8670686,89.7550998 36.0886039,89.7550998 C28.3101391,89.7550998 21.7203951,84.6997173 19.3603769,77.6875 L10.8292683,80.8644296 C14.4734681,91.3508359 24.4055691,98.875 36.0886039,98.875 C47.7907798,98.875 57.7363779,91.326434 61.3658537,80.8131609 L52.8168308,77.6875 Z" id="Shape" fill="#0087B1"></path>
            <path d="M73.9465525,106.375539 L71.5745253,88.9553338 C71.1315444,85.7019824 69.0468697,82.885288 66.027428,81.4597525 L58.3428667,77.8321584 C57.5692064,77.4669365 56.6620791,77.8209433 56.3152143,78.5901522 C51.2765864,89.7628203 42.6440609,94.9583328 36.9998513,97.3971274 C31.3556418,94.9585766 22.7231163,89.7628203 17.6847374,78.5899084 C17.3378726,77.8206995 16.4307453,77.4669365 15.657085,77.8319146 L7.97252371,81.4595087 C4.95308203,82.8850442 2.8684073,85.7017386 2.42542637,88.95509 L0.0533992011,106.375295 C-0.424193504,109.882936 2.36267696,113 5.97724198,113 L68.0232077,113 C71.6372747,113.000244 74.4243942,109.88318 73.9465525,106.375539 Z" id="Shape" fill="#8DB9E2"></path>
            <path d="M38.2629258,100.054987 C47.8247955,95.6225813 55.1413538,88.162714 59.5609756,78.477131 L58.204289,77.8322223 C57.4356484,77.4668391 56.5344067,77.8210023 56.1897925,78.5905511 C51.1838565,89.7681563 42.607341,94.9659647 36.9997526,97.4058369 C31.3921642,94.9662086 22.8156487,89.7681563 17.8099601,78.5903072 C17.4653459,77.8207583 16.5641042,77.4668391 15.7954636,77.8319784 L14.4390244,78.4768871 C18.8586462,88.1624701 26.1749571,95.6223374 35.7368268,100.054743 L36.9997526,100.640625 L38.2629258,100.054987 Z" id="Shape" fill="#00A1B4"></path>
            <path d="M14.4390244,104.703194 C14.4390244,102.550081 13.7324609,100.458452 12.4310972,98.758715 L3.05656033,86.515625 C2.6998232,87.339351 2.44126624,88.212699 2.32116236,89.127439 L0.051103681,106.422779 C-0.405958311,109.905279 2.26111042,113 5.72029284,113 L14.4390244,113 L14.4390244,104.703194 Z" id="Shape" fill="#00A1B4"></path>
            <path d="M59.5609756,104.703194 C59.5609756,102.550081 60.2675391,100.458452 61.5689028,98.758715 L70.9434397,86.515625 C71.3001768,87.339351 71.5587338,88.212699 71.6788376,89.127439 L73.9488963,106.422779 C74.4059583,109.905279 71.7388896,113 68.2797072,113 L59.5609756,113 L59.5609756,104.703194 Z" id="Shape" fill="#00A1B4"></path>
            <path d="M66.7795488,49.4375 L63.1716707,49.4375 C63.1716707,49.4375 61.4534187,54.4802537 61.3677316,60.9138234 C61.3197018,64.5172249 62.2002495,68.5567358 63.1716707,72.390625 L66.7795488,72.390625 C67.75097,68.5564967 68.6315178,64.5169858 68.5834879,60.9138234 C68.4978008,54.4804928 66.7795488,49.4375 66.7795488,49.4375 Z" id="Shape" fill="#FFC85C"></path>
            <path d="M10.8283293,49.4375 L7.22045118,49.4375 C7.22045118,49.4375 5.50219923,54.4802537 5.41651212,60.9138234 C5.36848225,64.5172249 6.24903,68.5567358 7.22045118,72.390625 L10.8283293,72.390625 C11.7997505,68.5564967 12.6802982,64.5169858 12.6322684,60.9138234 C12.5465813,54.4804928 10.8283293,49.4375 10.8283293,49.4375 Z" id="Shape" fill="#F6B45E"></path>
            <path d="M64.4978479,38.985 L64.4978479,35.03 C64.4978479,29.5691337 60.1008929,21.1875 54.6771879,21.1875 L19.3228121,21.1875 C13.8991071,21.1875 9.50215208,29.5691337 9.50215208,35.03 L9.50215208,38.985 C6.24783088,38.985 3.6097561,41.6410297 3.6097561,44.9175 C3.6097561,48.1939703 6.24783088,50.85 9.50215208,50.85 L9.50215208,52.8275 C9.50215208,57.6172522 12.3626648,61.9373481 16.7542184,63.7798837 L29.4452118,69.1038081 C31.8389977,70.1081309 34.4066092,70.625 36.9997545,70.625 L36.9997545,70.625 C39.5928997,70.625 42.1602658,70.1081309 44.5540516,69.1038081 L57.2457816,63.7796366 C61.6373352,61.9375953 64.4978479,57.6174994 64.4978479,52.8275 L64.4978479,50.85 C67.7521691,50.85 70.3902439,48.1939703 70.3902439,44.9175 C70.3902439,41.6410297 67.7521691,38.985 64.4978479,38.985 Z" id="Shape" fill="#FFE1B2"></path>
            <path d="M23.4634146,45.90625 L23.4634146,45.90625 C22.4707317,45.90625 21.6585366,45.1117187 21.6585366,44.140625 L21.6585366,42.375 C21.6585366,41.4039062 22.4707317,40.609375 23.4634146,40.609375 L23.4634146,40.609375 C24.4560976,40.609375 25.2682927,41.4039062 25.2682927,42.375 L25.2682927,44.140625 C25.2682927,45.1117187 24.4560976,45.90625 23.4634146,45.90625 Z" id="Shape" fill="#623F33"></path>
            <path d="M50.5365854,45.90625 L50.5365854,45.90625 C49.5439024,45.90625 48.7317073,45.1117187 48.7317073,44.140625 L48.7317073,42.375 C48.7317073,41.4039062 49.5439024,40.609375 50.5365854,40.609375 L50.5365854,40.609375 C51.5292683,40.609375 52.3414634,41.4039062 52.3414634,42.375 L52.3414634,44.140625 C52.3414634,45.1117187 51.5292683,45.90625 50.5365854,45.90625 Z" id="Shape" fill="#623F33"></path>
            <path d="M37.0000545,60.03125 C33.4704091,60.03125 30.168827,59.2658221 27.9420458,57.9306972 C27.0357487,57.3874621 26.7999923,56.2990236 27.417674,55.5003543 C28.0331223,54.7025598 29.2692302,54.4948008 30.1755274,55.0382546 C31.7362347,55.9736074 34.2876152,56.5323698 37.0000545,56.5323698 C39.7124938,56.5323698 42.2638742,55.9736074 43.8245815,55.0382546 C44.732864,54.4932699 45.965994,54.701685 46.5824349,55.5003543 C47.1998685,56.2990236 46.9643603,57.3874621 46.0580631,57.9306972 C43.8315301,59.2658221 40.5296998,60.03125 37.0000545,60.03125 Z" id="Shape" fill="#E4B07B"></path>
            <path d="M39.7073171,21.1875 L35.2872076,21.1875 C35.2872076,21.1875 38.6430529,33.766646 9.50372656,39.1007274 L9.50323544,39.1007274 L9.50323544,39.1007274 C6.24831591,39.1007274 3.6097561,41.6670958 3.6097561,44.8329602 C3.6097561,47.9988246 6.24831591,50.565193 9.50323544,50.565193 L9.50323544,52.4759372 C9.50323544,57.1039986 12.3642741,61.2784972 16.7566351,63.0585943 L29.4497163,68.2027955 C30.0709872,68.4545361 30.7050274,68.6714055 31.3471711,68.859375 C25.737561,64.8680691 22.0035507,61.3788112 19.8155965,59.0973826 C18.2238659,57.4374235 17.3612079,55.2469941 17.3612079,52.9770299 L17.3612079,42.2981191 C22.8797146,40.4246343 39.7073171,33.7267592 39.7073171,21.1875 Z" id="Shape" fill="#FFD7A3"></path>
            <path d="M10.8292683,75.921875 L7.2195122,75.921875 C6.22276829,75.921875 5.41463415,75.1313164 5.41463415,74.15625 L5.41463415,74.15625 C5.41463415,73.1811836 6.22276829,72.390625 7.2195122,72.390625 L10.8292683,72.390625 C11.8260122,72.390625 12.6341463,73.1811836 12.6341463,74.15625 L12.6341463,74.15625 C12.6341463,75.1315371 11.8260122,75.921875 10.8292683,75.921875 Z" id="Shape" fill="#00A1B4"></path>
            <path d="M9.86996069,75.921875 C9.86996069,75.921875 12.9289773,81.9754464 8.12195122,90.046875 C3.31492517,81.9754464 6.37394175,75.921875 6.37394175,75.921875" id="Shape" fill="#F6B45E"></path>
            <path d="M63.1707317,75.921875 L66.7804878,75.921875 C67.7772317,75.921875 68.5853659,75.1313164 68.5853659,74.15625 L68.5853659,74.15625 C68.5853659,73.1811836 67.7772317,72.390625 66.7804878,72.390625 L63.1707317,72.390625 C62.1739878,72.390625 61.3658537,73.1811836 61.3658537,74.15625 L61.3658537,74.15625 C61.3658537,75.1315371 62.1739878,75.921875 63.1707317,75.921875 Z" id="Shape" fill="#00A1B4"></path>
            <path d="M62.3251613,75.921875 C62.3251613,75.921875 59.2661447,81.9754464 64.0731707,90.046875 C68.8801968,81.9754464 65.8211802,75.921875 65.8211802,75.921875" id="Shape" fill="#FFC85C"></path>
            <path d="M65.7860475,36.2969739 L55.6387788,36.2969739 C55.6320663,36.2969739 55.6260997,36.2987119 55.6193872,36.2989602 C54.4814989,35.6710322 53.1745558,35.3125 51.7853227,35.3125 C48.1178269,35.3125 45.0233773,37.8048452 44.1070006,41.1820996 C42.9698581,38.883918 40.5986153,37.2988281 37.8631586,37.2988281 C35.127702,37.2988281 32.7564591,38.883918 31.6193167,41.1820996 C30.7029399,37.8048452 27.6084904,35.3125 23.9409946,35.3125 C22.5530045,35.3125 21.2473044,35.6702874 20.110162,36.2969739 L10.0188305,36.2969739 C9.46915366,36.2969739 9.02439024,36.7411665 9.02439024,37.2901379 C9.02439024,37.8391094 9.46915366,38.283302 10.0188305,38.283302 L17.7441399,38.283302 C16.6452834,39.6459231 15.9854723,41.3760149 15.9854723,43.2578125 C15.9854723,47.6389075 19.5545185,51.203125 23.9409946,51.203125 C27.6529916,51.203125 30.7790146,48.6504451 31.6526304,45.2106213 C31.7309426,45.2304846 31.8117409,45.2441406 31.8965169,45.2441406 C32.4461938,45.2441406 32.8909572,44.799948 32.8909572,44.2509766 C32.8909572,41.5130715 35.1217354,39.2851562 37.8631586,39.2851562 C40.6045819,39.2851562 42.8353601,41.5130715 42.8353601,44.2509766 C42.8353601,44.799948 43.2801235,45.2441406 43.8298004,45.2441406 C43.9143278,45.2441406 43.9951261,45.2304846 44.0736868,45.2106213 C44.947054,48.6504451 48.0730771,51.203125 51.7850741,51.203125 C56.1717988,51.203125 59.7405964,47.6389075 59.7405964,43.2578125 C59.7405964,41.3760149 59.0807853,39.6459231 57.9819287,38.283302 L65.7860475,38.283302 C66.3357244,38.283302 66.7804878,37.8391094 66.7804878,37.2901379 C66.7804878,36.7411665 66.3357244,36.2969739 65.7860475,36.2969739 Z M23.940746,49.2167969 C20.6506403,49.2167969 17.9741042,46.5436958 17.9741042,43.2578125 C17.9741042,39.9719292 20.6506403,37.2988281 23.940746,37.2988281 C27.2308517,37.2988281 29.9073877,39.9719292 29.9073877,43.2578125 C29.9073877,46.5436958 27.2308517,49.2167969 23.940746,49.2167969 Z M51.7850741,49.2167969 C48.4949684,49.2167969 45.8184323,46.5436958 45.8184323,43.2578125 C45.8184323,39.9719292 48.4949684,37.2988281 51.7850741,37.2988281 C55.0751798,37.2988281 57.7517158,39.9719292 57.7517158,43.2578125 C57.7517158,46.5436958 55.0751798,49.2167969 51.7850741,49.2167969 Z" id="Shape" fill="#734A3E"></path>
            <path d="M46.8155259,0 C40.4354341,0 37,1.9564301 37,1.9564301 C37,1.9564301 33.5645659,0 27.1844741,0 C20.8043822,0 -3.40733026,12.2411386 5.59031698,40.609375 C5.59031698,40.609375 37,35.0526244 37,21.5207311 C37,35.0526244 68.409683,40.609375 68.409683,40.609375 C77.4073303,12.2411386 53.1956178,0 46.8155259,0 Z" id="Shape" fill="#FFC85C"></path>
            <path d="M37.902439,1.95740831 L37.902439,1.9564301 C37.902439,1.9564301 34.3741468,0 27.8216041,0 C21.2690615,0 -3.5968299,12.2411386 5.64376739,40.609375 C5.64376739,40.609375 9.54883081,39.9351403 14.6383923,38.4890939 C8.94221657,13.0513452 31.6503052,1.97697261 37.902439,1.95740831 Z" id="Shape" fill="#F6B45E"></path>
        </g>
        <g id="girl-(1)" transform="translate(119.500000, 227.500000) scale(-1, 1) translate(-119.500000, -227.500000) translate(82.000000, 171.000000)" fill-rule="nonzero">
            <path d="M37.6044402,0 L37.58861,0 C18.5959339,0 0,14.1463786 0,33.1708189 C0,58.3740558 13.8513514,70.244087 13.8513514,70.244087 C13.8513514,70.244087 10.9964889,75.9975168 10.1381998,81.21875 L20.5170668,81.21875 C19.569486,75.755321 19.7876448,70.244087 19.7876448,70.244087 C19.7876448,70.244087 73.2142857,60.6506472 73.2142857,33.1708189 C73.2142857,14.442477 56.5971163,0 37.6044402,0 Z" id="Shape" fill="#FF9656"></path>
            <path d="M53.5714286,3.88269313 C48.6132076,1.39829636 43.0077625,0 37.1736983,0 L37.158294,0 C18.3829259,0 0,14.1463786 0,33.1708189 C0,58.3740558 13.6926904,70.244087 13.6926904,70.244087 C13.6926904,70.244087 10.868084,75.9977607 10.0193817,81.21875 L20.2815641,81.21875 C19.3448374,75.755321 19.5609863,70.244087 19.5609863,70.244087 C19.5609863,70.244087 25.1605631,69.2206697 32.6998562,66.9057856 L5.86829588,40.5013259 C5.86829588,40.5013259 44.7232609,26.8988512 53.5714286,3.88269313 Z" id="Shape" fill="#EF8C56"></path>
            <path d="M74.9473497,100.788726 L74.5698757,99.5123889 C74.3875701,98.8958306 73.7790602,98.5178376 73.153235,98.596464 L71.8338075,88.8287144 C71.4004298,85.6196807 69.3861632,82.8321043 66.0692897,81.1951113 L62.1822473,79.2765771 C61.5527117,78.9659781 61.0720879,79.3657033 60.6097688,79.8733567 L52.0794993,76.7749373 C50.4632378,76.2431099 49.373362,74.750184 49.373362,73.0685058 L49.373362,66.7681339 L57.8976947,63.2619313 C62.3222541,61.4420464 65.204513,57.1744857 65.204513,52.442736 L65.204513,50.4892838 C68.4832928,50.4892838 71.1411947,47.8655532 71.1411947,44.628927 C71.1411947,41.3923008 68.4832928,38.7685703 65.204513,38.7685703 L65.204513,34.8616658 C65.204513,29.4674515 60.7745117,21.1875 55.3100436,21.1875 L19.6899537,21.1875 C14.2252382,21.1875 9.79548425,29.4674515 9.79548425,34.8616658 L9.79548425,38.7685703 C6.51670445,38.7685703 3.8588026,41.3923008 3.8588026,44.628927 C3.8588026,47.8655532 6.51670445,50.4892838 9.79548425,50.4892838 L9.79548425,52.442736 C9.79548425,57.1744857 12.6774958,61.4420464 17.1020552,63.2619313 L25.6266353,66.7683781 L25.6266353,73.0685058 C25.6266353,74.750184 24.5365122,76.2431099 22.9204979,76.7749373 L14.3902285,79.8733567 C13.9279094,79.3657033 13.4472856,78.965734 12.8177499,79.2765771 L8.93070762,81.1951113 C5.61358675,82.8323485 3.5995675,85.6199249 3.16618974,88.8287144 L1.84676224,98.596464 C1.22093705,98.5178376 0.612674541,98.8958306 0.43012158,99.5123889 L0.0526475718,100.788726 C-0.149446966,101.47219 0.248063343,102.187642 0.940428841,102.387138 L3.85904996,103.227611 L3.85904996,109.093095 C3.85904996,111.250684 5.63114943,113 7.81683773,113 L15.7324133,113 L59.2680787,113 L67.1836543,113 C69.3693426,113 71.141442,111.250684 71.141442,109.093095 L71.141442,103.227611 L74.0600632,102.387138 C74.7519339,102.187886 75.1494442,101.47219 74.9473497,100.788726 Z" id="Shape" fill="#FFD7A3"></path>
            <path d="M48.2142857,65.328125 L25.0822015,65.3627917 L25.0822015,70.924588 C25.0822015,72.1206935 24.3552276,73.2046051 23.2142857,73.8031832 C39.339999,76.2325822 48.2135628,65.3289654 48.2142857,65.328125 Z" id="Shape" fill="#FDC88E"></path>
            <path d="M71.6137887,89.0329038 C71.1831881,85.8509787 69.1818294,83.0869507 65.8862113,81.4637864 L62.0240782,79.5614591 C61.3100973,79.2099026 60.7890509,79.7759764 60.2677588,80.3713465 C49.7888288,92.33952 37.5002458,97.5053664 37.5002458,97.5053664 L37.5,97.5053664 L37.4997542,97.5053664 C37.4997542,97.5053664 25.2111712,92.33952 14.7322412,80.3713465 C14.2109491,79.7759764 13.6896569,79.2099026 12.9759218,79.5614591 L9.11378866,81.4637864 C5.81792478,83.0871928 3.8168119,85.8512209 3.38621134,89.0329038 L1.78571429,100.857017 C6.97971065,102.618915 15.8714156,105.252199 15.8714156,105.252199 L15.8714156,113 L59.1280929,113 L59.1280929,105.252199 C59.1280929,105.252199 68.0197978,102.618915 73.2142857,100.857017 L71.6137887,89.0329038 Z" id="Shape" fill="#9BCE7A"></path>
            <path d="M65.440949,38.985 L65.440949,35.03 C65.440949,29.5693809 60.9731214,21.1875 55.4619941,21.1875 L19.5377564,21.1875 C14.0263796,21.1875 9.55880152,29.5693809 9.55880152,35.03 L9.55880152,38.9840112 C6.25202533,38.9840112 3.57142857,41.6400409 3.57142857,44.9165112 C3.57142857,48.1929816 6.25202533,50.8490112 9.55880152,50.8490112 L9.55880152,52.8275 C9.55880152,57.6174994 12.4654216,61.9375953 16.9277608,63.7798837 L29.8233147,69.1038081 C32.255685,70.1081309 34.8646827,70.625 37.4996258,70.625 L37.4996258,70.625 C40.1345688,70.625 42.7433171,70.1078837 45.1756874,69.1038081 L58.0719898,63.7796366 C62.5343289,61.9373481 65.4411985,57.6172522 65.4411985,52.8272528 L65.4411985,50.8497528 C68.7479747,50.8497528 71.4285714,48.1937231 71.4285714,44.9172528 C71.4285714,41.6407825 68.7477252,38.985 65.440949,38.985 Z" id="Shape" fill="#FFE1B2"></path>
            <path d="M51.7857143,45.90625 L51.7857143,45.90625 C50.8035714,45.90625 50,45.1117187 50,44.140625 L50,42.375 C50,41.4039062 50.8035714,40.609375 51.7857143,40.609375 L51.7857143,40.609375 C52.7678571,40.609375 53.5714286,41.4039062 53.5714286,42.375 L53.5714286,44.140625 C53.5714286,45.1117187 52.7678571,45.90625 51.7857143,45.90625 Z" id="Shape" fill="#623F33"></path>
            <path d="M36.6071429,60.03125 C33.1149552,60.03125 29.8484106,59.2658221 27.6452608,57.9306972 C26.7485816,57.3874621 26.5155726,56.2990236 27.1264538,55.5003543 C27.7353707,54.7025598 28.9583607,54.4948008 29.85504,55.0382546 C31.3991845,55.9736074 33.9234889,56.5323698 36.6071429,56.5323698 C39.2907968,56.5323698 41.8151012,55.9736074 43.3592457,55.0382546 C44.2578893,54.4932699 45.4779329,54.701685 46.0878319,55.5003543 C46.6987131,56.2990236 46.4657041,57.3874621 45.5690249,57.9306972 C43.3658751,59.2658221 40.0993305,60.03125 36.6071429,60.03125 Z" id="Shape" fill="#E4B07B"></path>
            <path d="M9.39142545,38.6646867 C6.17708968,38.6646867 3.57142857,41.268659 3.57142857,44.4809114 C3.57142857,47.6931639 6.17708968,50.2971361 9.39142545,50.2971361 L9.39142545,52.2358777 C9.39142545,56.9319945 12.2167914,61.1674178 16.5543866,62.9735979 L29.0892049,68.1931749 C29.7027296,68.4486041 30.3288642,68.6686513 30.9630014,68.859375 C25.4233344,64.8095862 21.7358813,61.2692017 19.5752075,58.9543443 C18.0033233,57.2703049 17.1514213,55.0475377 17.1514213,52.7443127 L17.1514213,42.5421699 C17.1514213,42.5421699 49.4846565,38.5030441 57.8913995,25.0934957 C58.3827042,24.3100018 58.7219615,23.5989683 58.9285714,22.953125 C40.0111566,33.815894 9.39142545,38.6646867 9.39142545,38.6646867 Z" id="Shape" fill="#FFD7A3"></path>
            <path d="M16.0714286,105.9375 C15.9487538,103.520152 15.151995,101.184374 13.7127617,99.2404332 L4.29088845,86.515625 C3.83606362,87.4644714 3.51645698,88.4743042 3.37647229,89.5362296 L1.78571429,101.621951 L16.0714286,105.9375 Z" id="Shape" fill="#8ABE69"></path>
            <path d="M0.053784295,99.0402147 C-0.152668375,99.638944 0.253414171,100.265909 0.960457709,100.440458 L16.0714286,104.171875 L16.0714286,102.892489 C16.0714286,102.08413 15.9213271,101.292241 15.7022396,100.515326 L2.09304139,97.1548269 C1.38599785,96.9802777 0.645598435,97.3238144 0.439398461,97.9223299 L0.053784295,99.0402147 Z" id="Shape" fill="#76AB5F"></path>
            <path d="M58.9285714,105.9375 C59.0512462,103.520152 59.848005,101.184374 61.2872383,99.2404332 L70.7091115,86.515625 C71.1639364,87.4644714 71.483543,88.4743042 71.6235277,89.5362296 L73.2142857,101.621951 L58.9285714,105.9375 Z" id="Shape" fill="#8ABE69"></path>
            <path d="M74.9462166,99.0402147 C75.152666,99.638944 74.7465898,100.265909 74.0395574,100.440458 L58.9285714,104.171875 L58.9285714,102.892489 C58.9285714,102.08413 59.0786705,101.292241 59.2977545,100.515326 L72.9067388,97.1548269 C73.6137712,96.9802777 74.354159,97.3238144 74.5603558,97.9223299 L74.9462166,99.0402147 Z" id="Shape" fill="#76AB5F"></path>
            <path d="M17.8571429,70.625 L12.5,70.625 C11.5138393,70.625 10.7142857,69.8344414 10.7142857,68.859375 L10.7142857,68.859375 C10.7142857,67.8843086 11.5138393,67.09375 12.5,67.09375 L17.8571429,67.09375 C18.8433036,67.09375 19.6428571,67.8843086 19.6428571,68.859375 L19.6428571,68.859375 C19.6428571,69.8344414 18.8433036,70.625 17.8571429,70.625 Z" id="Shape" fill="#76AB5F"></path>
            <path d="M5.35714286,21.1875 L5.35714286,40.749934 C36.022769,37.1607888 50.5443144,30.8090734 57.1626288,26.4828889 C57.6502734,33.5569222 57.5201366,44.1725575 54.1589247,54.734375 C54.1589247,54.734375 65.916414,38.6174914 64.0937625,21.1877413 L5.35714286,21.1875 L5.35714286,21.1875 Z" id="Shape" fill="#FF9656"></path>
            <path d="M23.2142857,45.90625 L23.2142857,45.90625 C22.2321429,45.90625 21.4285714,45.1117187 21.4285714,44.140625 L21.4285714,42.375 C21.4285714,41.4039062 22.2321429,40.609375 23.2142857,40.609375 L23.2142857,40.609375 C24.1964286,40.609375 25,41.4039062 25,42.375 L25,44.140625 C25,45.1117187 24.1964286,45.90625 23.2142857,45.90625 Z" id="Shape" fill="#623F33"></path>
            <path d="M5.35714286,21.1875 L5.35714286,40.609375 L5.35714286,40.609375 C5.35927922,40.6086562 25.1095044,33.6158803 39.2857143,21.1875 C39.2857143,21.1875 5.35714286,21.1875 5.35714286,21.1875 Z" id="Shape" fill="#EF8C56"></path>
        </g>
        <g id="boy-(2)" transform="translate(349.000000, 298.000000)" fill-rule="nonzero">
            <path d="M16.25,58.1423556 L4,54.2661985 C4,54.2661985 3.66675,45.8677775 6,40.6996489 L0,29.0711778 C0,29.0711778 3,24.8720884 10,21.3188637 L8,7.75231408 L26,3.87615704 L26,0 C26,0 48.375,1.33242898 56,3.87615704 L66,0 L66,11.6284711 L78,9.69039259 C78,9.69039259 80.5,16.4736674 78,25.1950207 L86,34.8854133 L80,40.6996489 L82,52.32812 L66.75,58.3846154 L16.25,58.1423556 Z" id="Shape" fill="#FF9656"></path>
            <path d="M50.1666667,58.3846154 L49.9839752,25.2293578 C49.9839752,25.2293578 50.3171184,5.33697953 25.9916671,0 L25.9916671,3.88143966 L7.99743604,7.76287932 L9.99679505,21.3479181 C9.55943526,21.5703731 9.13757051,21.7952541 8.73145071,22.0213479 C4.05819895,24.6231254 1.41854522,27.4024788 0.441108581,28.5579349 C0.143454009,28.9096904 0,29.1107975 0,29.1107975 L5.99807703,40.7551164 C5.92510042,40.916924 5.85487294,41.0816426 5.78714465,41.2495148 C4.16041618,45.2740826 3.98047387,50.9133292 3.98222331,53.2548077 C3.98222331,53.44985 3.98372283,53.6220889 3.98572219,53.7686133 C3.99072058,54.1349241 3.99871802,54.3401553 3.99871802,54.3401553 L16.244792,58.2215949 L50.1666667,58.3846154 Z" id="Shape" fill="#EF8C56"></path>
            <path d="M82.369171,106.601578 L79.8239459,86.6948387 C79.4396235,83.6901034 77.3247189,81.1682194 74.3863739,80.2106259 L63.3760006,76.6225376 C62.3562516,76.2903163 61.2369658,76.7957743 60.8719977,77.7725344 L57.815013,76.7763619 C56.172908,76.2411711 55.0651846,74.7388035 55.0651846,73.0464898 L55.0651846,66.7062724 L63.7271441,63.1778954 C68.2231387,61.3467467 71.1516808,57.0521966 71.1516808,52.2905218 L71.1516808,50.3247153 C74.4833971,50.3247153 77.1842112,47.6843915 77.1842112,44.4272958 C77.1842112,41.1702002 74.4833971,38.5298763 71.1516808,38.5298763 L71.1516808,34.5982633 C71.1516808,29.1699344 66.6501564,24.7692308 61.0974636,24.7692308 L24.9022815,24.7692308 C19.3493373,24.7692308 14.8480642,29.1699344 14.8480642,34.5982633 L14.8480642,38.5298763 C11.516348,38.5298763 8.81553386,41.1702002 8.81553386,44.4272958 C8.81553386,47.6843915 11.516348,50.3247153 14.8480642,50.3247153 L14.8480642,52.2905218 C14.8480642,57.0519509 17.7766063,61.346501 22.2726009,63.1781412 L30.9348118,66.7067638 L30.9348118,73.0467356 C30.9348118,74.7390492 29.8270884,76.2414169 28.1849834,76.7766077 L25.1279986,77.7727801 C24.7630306,76.79602 23.6437448,76.290562 22.6239958,76.6227833 L11.6136225,80.2108716 C8.67527753,81.1684651 6.56037293,83.6905949 6.17605047,86.6950844 L3.63082537,106.601824 C3.1806478,110.121846 5.98828797,113.230769 9.61685497,113.230769 L9.67340994,113.230769 L76.3268378,113.230769 L76.3833928,113.230769 C80.0119598,113.230769 82.8193486,110.121601 82.369171,106.601578 Z" id="Shape" fill="#FFD7A3"></path>
            <path d="M51.9583333,67.2307692 L51.9583333,67.2307692 L28.7491422,67.2307692 L28.7491422,73.8775116 C28.7491422,75.3441177 28.019745,76.673157 26.875,77.4071041 C43.0544656,80.3859143 51.9578498,67.2315421 51.9583333,67.2307692 Z" id="Shape" fill="#FDC88E"></path>
            <path d="M43,86.4488997 C36.3414448,86.4488997 30.1672842,84.57645 25.0833333,81.3846154 L25.0833333,81.3846154 C25.0833333,89.2016386 32.092488,95.5384615 40.7388909,95.5384615 L45.2611091,95.5384615 C53.907512,95.5384615 60.9166667,89.2016386 60.9166667,81.3846154 L60.9166667,81.3846154 C55.8327158,84.57645 49.6588129,86.4488997 43,86.4488997 Z" id="Shape" fill="#FF8C51"></path>
            <path d="M82.3691717,108.290927 L79.823971,88.1435639 C79.4399035,85.1025088 77.3247678,82.5501414 74.3864509,81.5809729 L63.3761829,77.9495134 C62.3290462,77.6040747 61.1748331,78.1512059 60.8420417,79.1924962 C59.8381377,82.335268 58.311168,85.3268326 56.5645158,88.0627377 C50.2832037,97.9018989 35.716793,97.9018989 29.4354808,88.0627377 C27.6888286,85.3268326 26.161859,82.3355167 25.157955,79.1924962 C24.8254149,78.1512059 23.6709505,77.6040747 22.6238138,77.9495134 L11.6135457,81.5809729 C8.67497748,82.5501414 6.56009311,85.1027575 6.17602568,88.1435639 L3.63082492,108.290927 C3.18065165,111.853498 5.98826497,115 9.61679728,115 L76.3826967,115 C80.011983,115.000249 82.819345,111.853498 82.3691717,108.290927 Z" id="Shape" fill="#4F6E7F"></path>
            <path d="M71.0343137,38.7692308 L71.0343137,34.7692308 C71.0343137,29.2464808 66.5515769,24.7692308 61.0220588,24.7692308 L24.9779412,24.7692308 C19.4481728,24.7692308 14.9656863,29.2464808 14.9656863,34.7692308 L14.9656863,38.7692308 C11.6478753,38.7692308 8.95833333,41.4554808 8.95833333,44.7692308 C8.95833333,48.0829808 11.6478753,50.7692308 14.9656863,50.7692308 L14.9656863,52.7692308 C14.9656863,57.6134808 17.8820058,61.9827308 22.3592359,63.8462308 L35.2978226,69.2307308 C37.7383097,70.2464808 40.3560138,70.7692308 42.9997497,70.7692308 L42.9997497,70.7692308 C45.6434856,70.7692308 48.2609393,70.2464808 50.7014265,69.2307308 L63.6407641,63.8459808 C68.1179942,61.9829808 71.0343137,57.6137308 71.0343137,52.7692308 L71.0343137,50.7692308 C74.3521247,50.7692308 77.0416667,48.0829808 77.0416667,44.7692308 C77.0416667,41.4554808 74.3521247,38.7692308 71.0343137,38.7692308 Z" id="Shape" fill="#FFE1B2"></path>
            <path d="M26.875,47.7692308 L26.875,47.7692308 C25.8895833,47.7692308 25.0833333,46.7076923 25.0833333,45.4102564 L25.0833333,43.0512821 C25.0833333,41.7538462 25.8895833,40.6923077 26.875,40.6923077 L26.875,40.6923077 C27.8604167,40.6923077 28.6666667,41.7538462 28.6666667,43.0512821 L28.6666667,45.4102564 C28.6666667,46.7076923 27.8604167,47.7692308 26.875,47.7692308 Z" id="Shape" fill="#623F33"></path>
            <path d="M55.5416667,47.7692308 L55.5416667,47.7692308 C54.55625,47.7692308 53.75,46.7076923 53.75,45.4102564 L53.75,43.0512821 C53.75,41.7538462 54.55625,40.6923077 55.5416667,40.6923077 L55.5416667,40.6923077 C56.5270833,40.6923077 57.3333333,41.7538462 57.3333333,43.0512821 L57.3333333,45.4102564 C57.3333333,46.7076923 56.5270833,47.7692308 55.5416667,47.7692308 Z" id="Shape" fill="#623F33"></path>
            <path d="M42.1041667,63.6923077 C38.6003384,63.6923077 35.3229053,62.669653 33.1124117,60.8858509 C32.2127435,60.1600583 31.9789579,58.7058432 32.5918753,57.6387761 C33.202822,56.5728777 34.4298886,56.2953 35.3295568,57.0213848 C36.8788485,58.2710689 39.4115672,59.0176068 42.1041667,59.0176068 C44.7967662,59.0176068 47.3294849,58.2710689 48.8787766,57.0213848 C49.7804156,56.2932547 51.004526,56.5717089 51.616458,57.6387761 C52.2293755,58.7058432 51.9955898,60.1600583 51.0959216,60.8858509 C48.8856744,62.669653 45.6079949,63.6923077 42.1041667,63.6923077 Z" id="Shape" fill="#E4B07B"></path>
            <path d="M7.5630229,84.9230769 C6.73071578,86.0153303 6.17350116,87.334924 6.00033816,88.7711024 L3.62760677,108.447694 C3.2079384,111.92702 5.8253006,115 9.2079542,115 L19.7083333,115 L19.7083333,102.353712 C19.7083333,100.484227 19.0583277,98.6776489 17.8775857,97.2645445 L7.5630229,84.9230769 Z" id="Shape" fill="#33546A"></path>
            <path d="M76.6453104,84.9230769 C77.4776176,86.0153303 78.0348322,87.334924 78.2079952,88.7711024 L80.5807266,108.447694 C81.0003949,111.92702 78.3830327,115 75.0003791,115 L64.5,115 L64.5,102.353712 C64.5,100.484227 65.1500056,98.6776489 66.3309819,97.2645445 L76.6453104,84.9230769 Z" id="Shape" fill="#33546A"></path>
            <path d="M25.7070976,60.7141106 C24.0620413,59.0043072 23.1704827,56.7481047 23.1704827,54.4099793 L23.1704827,26.5384615 C18.5370682,27.4504387 15.0492545,31.4201348 15.0492545,36.1807687 L15.0492545,40.1170068 C11.6852895,40.1170068 8.95833333,42.7604367 8.95833333,46.0213639 C8.95833333,49.2822912 11.6852895,51.925721 15.0492545,51.925721 L15.0492545,53.8938401 C15.0492545,58.6611164 18.0061429,62.9607185 22.5456557,64.7942674 L35.6639772,70.0929359 C36.3060618,70.3522355 36.9613434,70.5756171 37.625,70.7692308 C31.8272044,66.6578301 27.9680983,63.0640447 25.7070976,60.7141106 Z" id="Shape" fill="#FFD7A3"></path>
            <path d="M20.7749818,24.7692308 C19.486597,29.4639463 19.7258875,35.3846154 19.7258875,35.3846154 C21.8576513,31.5993667 28.1642081,26.579771 32.25,24.7692308 C32.25,24.7692308 20.7749818,24.7692308 20.7749818,24.7692308 Z" id="Shape" fill="#EF8C56"></path>
        </g>
        <g id="girl-(2)" transform="translate(360.000000, 172.000000)" fill-rule="nonzero">
            <path d="M74.9473528,100.736508 L74.5698812,99.4547135 C74.3875768,98.8355187 73.779071,98.4559093 73.1532499,98.534872 L71.8338311,88.7253537 C71.4004562,85.5025977 69.3844713,82.7023655 66.4512751,81.2484223 L62.1887657,79.1355577 C61.5537923,78.8206879 60.8258115,79.1 60.5151272,79.6971246 L52.0794055,76.6200326 C50.4631545,76.085931 49.3732859,74.5866211 49.3732859,72.8977517 L49.3732859,66.5704384 L57.8975626,63.0492426 C62.3223402,61.2218207 65.2043328,56.9360113 65.2043328,52.1840278 L65.2043328,50.2222222 C68.4830911,50.2222222 71.1409754,47.5872721 71.1409754,44.3368056 C71.1409754,41.086339 68.4830911,38.4513889 65.2043328,38.4513889 L65.2043328,34.5277778 C65.2043328,29.1102517 60.7743606,24.71875 55.3099285,24.71875 L19.6900729,24.71875 C14.2256407,24.71875 9.79566853,29.1102517 9.79566853,34.5277778 L9.79566853,52.1840278 C9.79566853,56.9357661 12.6776612,61.2215755 17.1021914,63.0494878 L25.6267155,66.5706836 L25.6267155,72.8977517 C25.6267155,74.5866211 24.5365995,76.085931 22.9205959,76.6200326 L14.4853688,79.6968793 C14.1781476,79.0990191 13.4516509,78.8182357 12.817667,79.1323698 L8.93065024,81.0591081 C5.61355118,82.7033464 3.59954518,85.5028429 3.16617027,88.7253537 L1.84675145,98.534872 C1.22093038,98.4559093 0.61267187,98.8355187 0.43012011,99.4547135 L0.0526485841,100.736508 C-0.149444624,101.422895 0.24806307,102.141406 0.940176653,102.341756 L3.85902593,103.185822 L3.85902593,109.076389 C3.85902593,111.243203 5.63111375,113 7.81678767,113 L15.7323111,113 L59.2676902,113 L67.1832137,113 C69.3688876,113 71.1409754,111.243203 71.1409754,109.076389 L71.1409754,103.185822 L74.0595773,102.341756 C74.7519383,102.141651 75.149446,101.422895 74.9473528,100.736508 Z" id="Shape" fill="#C38762"></path>
            <path d="M70.0296449,11.3 C68.3403076,8.22478887 63.2725491,3.53125 51.7857143,3.53125 L51.7857143,42.375 L70.0296449,42.375 C70.0296449,42.375 73.1772296,17.0294531 70.0296449,11.3 Z" id="Shape" fill="#6E4439"></path>
            <path d="M73.2142857,100.643954 L71.6431247,89.0474571 C71.2123462,85.8674642 69.2084397,83.1043887 66.2928172,81.6697381 L62.0558458,79.5849094 C61.3381276,79.2316306 60.5001751,79.6362074 60.2894575,80.3984184 C57.5626694,90.2614295 48.4007597,97.5145331 37.5145068,97.5145331 C26.6257952,97.5145331 17.4619184,90.2577999 14.7375891,80.3909173 C14.5281009,79.6325778 13.6945742,79.2301788 12.9805442,79.5815218 L9.1168157,81.4826939 C5.81959039,83.1051146 3.8176509,85.8674642 3.38687247,89.0472152 L1.78571429,100.864148 C6.98210204,102.625219 15.8774799,105.256904 15.8774799,105.256904 L15.8774799,113 L59.1520254,113 L59.1520254,105.256904 L73.2142857,100.643954 Z" id="Shape" fill="#FF6473"></path>
            <path d="M48.2142857,67.2172122 L25.1411342,61.796875 L25.1411342,73.7724817 C25.1411342,75.2356729 24.375394,76.5243178 23.2142857,77.2428288 C39.3400152,80.2266312 48.2142857,67.2172122 48.2142857,67.2172122 Z" id="Shape" fill="#A46D4D"></path>
            <path d="M65.5529954,38.1528533 L65.5529954,34.314538 C65.5529954,29.0147843 61.1685916,24.71875 55.7603687,24.71875 L20.5069124,24.71875 C15.0986895,24.71875 10.7142857,29.0147843 10.7142857,34.314538 L10.7142857,51.5869565 C10.7142857,56.2353961 13.5666331,60.4280358 17.9456509,62.2162109 L30.6004176,67.383063 C32.9873704,68.3577552 35.5476526,68.859375 38.1333957,68.859375 L38.1333957,68.859375 C40.7191388,68.859375 43.2791763,68.3577552 45.666129,67.383063 L58.3216302,62.215971 C62.700648,60.4282757 65.5529954,56.235636 65.5529954,51.5869565 L65.5529954,49.6677989 C68.7980271,49.6677989 71.4285714,47.0901303 71.4285714,43.9103261 C71.4285714,40.7305218 68.7980271,38.1528533 65.5529954,38.1528533 Z" id="Shape" fill="#D29771"></path>
            <path d="M51.7857143,45.90625 L51.7857143,45.90625 C50.8035714,45.90625 50,45.1117187 50,44.140625 L50,42.375 C50,41.4039062 50.8035714,40.609375 51.7857143,40.609375 L51.7857143,40.609375 C52.7678571,40.609375 53.5714286,41.4039062 53.5714286,42.375 L53.5714286,44.140625 C53.5714286,45.1117187 52.7678571,45.90625 51.7857143,45.90625 Z" id="Shape" fill="#623F33"></path>
            <path d="M38.392911,60.03125 C34.9007426,60.03125 31.6342159,59.2658221 29.4310782,57.9306972 C28.5344038,57.3874621 28.3011507,56.2990236 28.912274,55.5003543 C29.5211876,54.7025598 30.7441708,54.4948008 31.6408452,55.0382546 C33.1849813,55.9736074 35.7092718,56.5323698 38.392911,56.5323698 C41.0765503,56.5323698 43.6008408,55.9736074 45.1449769,55.0382546 C46.0436155,54.4932699 47.2636524,54.701685 47.8735481,55.5003543 C48.4844259,56.2990236 48.2514182,57.3874621 47.3547439,57.9306972 C45.1518517,59.2658221 41.8850795,60.03125 38.392911,60.03125 Z" id="Shape" fill="#A46D4D"></path>
            <path d="M10.7142857,52.4922863 L10.7142857,52.4922863 C10.7142857,57.115968 13.5706735,61.2860621 17.9558943,63.0643829 L30.6283416,68.2034507 C31.2486026,68.45494 31.881612,68.6715931 32.5227118,68.859375 C26.9222207,64.872052 23.1942805,61.3862761 21.009883,59.1071241 C19.42074,57.4488215 18.5594843,55.2605779 18.5594843,52.9928789 C18.5594843,48.5154619 24.7704299,40.5620517 34.2498813,37.2215861 C43.3123115,34.0281009 51.7736033,31.5594968 55.3571429,26.484375 L37.4369932,26.484375 C22.6784587,26.484375 10.7142857,38.1285225 10.7142857,52.4922863 Z" id="Shape" fill="#C38762"></path>
            <path d="M16.0714286,105.9375 C15.9487538,103.520152 15.151995,101.184374 13.7127617,99.2404332 L4.29088845,86.515625 C3.83606362,87.4644714 3.51645698,88.4743042 3.37647229,89.5362296 L1.78571429,101.621951 L16.0714286,105.9375 Z" id="Shape" fill="#F05467"></path>
            <path d="M0.0537834493,101.28855 C-0.152665974,102.036961 0.253410187,102.820668 0.960442607,103.038854 L16.0714286,107.703125 L16.0714286,106.103893 C16.0714286,105.093444 15.9213295,104.103583 15.7022455,103.132439 L2.09326117,98.9318148 C1.38622875,98.7136283 0.645840976,99.1430493 0.439644245,99.8911936 L0.0537834493,101.28855 Z" id="Shape" fill="#BD445A"></path>
            <path d="M58.9285714,105.9375 C59.0512462,103.520152 59.848005,101.184374 61.2872383,99.2404332 L70.7091115,86.515625 C71.1639364,87.4644714 71.483543,88.4743042 71.6235277,89.5362296 L73.2142857,101.621951 L58.9285714,105.9375 Z" id="Shape" fill="#F05467"></path>
            <path d="M74.9462166,101.28855 C75.152666,102.036961 74.7465898,102.820668 74.0395574,103.038854 L58.9285714,107.703125 L58.9285714,106.103893 C58.9285714,105.093444 59.0786705,104.103583 59.2977545,103.132439 L72.9067388,98.9318148 C73.6137712,98.7136283 74.354159,99.1430493 74.5603558,99.8911936 L74.9462166,101.28855 Z" id="Shape" fill="#BD445A"></path>
            <path d="M34.0902989,0 C-9.99957835,0 6.6565975,70.4341216 6.6565975,70.4341216 L14.4947979,72.390625 C14.6819349,59.3091988 16.1386155,44.5009139 22.3329983,39.1300676 C31.6408613,31.0594911 53.5819437,31.7227458 57.6049001,23.4780405 C60.7076027,17.1194046 57.6458057,6.6031989 55.64535,3.91300676 C55.64535,3.91300676 52.8694023,0 34.0902989,0 Z" id="Shape" fill="#6E4439"></path>
            <path d="M24.358385,29.0277502 C40.9038312,21.1256709 49.9134746,19.5129375 47.9476984,1.93518335 C47.9091201,1.59096261 47.8440037,1.26948027 47.7862591,0.941708596 C44.6088277,0.400341055 40.2325186,0 34.1872656,0 C-10.0426971,0 6.66639991,69.6666004 6.66639991,69.6666004 L10.5606024,70.625 C10.2912911,57.7632877 9.03638875,36.345646 24.358385,29.0277502 Z" id="Shape" fill="#5E342E"></path>
            <path d="M57.1428571,11.4765625 C57.1428571,13.9144832 51.9192995,15.890625 49.3303571,15.890625 C46.7414148,15.890625 44.6428571,13.9144832 44.6428571,11.4765625 C44.6428571,9.03864183 46.7414148,7.0625 49.3303571,7.0625 C51.9192995,7.0625 57.1428571,9.03886819 57.1428571,11.4765625 Z" id="Shape" fill="#BD445A"></path>
            <path d="M58.9285714,11.4765625 C58.9285714,9.03864183 64.1521291,7.0625 66.7410714,7.0625 C69.3300137,7.0625 71.4285714,9.03864183 71.4285714,11.4765625 C71.4285714,13.9144832 69.3300137,15.890625 66.7410714,15.890625 C64.1521291,15.890625 58.9285714,13.9144832 58.9285714,11.4765625 Z" id="Shape" fill="#BD445A"></path>
            <path d="M59.2010932,10.889553 C61.6013883,12.2528945 60.7508495,18.122478 59.3650245,20.483831 C57.9791996,22.8451839 54.9103115,23.6540745 52.5100163,22.2909862 C50.1097212,20.9276448 49.2874908,17.9082929 50.6730584,15.54694 C52.0591407,13.1855871 56.8010554,9.52621161 59.2010932,10.889553 Z" id="Shape" fill="#FF6473"></path>
            <path d="M58.6560707,12.063568 C56.255781,10.7002121 57.1063179,4.83056644 58.4918823,2.46918853 C59.8779614,0.1080638 62.9470999,-0.70108853 65.3471322,0.662267321 C67.7474219,2.02562317 68.5696504,5.04500699 67.184086,7.4063849 C65.7982642,9.76750963 61.0563603,13.4269238 58.6560707,12.063568 Z" id="Shape" fill="#FF6473"></path>
            <path d="M58.6560707,10.8895557 C56.255781,12.2529055 57.1063179,18.1225249 58.4918823,20.4838923 C59.8777041,22.8452596 62.9468426,23.6541552 65.3471322,22.2908054 C67.7474219,20.9274556 68.5696504,17.9080853 67.184086,15.546718 C65.7982642,13.1856038 61.0563603,9.52620594 58.6560707,10.8895557 Z" id="Shape" fill="#F05467"></path>
            <path d="M59.2010932,12.0635693 C61.6013883,10.7002195 60.7508495,4.83060008 59.3650245,2.46923273 C57.9791996,0.107865374 54.9103115,-0.701030165 52.5100163,0.662319593 C50.1097212,2.02566935 49.2874908,5.04503968 50.6730584,7.40640704 C52.0591407,9.76752121 56.8010554,13.4269191 59.2010932,12.0635693 Z" id="Shape" fill="#F05467"></path>
            <ellipse id="Oval" fill="#FFFFFF" cx="58.9285714" cy="12.359375" rx="3.57142857" ry="3.53125"></ellipse>
            <path d="M36.6177092,88.28125 C28.8062016,88.28125 21.874103,84.2590588 19.7602607,78.5031687 C19.393313,77.502856 19.9152644,76.399046 20.9255871,76.0341581 C21.9407765,75.6805827 23.0528128,76.1884412 23.4197605,77.1868284 C24.9853714,81.4516363 30.4126926,84.4301903 36.6177092,84.4301903 C42.7913358,84.4301903 48.212087,81.4704102 49.7995979,77.2320783 C50.1740889,76.2336911 51.2975619,75.7239071 52.3003413,76.0962564 C53.3089606,76.4647547 53.8231253,77.5724157 53.4496077,78.570803 C51.3089986,84.2874604 44.3873634,88.28125 36.6177092,88.28125 Z" id="Shape" fill="#6E4439"></path>
            <ellipse id="Oval" fill="#FF6473" cx="37.5" cy="88.28125" rx="3.57142857" ry="3.53125"></ellipse>
            <path d="M36.0714286,88.28125 C36.0714286,86.6376738 37.4404464,85.2686523 39.2857143,84.874918 C38.94125,84.8014238 38.5866071,84.75 38.2142857,84.75 C35.8475,84.75 33.9285714,86.3308965 33.9285714,88.28125 C33.9285714,90.2313828 35.8475,91.8125 38.2142857,91.8125 C38.5866071,91.8125 38.94125,91.7610762 39.2857143,91.687582 C37.4404464,91.2938477 36.0714286,89.9248262 36.0714286,88.28125 Z" id="Shape" fill="#F05467"></path>
            <ellipse id="Oval" fill="#FFA0B5" cx="38.3928571" cy="89.1640625" rx="1" ry="1"></ellipse>
            <path d="M23.2142857,45.90625 L23.2142857,45.90625 C22.2321429,45.90625 21.4285714,45.1117187 21.4285714,44.140625 L21.4285714,42.375 C21.4285714,41.4039062 22.2321429,40.609375 23.2142857,40.609375 L23.2142857,40.609375 C24.1964286,40.609375 25,41.4039062 25,42.375 L25,44.140625 C25,45.1117187 24.1964286,45.90625 23.2142857,45.90625 Z" id="Shape" fill="#623F33"></path>
        </g>
        <g id="boy-(3)" transform="translate(84.000000, 300.000000)" fill-rule="nonzero">
            <path d="M78.9524537,106.314677 L76.401846,86.2393789 C76.0167108,83.2092013 73.8973336,80.6657156 70.9525227,79.7000138 L61.1170911,76.4745647 C59.766473,76.0314868 58.2848737,76.3137383 57.243321,77.1867606 L54.3463686,76.2366705 C52.7007909,75.696948 51.5907249,74.1818593 51.5907249,72.4752161 L51.5907249,66.0813134 L60.2710027,62.5230603 C64.7765054,60.6761586 67.7114927,56.3452449 67.7114927,51.543251 L67.7114927,49.5607992 C71.0502548,49.5607992 73.7567806,46.8981186 73.7567806,43.6134438 C73.7567806,41.988329 73.0935622,40.5161107 72.0197679,39.4426131 L74.1446866,22.7176585 C75.1368695,14.9082853 71.431108,7.24263982 64.6475393,3.07156125 C61.3820762,1.06457661 57.6090609,0 53.7587163,0 C53.7587163,0 24.9209297,0.0056995489 24.7957418,0.0148683884 C20.5731082,0.217326278 16.9220062,2.55240668 14.9250461,5.94735538 L14.3595598,5.94735538 C8.40872946,5.94735538 3.42716032,10.9287611 4.09717973,16.7457703 C4.10196558,16.7876496 4.10700332,16.8295289 4.11229295,16.8711604 L6.9802783,39.4431087 C5.90648403,40.5166063 5.24326556,41.9888246 5.24326556,43.6139394 C5.24326556,46.8986143 7.94979135,49.5612948 11.2885535,49.5612948 L11.2885535,51.5437466 C11.2885535,56.3454927 14.2232889,60.6764064 18.7287916,62.5235559 L27.4093213,66.081809 L27.4093213,72.4754639 C27.4093213,74.1821071 26.2992553,75.6971958 24.6536776,76.2369183 L21.7567252,77.1870084 C20.7151725,76.3139862 19.2335732,76.0317346 17.8829551,76.4748126 L8.0475235,79.7002616 C5.10271262,80.6659635 2.98333543,83.2094491 2.59820021,86.2396267 L0.0475924777,106.314925 C-0.403537134,109.864752 2.41004062,113 6.04628131,113 L6.10295588,113 L72.8973422,113 L72.9540168,113 C76.5900056,112.999752 79.4033314,109.864505 78.9524537,106.314677 Z" id="Shape" fill="#FFD7A3"></path>
            <path d="M27.0144681,72.0272604 C27.0144681,72.0282729 27.0144681,72.0292853 27.0144681,72.0302978 C27.0144681,72.1279993 27.0103494,72.2249415 27.0033235,72.3208712 C26.9996894,72.3717469 26.9936325,72.4221163 26.9883025,72.4727389 C26.9839416,72.5127307 26.9800652,72.5527225 26.9744929,72.5924612 C26.9640752,72.6704199 26.9507501,72.7471131 26.9359714,72.8238063 C26.9357292,72.8250718 26.9354869,72.8263374 26.9352446,72.8278561 C26.720348,73.9418053 26.0662095,74.910721 25.1363636,75.4954115 C41.3505199,78.4219012 50.2727273,65.328125 50.2727273,65.328125 L27.0144681,65.328125 L27.0144681,72.0272604 L27.0144681,72.0272604 Z" id="Shape" fill="#FDC88E"></path>
            <path d="M64.3996345,3.12692187 C61.2839729,1.08358929 57.6837649,0 54.0097694,0 L53.8636364,0 L53.8636364,42.375 L71.1688619,42.375 L73.4618043,23.1241384 C74.4085443,15.1752946 70.8725099,7.3724933 64.3996345,3.12692187 Z" id="Shape" fill="#734A3E"></path>
            <path d="M3.64774347,15.9828299 C3.65223281,16.024273 3.65695842,16.0657161 3.66192032,16.1069141 L6.61306742,40.609375 L17.9545455,40.609375 L17.9545455,5.296875 L13.2742955,5.296875 C7.6921618,5.296875 3.01923656,10.2261567 3.64774347,15.9828299 Z" id="Shape" fill="#623F33"></path>
            <path d="M67.5933542,36.9245924 L67.5933542,32.9327446 C67.5933542,27.4212502 63.1011566,22.953125 57.5599686,22.953125 L21.4397806,22.953125 C15.8983417,22.953125 11.406395,27.4212502 11.406395,32.9327446 L11.406395,36.9245924 C8.08158184,36.9245924 5.38636364,39.6056172 5.38636364,42.9123641 C5.38636364,46.2193606 8.08158184,48.9001359 11.406395,48.9001359 L11.406395,50.8960598 C11.406395,55.730437 14.3288694,60.0907823 18.8155486,61.9504844 L31.7814419,67.3240105 C34.2270796,68.3376904 36.8503083,68.859375 39.4996237,68.859375 L39.4996237,68.859375 C42.1489392,68.859375 44.771917,68.3374409 47.2175548,67.3240105 L60.1842006,61.9502349 C64.6708798,60.0907823 67.593605,55.730437 67.593605,50.8958103 L67.593605,48.8998864 C70.9184182,48.8998864 73.6136364,46.2191111 73.6136364,42.9121146 C73.6136364,39.6051182 70.9181673,36.9245924 67.5933542,36.9245924 Z" id="Shape" fill="#FFE1B2"></path>
            <path d="M25.1363636,45.90625 L25.1363636,45.90625 C24.1488636,45.90625 23.3409091,45.1117187 23.3409091,44.140625 L23.3409091,42.375 C23.3409091,41.4039062 24.1488636,40.609375 25.1363636,40.609375 L25.1363636,40.609375 C26.1238636,40.609375 26.9318182,41.4039062 26.9318182,42.375 L26.9318182,44.140625 C26.9318182,45.1117187 26.1238636,45.90625 25.1363636,45.90625 Z" id="Shape" fill="#623F33"></path>
            <path d="M53.8636364,45.90625 L53.8636364,45.90625 C52.8761364,45.90625 52.0681818,45.1117187 52.0681818,44.140625 L52.0681818,42.375 C52.0681818,41.4039062 52.8761364,40.609375 53.8636364,40.609375 L53.8636364,40.609375 C54.8511364,40.609375 55.6590909,41.4039062 55.6590909,42.375 L55.6590909,44.140625 C55.6590909,45.1117187 54.8511364,45.90625 53.8636364,45.90625 Z" id="Shape" fill="#623F33"></path>
            <path d="M38.6023269,58.265625 C35.0911103,58.265625 31.8067662,57.5001971 29.5916113,56.1650722 C28.690046,55.6218371 28.4555206,54.5333986 29.0699773,53.7347293 C29.6822122,52.9369348 30.9118663,52.7291758 31.8134316,53.2726296 C33.3659902,54.2079824 35.9040496,54.7667448 38.6023269,54.7667448 C41.3006042,54.7667448 43.8386636,54.2079824 45.3912222,53.2726296 C46.2947624,52.7276449 47.5214541,52.93606 48.1346765,53.7347293 C48.7488864,54.5333986 48.5146078,55.6218371 47.6130425,56.1650722 C45.3978877,57.5001971 42.1132967,58.265625 38.6023269,58.265625 Z" id="Shape" fill="#E4B07B"></path>
            <path d="M58.0916422,22.953125 L21.6033724,22.953125 C20.9080682,22.953125 20.2305013,23.0232729 19.5762463,23.153792 L19.5762463,23.1501257 C14.9500912,24.0561823 11.4677419,28.0001073 11.4677419,32.7298353 L11.4677419,36.6405194 C8.10904738,36.6405194 5.38636364,39.2667883 5.38636364,42.5065456 C5.38636364,45.746303 8.10904738,48.3725718 11.4677419,48.3725718 L11.4677419,50.3279139 C11.4677419,55.0642412 14.4199977,59.3359304 18.9523983,61.1575759 L32.0501668,66.4218456 C32.6912454,66.6794619 33.3455004,66.9013932 34.0081172,67.09375 C28.2196586,63.0092848 24.3665987,59.4385858 22.108887,57.1039074 C20.4664081,55.405204 19.5762463,53.1636487 19.5762463,50.8407023 L19.5762463,28.6773889 C30.8308504,37.3400431 55.1031516,36.6400306 68.2272727,36.6400306 L68.2272727,32.7298353 C68.2272727,27.3304026 63.6892976,22.953125 58.0916422,22.953125 Z" id="Shape" fill="#FFD7A3"></path>
            <path d="M53.2323578,0.00316384026 L24.7674346,0.00316384026 C18.029889,0.00316384026 12.5681818,5.30356349 12.5681818,11.8421207 L12.5681818,11.8421207 C12.5681818,23.249449 23.7500678,30.1564937 32.9002698,33.546875 C32.9002698,33.546875 31.8798532,31.7392143 30.505404,29.0675563 C38.6207028,31.7022175 51.1546726,33.546875 68.2272727,33.546875 C68.2272727,33.546875 68.2272727,29.2922499 68.2272727,27.8740415 C68.2272727,-0.901283136 53.2323578,0.00316384026 53.2323578,0.00316384026 Z" id="Shape" fill="#734A3E"></path>
            <path d="M69.0025695,36.2969739 L58.5926242,36.2969739 C58.5857382,36.2969739 58.5796172,36.2987119 58.5727311,36.2989602 C57.4054156,35.6712805 56.0649282,35.3125 54.6395127,35.3125 C50.8771708,35.3125 47.7026947,37.8048452 46.7626193,41.1820996 C45.5960689,38.883918 43.1635026,37.2988281 40.3573035,37.2988281 C37.5511044,37.2988281 35.1185382,38.883918 33.9519877,41.1820996 C33.0119123,37.8048452 29.8374363,35.3125 26.0750943,35.3125 C24.651209,35.3125 23.3117419,35.6702874 22.1451914,36.2969739 L11.7928851,36.2969739 C11.2289928,36.2969739 10.7727273,36.7411665 10.7727273,37.2901379 C10.7727273,37.8391094 11.2289928,38.283302 11.7928851,38.283302 L19.717981,38.283302 C18.5907066,39.6459231 17.9138319,41.3760149 17.9138319,43.2578125 C17.9138319,47.6389075 21.5751782,51.203125 26.0750943,51.203125 C29.8830883,51.203125 33.0899544,48.6504451 33.986163,45.2106213 C34.0665004,45.2304846 34.1493883,45.2441406 34.2363567,45.2441406 C34.8002489,45.2441406 35.2565145,44.799948 35.2565145,44.2509766 C35.2565145,41.5130715 37.5449835,39.2851562 40.3573035,39.2851562 C43.1696235,39.2851562 45.4580925,41.5130715 45.4580925,44.2509766 C45.4580925,44.799948 45.9143581,45.2441406 46.4782503,45.2441406 C46.5649637,45.2441406 46.6478516,45.2304846 46.728444,45.2106213 C47.6249077,48.6504451 50.8315187,51.203125 54.6395127,51.203125 C59.1396838,51.203125 62.8007752,47.6389075 62.8007752,43.2578125 C62.8007752,41.3760149 62.1239005,39.6459231 60.9966261,38.283302 L69.0025695,38.283302 C69.5664617,38.283302 70.0227273,37.8391094 70.0227273,37.2901379 C70.0227273,36.7411665 69.5664617,36.2969739 69.0025695,36.2969739 Z M26.0753493,49.2167969 C22.7001572,49.2167969 19.9544025,46.5436958 19.9544025,43.2578125 C19.9544025,39.9719292 22.7001572,37.2988281 26.0753493,37.2988281 C29.4505414,37.2988281 32.1962961,39.9719292 32.1962961,43.2578125 C32.1962961,46.5436958 29.4505414,49.2167969 26.0753493,49.2167969 Z M54.6397678,49.2167969 C51.2645757,49.2167969 48.518821,46.5436958 48.518821,43.2578125 C48.518821,39.9719292 51.2645757,37.2988281 54.6397678,37.2988281 C58.0149599,37.2988281 60.7607146,39.9719292 60.7607146,43.2578125 C60.7607146,46.5436958 58.0149599,49.2167969 54.6397678,49.2167969 Z" id="Shape" fill="#734A3E"></path>
            <path d="M38.6021479,88.28125 C46.7355631,88.28125 53.8114845,84.0270799 57.4545455,77.7560588 L53.3164396,76.458841 C52.9147617,76.3329933 52.5470355,76.1489175 52.2185034,75.921875 C49.4097541,80.2312209 44.3706815,83.1158577 38.6023975,83.1158577 C32.8341136,83.1158577 27.795041,80.2312209 24.9862917,75.921875 C24.65751,76.1486827 24.2897837,76.3327585 23.8883555,76.458841 L19.75,77.7560588 C23.3925617,84.0270799 30.4687328,88.28125 38.6021479,88.28125 Z" id="Shape" fill="#B97E63"></path>
            <path d="M78.9524537,106.252078 L76.4018378,85.9880497 C76.0169532,82.9293851 73.8973174,80.3619879 70.952749,79.3872074 L61.1172861,76.1314355 C59.404449,75.5643769 57.4775073,76.1699565 56.5100063,77.6837803 C52.9379854,83.2725718 46.659682,86.9855925 39.5000231,86.9855925 C32.3403643,86.9855925 26.0620609,83.2725718 22.49004,77.6837803 C21.5225389,76.1699565 19.5955973,75.5643769 17.8827602,76.1314355 L8.04729728,79.3872074 C5.10247701,80.3619879 2.98309306,82.9293851 2.5982085,85.9880497 L0.0475926295,106.252078 C-0.403538421,109.835028 2.41004831,113 6.0463006,113 L72.9537457,113 C76.589998,113 79.4033328,109.835278 78.9524537,106.252078 Z" id="Shape" fill="#FFA64E"></path>
            <path d="M4.43116148,81.21875 C3.50443411,82.3087773 2.88400683,83.6256816 2.69119953,85.058933 L0.0492959908,104.695423 C-0.41798124,108.167658 2.49630501,111.234375 6.26270037,111.234375 L17.9545455,111.234375 L17.9545455,98.6138605 C17.9545455,96.7481855 17.2308006,94.9452895 15.9161105,93.5350651 L4.43116148,81.21875 Z" id="Shape" fill="#FF8C51"></path>
            <path d="M74.5688385,81.21875 C75.4955659,82.3087773 76.1159932,83.6256816 76.3088005,85.058933 L78.950704,104.695423 C79.4179812,108.167658 76.503695,111.234375 72.7372996,111.234375 L61.0454545,111.234375 L61.0454545,98.6138605 C61.0454545,96.7481855 61.7691994,94.9452895 63.0838895,93.5350651 L74.5688385,81.21875 Z" id="Shape" fill="#FF8C51"></path>
        </g>
        <g id="boy-(1)" transform="translate(221.000000, 176.000000)" fill-rule="nonzero">
            <path d="M58.3255814,68.2446337 C54.2598023,66.9797507 44.2224558,66.3840653 38.8837209,66.3492063 L38.8837209,66.3492063 C33.544986,66.3840653 23.5076395,66.9797507 19.4418605,68.2446337 L38.8837209,85.5555556 L58.3255814,68.2446337 Z" id="Shape" fill="#A63F44"></path>
            <path d="M75.9542148,103.527906 L73.500467,84.0921929 C73.1299574,81.1585546 71.0910641,78.6961026 68.2583254,77.7611673 L61.2448135,75.4465008 C61.2634723,75.334702 61.5101556,73.6291709 59.4264328,72.2537581 C57.7301821,71.1340909 59.9515435,69.0948428 57.3666998,67.7753294 L50.8640016,73.5696729 C50.0963271,72.8592948 49.6317967,71.8540654 49.6317967,70.7665464 L49.6317967,64.5763489 L57.9824388,61.1314592 C62.3168439,59.3433985 65.1403744,55.1504645 65.1403744,50.5014587 L65.1403744,25.3107472 C65.1403744,20.0108614 60.8006381,15.7142857 55.4475133,15.7142857 L20.5532136,15.7142857 C15.2000887,15.7142857 10.8603525,20.0108614 10.8603525,25.3107472 L10.8603525,50.5014587 C10.8603525,55.1502246 13.6836406,59.3431586 18.0180458,61.1314592 L26.3689302,64.5763489 L26.3689302,70.7663065 C26.3689302,71.8581439 25.9005227,72.8672119 25.1272747,73.5780698 L18.6141567,67.7753294 C16.029313,69.0948428 18.2506744,71.1340909 16.5544237,72.2537581 C14.3999431,73.6757138 14.73677,75.4510591 14.7370123,75.4524986 L7.74167449,77.7611673 C4.90869353,78.6961026 2.86980021,81.1585546 2.49953291,84.0921929 L0.0457851416,103.527906 C-0.388212712,106.964399 2.31851873,110 5.81667228,110 L5.87119463,110 L70.1290476,110 L70.18357,110 C73.6814812,110 76.3882126,106.964399 75.9542148,103.527906 Z" id="Shape" fill="#FDC88E"></path>
            <path d="M49.4883721,64.1296903 L26.651318,59.3650794 L26.651318,69.891935 C26.651318,71.1781164 25.8934132,72.3108673 24.744186,72.9424563 C40.704908,75.5652927 49.4883721,64.1296903 49.4883721,64.1296903 Z" id="Shape" fill="#FDC88E"></path>
            <path d="M56.6359385,61.4105113 L44.399402,66.6097433 C42.0914701,67.5902567 39.6161836,68.0952381 37.1160424,68.0952381 L37.1160424,68.0952381 C34.6159012,68.0952381 32.1403779,67.5902567 29.832446,66.6097433 L17.5966196,61.4107527 C13.3625706,59.6116963 10.6046512,55.3929778 10.6046512,50.7153829 L10.6046512,25.3697608 C10.6046512,20.0372833 14.8439078,15.7142857 20.0730897,15.7142857 L54.1594684,15.7142857 C59.3886503,15.7142857 63.627907,20.0372833 63.627907,25.3697608 L63.627907,50.7151415 C63.6281437,55.3927364 60.8702243,59.6114549 56.6359385,61.4105113 Z" id="Shape" fill="#FFE1B2"></path>
            <path d="M24.744186,45.3968254 L24.744186,45.3968254 C23.772093,45.3968254 22.9767442,44.6111111 22.9767442,43.6507937 L22.9767442,41.9047619 C22.9767442,40.9444444 23.772093,40.1587302 24.744186,40.1587302 L24.744186,40.1587302 C25.7162791,40.1587302 26.5116279,40.9444444 26.5116279,41.9047619 L26.5116279,43.6507937 C26.5116279,44.6111111 25.7162791,45.3968254 24.744186,45.3968254 Z" id="Shape" fill="#623F33"></path>
            <path d="M51.255814,45.3968254 L51.255814,45.3968254 C50.2837209,45.3968254 49.4883721,44.6111111 49.4883721,43.6507937 L49.4883721,41.9047619 C49.4883721,40.9444444 50.2837209,40.1587302 51.255814,40.1587302 L51.255814,40.1587302 C52.227907,40.1587302 53.0232558,40.9444444 53.0232558,41.9047619 L53.0232558,43.6507937 C53.0232558,44.6111111 52.227907,45.3968254 51.255814,45.3968254 Z" id="Shape" fill="#623F33"></path>
            <path d="M38.0000533,57.6190476 C34.5436187,57.6190476 31.3105169,56.8621137 29.129923,55.5418048 C28.2424239,55.004598 28.0115575,53.928238 28.6164275,53.1384316 C29.2191103,52.3494902 30.4295793,52.1440367 31.3170784,52.6814598 C32.845414,53.606433 35.3438746,54.1589947 38.0000533,54.1589947 C40.6562321,54.1589947 43.1546927,53.606433 44.6830283,52.6814598 C45.5724715,52.1425229 46.7800243,52.3486251 47.3836792,53.1384316 C47.9883062,53.928238 47.7576828,55.004598 46.8701837,55.5418048 C44.6895897,56.8621137 41.456488,57.6190476 38.0000533,57.6190476 Z" id="Shape" fill="#E4B07B"></path>
            <path d="M45.9534884,37.5210187 L45.9534884,24.6822003 L10.6046512,24.4444444 L10.6046512,51.7863724 C10.6046512,56.3936062 13.3503132,60.548866 17.5655442,62.3208607 L29.7467535,67.4416471 C30.3429705,67.6922419 30.9514419,67.9081242 31.5676899,68.0952381 C26.1842977,64.1220993 22.6008682,60.6487234 20.5011473,58.3776791 C18.9736062,56.7252757 18.1457364,54.5448163 18.1457364,52.2851843 L18.1457364,31.3396032 C21.5627907,33.2414126 32.9922481,37.5210187 45.9534884,37.5210187 Z" id="Shape" fill="#FFD7A3"></path>
            <path d="M75.9504521,101.671245 L73.3968389,82.937725 C73.011301,80.1101112 70.9597837,77.7450505 68.1221665,76.8571983 L57.158932,73.4265762 C56.284626,73.1530705 55.3126633,73.4952997 54.8772066,74.2690755 C51.624488,80.0494864 38.6519005,84.0294339 37.9014223,84.0331361 C37.150944,84.0368384 24.1366768,80.1829998 20.8224078,74.434521 C20.378712,73.6649102 19.4031145,73.3321681 18.5319588,73.6142353 L7.60579979,77.1510665 C4.77763324,78.0664544 2.7513177,80.4514148 2.39607032,83.2824995 L0.0421323698,102.039853 C-0.374180725,105.356399 2.34809012,108.271016 5.84628327,108.253893 L70.2131827,107.941282 C73.7111335,107.924391 76.4019022,104.983626 75.9504521,101.671245 Z" id="Shape" fill="#FF4F4F"></path>
            <path d="M3.92582384,80.3174603 C3.10478213,81.3953916 2.55510949,82.6976821 2.38429029,84.1150286 L0.0436741872,103.533611 C-0.370313906,106.967315 2.21162189,110 5.54849074,110 L15.9069767,110 L15.9069767,97.5195362 C15.9069767,95.6745647 15.2657691,93.8916756 14.1010086,92.4971005 L3.92582384,80.3174603 Z" id="Shape" fill="#F23F44"></path>
            <path d="M72.0741762,80.3174603 C72.8952179,81.3953916 73.4448905,82.6976821 73.6157097,84.1150286 L75.9563258,103.533611 C76.3703139,106.967315 73.7883781,110 70.4515093,110 L60.0930233,110 L60.0930233,97.5195362 C60.0930233,95.6745647 60.7342309,93.8916756 61.8989914,92.4971005 L72.0741762,80.3174603 Z" id="Shape" fill="#F23F44"></path>
            <path d="M58.2796867,72.5767996 C56.6049974,71.4563492 58.7981226,69.4156746 56.2461354,68.0952381 L37.1163987,85.3723095 L17.9864228,68.0952381 C15.4344355,69.4156746 17.6275608,71.4563492 15.9528715,72.5767996 C13.8248198,74.0004702 14.1585615,75.7780179 14.1585615,75.7780179 L37.106829,87.2922242 L37.106829,87.3015873 L37.1163987,87.2967857 L37.1259683,87.3015873 L37.1259683,87.2919841 L60.0739966,75.7777778 C60.0739966,75.7777778 60.4077383,74.0004702 58.2796867,72.5767996 Z" id="Shape" fill="#F23F44"></path>
            <path d="M38,96.031746 C30.6790033,96.031746 24.744186,102.285533 24.744186,110 L51.255814,110 C51.255814,102.285533 45.3209967,96.031746 38,96.031746 Z" id="Shape" fill="#FFC84A"></path>
            <path d="M20.2067247,23.7774603 C20.5598505,24.0854134 25.8318426,28.8942194 33.0828861,29.1873964 L33.0828861,25.4347311 C33.0828861,25.4347311 38.07813,31.6500829 50.4853906,33.1746032 L50.4853906,25.4347311 L54.3526138,32.9400616 L67.1627907,26.7247098 L67.1627907,18.1639422 C67.1627907,9.0965648 59.5878672,1.74603175 50.2436891,1.74603175 L27.5237527,1.74603175 C18.1795746,1.74603175 10.6046512,9.0965648 10.6046512,18.1639422 L10.6046512,32.2364369 L20.2059996,23.7769912 C20.2062413,23.7769912 20.206483,23.7772258 20.2067247,23.7774603 Z" id="Shape" fill="#9D6E48"></path>
            <path d="M26.2182136,1.74603175 C17.455921,2.57545944 10.6046512,9.81780296 10.6046512,18.6317447 L10.6046512,33.1746032 L20.4189327,24.4324062 C20.4191798,24.4326486 20.4194269,24.432891 20.4196739,24.432891 C20.7806312,24.7511372 26.1695424,29.7206743 33.5813953,30.0236505 C28.832127,21.7031964 26.5673118,8.00236946 26.2182136,1.74603175 Z" id="Shape" fill="#8D5F3D"></path>
            <path d="M7.06976744,50.6349206 L5.30232558,50.6349206 C4.32625581,50.6349206 3.53488372,49.6967778 3.53488372,48.5396825 L3.53488372,42.2539683 C3.53488372,41.096873 4.32625581,40.1587302 5.30232558,40.1587302 L7.06976744,40.1587302 C8.04583721,40.1587302 8.8372093,41.096873 8.8372093,42.2539683 L8.8372093,48.5396825 C8.8372093,49.6970397 8.04583721,50.6349206 7.06976744,50.6349206 Z" id="Shape" fill="#A63F44"></path>
            <path d="M68.9302326,40.1587302 L70.6976744,40.1587302 C71.6737442,40.1587302 72.4651163,41.096873 72.4651163,42.2539683 L72.4651163,48.5396825 C72.4651163,49.6967778 71.6737442,50.6349206 70.6976744,50.6349206 L68.9302326,50.6349206 C67.9541628,50.6349206 67.1627907,49.6967778 67.1627907,48.5396825 L67.1627907,42.2539683 C67.1627907,41.096873 67.9541628,40.1587302 68.9302326,40.1587302 Z" id="Shape" fill="#A63F44"></path>
            <path d="M68.9302326,40.1587302 L65.0639535,40.1587302 L65.0639535,19.1232048 C65.0639535,10.6877201 58.1261573,3.82464097 49.5988372,3.82464097 L26.4011628,3.82464097 C17.8738427,3.82464097 10.9360465,10.6877201 10.9360465,19.1232048 L10.9360465,40.1587302 L7.06976744,40.1587302 L7.06976744,19.1232048 C7.06976744,8.57938681 15.7415898,0 26.4011628,0 L49.5988372,0 C60.2584102,0 68.9302326,8.57938681 68.9302326,19.1232048 L68.9302326,40.1587302 Z" id="Shape" fill="#A63F44"></path>
            <path d="M7.95348837,52.3809524 L7.95348837,52.3809524 C6.48938372,52.3809524 5.30232558,51.2082738 5.30232558,49.7619048 L5.30232558,39.2857143 C5.30232558,37.8393452 6.48938372,36.6666667 7.95348837,36.6666667 L7.95348837,36.6666667 C9.41759302,36.6666667 10.6046512,37.8393452 10.6046512,39.2857143 L10.6046512,49.7619048 C10.6046512,51.2084921 9.41759302,52.3809524 7.95348837,52.3809524 Z" id="Shape" fill="#F23F44"></path>
            <path d="M68.0465116,36.6666667 L68.0465116,36.6666667 C69.5106163,36.6666667 70.6976744,37.8393452 70.6976744,39.2857143 L70.6976744,49.7619048 C70.6976744,51.2082738 69.5106163,52.3809524 68.0465116,52.3809524 L68.0465116,52.3809524 C66.582407,52.3809524 65.3953488,51.2082738 65.3953488,49.7619048 L65.3953488,39.2857143 C65.3953488,37.8393452 66.582407,36.6666667 68.0465116,36.6666667 Z" id="Shape" fill="#F23F44"></path>
        </g>
        <polygon id="Rectangle-path" fill="#BDBDBE" fill-rule="nonzero" points="189 157 193 157 193 259.640969 193 413 189 413"></polygon>
        <polygon id="Rectangle-path" fill="#BDBDBE" fill-rule="nonzero" points="324.121 157 328.121 157 328.121 259.640969 328.121 413 324.121 413"></polygon>
        <polygon id="Rectangle-path" fill="#BDBDBE" fill-rule="nonzero" transform="translate(254.500000, 283.873500) rotate(90.000000) translate(-254.500000, -283.873500) " points="252.5 81.3735 256.5 81.3735 256.5 243.75472 256.5 486.3735 252.5 486.3735"></polygon>
    </g>
</svg>